<?xml version="1.0" encoding="utf-8"?>
<!-- Generator: Adobe Illustrator 16.0.0, SVG Export Plug-In . SVG Version: 6.00 Build 0)  -->
<!DOCTYPE svg PUBLIC "-//W3C//DTD SVG 1.1//EN" "http://www.w3.org/Graphics/SVG/1.1/DTD/svg11.dtd">
<svg version="1.1" id="Layer_1" xmlns="http://www.w3.org/2000/svg" xmlns:xlink="http://www.w3.org/1999/xlink" x="0px" y="0px"
	 width="61.978px" height="78.068px" viewBox="0 0 61.978 78.068" style="enable-background:new 0 0 61.978 78.068;"
	 xml:space="preserve">
<g>
	<g>
		<g>
			<path style="fill:#767575;" d="M21.386,6.813c-0.662,0-1.269-0.441-1.448-1.112l-0.979-3.654c-0.215-0.8,0.26-1.622,1.061-1.837
				C20.82,0,21.643,0.47,21.856,1.271l0.979,3.654c0.214,0.8-0.261,1.622-1.061,1.837C21.645,6.796,21.514,6.813,21.386,6.813z"/>
		</g>
		<g>
			<path style="fill:#767575;" d="M10.592,13.229c-0.384,0-0.768-0.146-1.061-0.439l-2.675-2.675c-0.586-0.586-0.586-1.535,0-2.121
				s1.535-0.586,2.121,0l2.675,2.675c0.586,0.586,0.586,1.535,0,2.121C11.359,13.082,10.976,13.229,10.592,13.229z"/>
		</g>
		<g>
			<path style="fill:#767575;" d="M44.898,12.793c-0.384,0-0.768-0.146-1.061-0.439c-0.586-0.586-0.586-1.535,0-2.121l2.675-2.675
				c0.586-0.586,1.535-0.586,2.121,0s0.586,1.535,0,2.121l-2.675,2.675C45.666,12.646,45.282,12.793,44.898,12.793z"/>
		</g>
		<g>
			<path style="fill:#767575;" d="M33.944,6.652c-0.129,0-0.259-0.017-0.39-0.051c-0.8-0.215-1.274-1.037-1.061-1.838l0.979-3.654
				c0.215-0.8,1.037-1.268,1.838-1.061c0.8,0.215,1.274,1.037,1.061,1.838l-0.979,3.654C35.213,6.211,34.606,6.652,33.944,6.652z"/>
		</g>
	</g>
	<g>
		<g>
			<line style="fill:#FFFFFF;" x1="28.439" y1="13.547" x2="28.563" y2="67.417"/>
			<path style="fill:#5585EB;" d="M28.563,68.917c-0.826,0-1.498-0.669-1.5-1.496l-0.123-53.87
				c-0.002-0.829,0.668-1.502,1.496-1.504c0.002,0,0.003,0,0.004,0c0.827,0,1.498,0.669,1.5,1.496l0.123,53.87
				c0.002,0.829-0.668,1.502-1.496,1.504C28.564,68.917,28.563,68.917,28.563,68.917z"/>
		</g>
		<path style="fill:#FFFFFF;" d="M28.453,13.548c-0.005,0-0.009-0.001-0.014-0.001c-0.004,0-0.008,0.001-0.012,0.001
			C13.521,13.588,1.467,25.776,1.5,40.611c0.033,14.838,12.15,26.84,27.063,26.806s26.974-12.09,26.939-26.929
			C55.469,25.654,43.358,13.521,28.453,13.548z"/>
		<path style="fill:#FFFFFF;" d="M52.847,30.166"/>
		<path style="fill:#FFFFFF;" d="M4.107,30.276"/>
		<path style="fill:#FFFFFF;" d="M52.754,50.809"/>
		<path style="fill:#FFFFFF;" d="M3.521,50.809"/>
		<g>
			<path style="fill:#FFFFFF;" d="M28.439,67.417"/>
			<path style="fill:#FFFFFF;" d="M28.439,13.547"/>
			<path style="fill:#1181C9;" d="M28.501,12.047c-0.014,0-0.028,0-0.042,0c-0.008,0-0.016,0-0.022,0c0,0,0,0-0.001,0
				C12.721,12.083-0.036,24.898,0,40.614c0.008,3.718,0.734,7.322,2.104,10.663c0.02,0.061,0.041,0.119,0.067,0.175
				c1.423,3.403,3.52,6.526,6.225,9.205c5.36,5.31,12.467,8.238,20.024,8.258c0.007,0,0.012,0.002,0.019,0.002
				c0.004,0,0.008-0.001,0.012-0.001c0.016,0,0.031,0.001,0.047,0.001c0.014,0,0.028,0,0.043,0c0.009,0,0.017,0,0.025,0
				c7.611-0.018,14.761-2.983,20.131-8.352c5.373-5.37,8.322-12.502,8.305-20.08C56.967,24.79,44.188,12.047,28.501,12.047z
				 M52.442,49.309h-7.828c0.513-2.76,0.785-5.714,0.778-8.798c-0.007-3.08-0.306-6.047-0.851-8.826l7.845-0.018
				c1.028,2.752,1.608,5.72,1.615,8.825C54.009,43.549,53.471,46.522,52.442,49.309z M3,40.608
				c-0.007-3.105,0.561-6.077,1.575-8.833l7.845-0.018c-0.531,2.782-0.816,5.75-0.81,8.831c0.007,3.057,0.29,5.983,0.806,8.72H4.557
				C3.542,46.559,3.007,43.625,3,40.608z M14.61,40.582c-0.007-3.088,0.312-6.063,0.882-8.831l11.447-0.026v17.584H15.521
				C14.945,46.573,14.617,43.634,14.61,40.582z M29.939,31.718l11.531-0.026c0.583,2.766,0.915,5.739,0.922,8.826
				c0.007,3.072-0.307,6.036-0.878,8.791H29.939V31.718z M51.042,28.67l-7.206,0.017c-1.325-4.836-3.426-8.949-6.033-11.874
				C43.504,19.055,48.197,23.3,51.042,28.67z M40.71,28.693l-10.771,0.024V15.201C34.544,16.145,38.556,21.428,40.71,28.693z
				 M26.939,15.211v13.514l-10.701,0.024C18.359,21.479,22.342,16.18,26.939,15.211z M19.092,16.854
				c-2.594,2.938-4.676,7.061-5.979,11.902l-7.207,0.017C8.727,23.389,13.401,19.122,19.092,16.854z M10.508,58.525
				c-1.874-1.855-3.418-3.952-4.611-6.217h7.202c1.282,4.817,3.329,8.889,5.9,11.791C15.86,62.848,12.977,60.971,10.508,58.525z
				 M16.283,52.309h10.656v13.425C22.379,64.726,18.416,59.487,16.283,52.309z M29.939,65.782V52.309h10.827
				C38.626,59.6,34.586,64.888,29.939,65.782z M46.576,58.443c-2.458,2.457-5.334,4.347-8.467,5.614
				c2.546-2.901,4.567-6.956,5.83-11.749h7.168C49.931,54.539,48.413,56.607,46.576,58.443z"/>
		</g>
	</g>
	<g>
		<g>
			<g>
				<path style="fill:#FFFFFF;" d="M50.952,58.422L44.515,57.9c0.004,0-5.205-0.59-8.101,0.885l-6.029,2.901
					c0,0-3.231,1.396-1.986,4.422c0,0,0.88,2.563,5.005,1.24c0,0-4.543,1.799-9.911,1.104c0,0-3.492-0.599-6.252-2.093
					c-2.636-1.429-4.734-1.13-5.844,0.507c0,0-2.217,2.757,2.984,5.537l8.604,3.476c0,0,3.729,1.398,9.546,0.2l18.422-2.697V58.422z
					"/>
				<path style="fill:#757577;" d="M27.915,78.068c-3.31,0-5.339-0.74-5.458-0.785l-8.639-3.489
					c-0.049-0.02-0.098-0.043-0.145-0.067c-2.41-1.288-3.81-2.817-4.162-4.544c-0.34-1.663,0.433-2.873,0.663-3.188
					c1.259-1.826,3.957-3.027,7.78-0.954c2.513,1.36,5.758,1.927,5.79,1.933c1.206,0.156,2.376,0.173,3.452,0.106
					c-0.093-0.168-0.165-0.331-0.217-0.484c-1.295-3.138,0.967-5.49,2.811-6.286l5.974-2.876c2.247-1.146,6.843-1.402,8.868-0.988
					l0.003-0.04l6.438,0.522c0.779,0.063,1.379,0.714,1.379,1.495v14.959c0,0.744-0.546,1.376-1.282,1.484l-18.422,2.697
					C30.94,77.937,29.313,78.068,27.915,78.068z M23.547,74.488c0.002,0.001,3.426,1.203,8.681,0.122l17.225-2.524v-12.28
					l-5.059-0.41c-0.02-0.002-0.038-0.004-0.058-0.006c-1.329-0.15-5.201-0.307-7.24,0.732l-6.06,2.916
					c-0.608,0.276-1.855,1.029-1.251,2.5c0.256,0.578,1.225,1.003,3.16,0.382c0.774-0.248,1.598,0.162,1.87,0.924
					c0.272,0.761-0.107,1.602-0.86,1.899c-0.2,0.08-4.971,1.934-10.656,1.196c-0.213-0.035-3.83-0.668-6.773-2.261
					c-1.057-0.574-2.966-1.33-3.889,0.029c-0.021,0.034-0.047,0.066-0.072,0.098c0.002,0.002-0.22,0.338-0.104,0.819
					c0.105,0.445,0.581,1.347,2.558,2.418L23.547,74.488L23.547,74.488z"/>
			</g>
			<g>
				<line style="fill:#FFFFFF;" x1="33.403" y1="67.349" x2="36.679" y2="65.677"/>
				<path style="fill:#757577;" d="M33.404,68.849c-0.546,0-1.072-0.299-1.337-0.818c-0.377-0.737-0.084-1.641,0.654-2.018
					l3.275-1.672c0.735-0.376,1.642-0.083,2.018,0.654c0.377,0.737,0.084,1.641-0.654,2.018l-3.275,1.672
					C33.867,68.796,33.634,68.849,33.404,68.849z"/>
			</g>
		</g>
		<g>
			<polygon style="fill:#FFFFFF;" points="50.736,59.564 50.736,56.348 60.478,56.348 60.478,75.395 50.736,75.395 50.736,70.824 
							"/>
			<path style="fill:#757577;" d="M60.478,76.895h-9.741c-0.828,0-1.5-0.672-1.5-1.5V56.348c0-0.828,0.672-1.5,1.5-1.5h9.741
				c0.828,0,1.5,0.672,1.5,1.5v19.047C61.978,76.223,61.306,76.895,60.478,76.895z M52.236,73.895h6.741V57.848h-6.741V73.895z"/>
		</g>
		<g>
			<path style="fill:#1181C9;" d="M55.895,72.907c-0.828,0-1.5-0.672-1.5-1.5v-2.061c0-0.828,0.672-1.5,1.5-1.5s1.5,0.672,1.5,1.5
				v2.061C57.395,72.235,56.723,72.907,55.895,72.907z"/>
		</g>
	</g>
</g>
</svg>
