<?xml version="1.0" encoding="utf-8"?>
<!-- Generator: Adobe Illustrator 16.0.0, SVG Export Plug-In . SVG Version: 6.00 Build 0)  -->
<!DOCTYPE svg PUBLIC "-//W3C//DTD SVG 1.1//EN" "http://www.w3.org/Graphics/SVG/1.1/DTD/svg11.dtd">
<svg version="1.1" id="Layer_1" xmlns="http://www.w3.org/2000/svg" xmlns:xlink="http://www.w3.org/1999/xlink" x="0px" y="0px"
	 width="76.405px" height="63.405px" viewBox="0 0 76.405 63.405" style="enable-background:new 0 0 76.405 63.405;"
	 xml:space="preserve">
<g>
	<g>
		<path style="fill:#FFFFFF;" d="M40.929,12.132l0.041-10.85H1.636v30.685h4.568h2.963v8.197c0,1.256,1.622,1.873,2.547,0.97
			l7.422-9.167h7.36V12.163L40.929,12.132z"/>
	</g>
	<g>
		<path style="fill:#757577;" d="M10.42,43.082c-0.389,0-0.782-0.077-1.156-0.234c-1.068-0.451-1.731-1.434-1.731-2.564v-6.798H0V0
			h42.139l-0.046,12.255l-2.8-0.011L39.329,2.8H2.8v27.885h7.532v9.59c0.005-0.014,0.044,0.006,0.089,0.007l7.813-9.597h8.311v2.8
			h-6.975l-7.113,8.77C11.902,42.796,11.169,43.082,10.42,43.082z"/>
	</g>
	<g>
		<g>
			<path style="fill:#1181C9;" d="M19.532,13.114h-9.506c-0.741,0-1.342-0.671-1.342-1.5s0.601-1.5,1.342-1.5h9.506
				c0.742,0,1.342,0.671,1.342,1.5S20.273,13.114,19.532,13.114z"/>
		</g>
	</g>
	<g>
		<g>
			<path style="fill:#1181C9;" d="M22.798,21.676H9.892c-0.667,0-1.208-0.671-1.208-1.5s0.541-1.5,1.208-1.5h12.906
				c0.667,0,1.208,0.671,1.208,1.5S23.465,21.676,22.798,21.676z"/>
		</g>
	</g>
	<g>
		<g>
			<path style="fill:#FFFFFF;" d="M30.941,51.228H55.35l8.335,10.296c1.04,1.014,2.861,0.32,2.861-1.091v-9.205h3.328h5.131V16.766
				H30.831L30.941,51.228z"/>
		</g>
		<g>
			<path style="fill:#757577;" d="M64.875,63.405c-0.797,0-1.576-0.303-2.167-0.878l-0.111-0.122l-7.916-9.776H29.545l-0.119-37.262
				h46.979v37.262h-8.459v7.806c0,1.2-0.704,2.242-1.838,2.721C65.708,63.323,65.29,63.405,64.875,63.405z M64.701,60.553
				c0.129,0.092,0.275,0.042,0.319,0.021c0.126-0.054,0.126-0.116,0.126-0.141V49.828h8.459V18.166H32.235l0.102,31.662h23.682
				L64.701,60.553z"/>
		</g>
	</g>
	<g>
		<g>
			<path style="fill:#1181C9;" d="M53.259,30.978H39.208c-0.829,0-1.5-0.672-1.5-1.5s0.671-1.5,1.5-1.5h14.051
				c0.829,0,1.5,0.672,1.5,1.5S54.088,30.978,53.259,30.978z"/>
		</g>
	</g>
	<g>
		<g>
			<path style="fill:#1181C9;" d="M65.973,30.978h-6.022c-0.829,0-1.5-0.672-1.5-1.5s0.671-1.5,1.5-1.5h6.022
				c0.829,0,1.5,0.672,1.5,1.5S66.801,30.978,65.973,30.978z"/>
		</g>
	</g>
	<g>
		<g>
			<path style="fill:#1181C9;" d="M66.642,39.566H39.208c-0.829,0-1.5-0.672-1.5-1.5c0-0.829,0.671-1.5,1.5-1.5h27.434
				c0.829,0,1.5,0.671,1.5,1.5C68.142,38.894,67.47,39.566,66.642,39.566z"/>
		</g>
	</g>
	<path style="fill:#FFFFFF;" d="M25.794,31.668"/>
</g>
</svg>
