<?xml version="1.0" encoding="utf-8"?>
<!-- Generator: Adobe Illustrator 16.0.0, SVG Export Plug-In . SVG Version: 6.00 Build 0)  -->
<!DOCTYPE svg PUBLIC "-//W3C//DTD SVG 1.1//EN" "http://www.w3.org/Graphics/SVG/1.1/DTD/svg11.dtd">
<svg version="1.1" id="Layer_1" xmlns="http://www.w3.org/2000/svg" xmlns:xlink="http://www.w3.org/1999/xlink" x="0px" y="0px"
	 width="76.582px" height="82.849px" viewBox="0 0 76.582 82.849" style="enable-background:new 0 0 76.582 82.849;"
	 xml:space="preserve">
<g>
	<g>
		<g>
			<line style="fill:#1181C9;" x1="31.757" y1="62.447" x2="31.757" y2="75.704"/>
		</g>
		<g>
			<rect x="30.257" y="62.447" style="fill:#1181C9;" width="3" height="13.257"/>
		</g>
	</g>
	<g>
		<g>
			<line style="fill:#1181C9;" x1="31.757" y1="79.535" x2="31.757" y2="82.849"/>
		</g>
		<g>
			<rect x="30.257" y="79.534" style="fill:#1181C9;" width="3" height="3.314"/>
		</g>
	</g>
	<g>
		<g>
			<line style="fill:#1181C9;" x1="37.44" y1="70.764" x2="37.44" y2="74.078"/>
		</g>
		<g>
			<rect x="35.94" y="70.764" style="fill:#1181C9;" width="3" height="3.313"/>
		</g>
	</g>
	<g>
		<g>
			<line style="fill:#1181C9;" x1="37.293" y1="76.903" x2="37.293" y2="80.218"/>
		</g>
		<g>
			<rect x="35.793" y="76.903" style="fill:#1181C9;" width="3" height="3.314"/>
		</g>
	</g>
	<g>
		<g>
			<line style="fill:#FFFFFF;" x1="47.647" y1="69.376" x2="47.647" y2="72.69"/>
		</g>
		<g>
			<rect x="46.147" y="69.376" style="fill:#1181C9;" width="3" height="3.313"/>
		</g>
	</g>
	<g>
		<g>
			<path style="fill:#757577;" d="M11.097,43.354H8.296V17.379H1.582c-0.642,0-1.215-0.384-1.461-0.977s-0.111-1.27,0.343-1.724
				L14.681,0.462C14.988,0.157,15.438,0.004,15.836,0c0.429,0.01,0.839,0.196,1.129,0.512l13.032,14.217
				c0.424,0.463,0.533,1.132,0.281,1.706c-0.252,0.573-0.82,0.944-1.447,0.944h-5.518v20.157h-2.801V16.16
				c0-0.872,0.709-1.582,1.582-1.582h3.966l-10.3-11.236L4.524,14.578h4.991c0.873,0,1.582,0.71,1.582,1.582V43.354z"/>
		</g>
	</g>
	<g>
		<g>
			<rect x="12.247" y="41.822" style="fill:#757577;" width="2.801" height="2.443"/>
		</g>
	</g>
	<g>
		<g>
			<rect x="12.189" y="36.731" style="fill:#757577;" width="2.8" height="2.443"/>
		</g>
	</g>
	<g>
		<g>
			<rect x="20.362" y="46.161" style="fill:#757577;" width="2.799" height="2.443"/>
		</g>
	</g>
	<g>
		<g>
			<rect x="20.294" y="40.577" style="fill:#757577;" width="2.801" height="2.443"/>
		</g>
	</g>
	<g>
		<g>
			<rect x="8.618" y="46.575" style="fill:#757577;" width="2.799" height="2.443"/>
		</g>
	</g>
	<g>
		<g>
			<path style="fill:#757577;" d="M68.589,42.688H65.79V16.491c0-0.868,0.705-1.575,1.574-1.575h4.684L61.349,4.218l-9.807,10.698
				h3.703c0.869,0,1.574,0.707,1.574,1.575v20.594h-2.799V17.717h-5.266c-0.625,0-1.19-0.37-1.441-0.942s-0.14-1.239,0.283-1.698
				L60.149,1.382c0.287-0.313,0.697-0.5,1.125-0.51c0.428-0.024,0.847,0.158,1.148,0.46L76.12,15.028
				c0.453,0.455,0.586,1.128,0.34,1.718c-0.244,0.59-0.814,0.971-1.453,0.971h-6.418V42.688z M49.663,16.966l-0.004,0.005
				C49.659,16.969,49.661,16.968,49.663,16.966z M62.216,3.272l-0.004,0.003C62.214,3.274,62.214,3.273,62.216,3.272z"/>
		</g>
	</g>
	<g>
		<g>
			<rect x="61.413" y="41.213" style="fill:#757577;" width="2.801" height="2.354"/>
		</g>
	</g>
	<g>
		<g>
			<rect x="61.47" y="36.31" style="fill:#757577;" width="2.8" height="2.354"/>
		</g>
	</g>
	<g>
		<g>
			<rect x="54.165" y="45.394" style="fill:#757577;" width="2.801" height="2.354"/>
		</g>
	</g>
	<g>
		<g>
			<rect x="54.23" y="40.015" style="fill:#757577;" width="2.8" height="2.354"/>
		</g>
	</g>
	<g>
		<g>
			<rect x="65.765" y="45.792" style="fill:#757577;" width="2.799" height="2.354"/>
		</g>
	</g>
	<g>
		<g>
			<path style="fill:#FFFFFF;" d="M47.735,66.445V37.448c0-0.135,0.11-0.245,0.246-0.245h9.139c0.213,0,0.325-0.255,0.181-0.412
				L39.623,17.506c-0.095-0.103-0.256-0.106-0.354-0.007L19.983,36.783c-0.154,0.155-0.045,0.42,0.174,0.42h10.761
				c0.136,0,0.246,0.11,0.246,0.245v20.438"/>
		</g>
		<g>
			<path style="fill:#1181C9;" d="M49.235,66.445h-3V37.448c0-0.962,0.783-1.745,1.746-1.745h6.287L39.403,19.485L23.185,35.703
				h7.734c0.962,0,1.745,0.783,1.745,1.745v20.438h-3V38.703h-9.507c-0.708,0-1.341-0.423-1.612-1.076
				c-0.271-0.654-0.124-1.401,0.376-1.902l19.287-19.287c0.333-0.334,0.79-0.511,1.269-0.511c0.473,0.01,0.928,0.214,1.249,0.562
				l17.682,19.289c0.467,0.508,0.59,1.247,0.312,1.882c-0.278,0.634-0.906,1.044-1.599,1.044h-7.885V66.445z M56.194,37.804
				c0.001,0.001,0.002,0.002,0.002,0.002L56.194,37.804z"/>
		</g>
	</g>
	<g>
		<g>
			<line style="fill:#FFFFFF;" x1="37.44" y1="54.17" x2="37.44" y2="67.428"/>
		</g>
		<g>
			<rect x="35.94" y="54.17" style="fill:#1181C9;" width="3" height="13.258"/>
		</g>
	</g>
</g>
</svg>
