<?xml version="1.0" encoding="utf-8"?>
<!-- Generator: Adobe Illustrator 16.0.0, SVG Export Plug-In . SVG Version: 6.00 Build 0)  -->
<!DOCTYPE svg PUBLIC "-//W3C//DTD SVG 1.1//EN" "http://www.w3.org/Graphics/SVG/1.1/DTD/svg11.dtd">
<svg version="1.1" id="Layer_1" xmlns="http://www.w3.org/2000/svg" xmlns:xlink="http://www.w3.org/1999/xlink" x="0px" y="0px"
	 width="90.967px" height="46.019px" viewBox="0 0 90.967 46.019" style="enable-background:new 0 0 90.967 46.019;"
	 xml:space="preserve">
<g>
	<g>
		<g>
			<g>
				<path style="fill:#FFFFFF;" d="M79.601,8.014l-5.404-3.601c0,0-4.981-3.399-10.027-2.853c0,0-2.556-0.108-7.001,2.853H43.921
					c0,0-5.245-0.148-5.245,3.13c0,0-0.239,3.449,3.144,3.449c0,0-4.902-0.754-4.902,3.354c0,0,0,3.415,4.976,3.415
					c0,0-2.73,0.273-2.73,3.243c0,0,0.256,3.399,4.759,3.399c0,0-4.6,4.548,3.544,6.764c0,0,3.217,0.826,10.527,0.826h15.827
					c0,0,3.896-0.288,5.781-1.725V8.014z"/>
				<polygon style="fill:#FFFFFF;" points="79.601,9.021 79.601,6.214 89.467,6.214 89.467,31.776 79.601,31.776 79.601,27.791 				
					"/>
				<g>
					<path style="fill:#1181C9;" d="M84.396,29.699c-0.773,0-1.4-0.627-1.4-1.4v-1.797c0-0.773,0.627-1.4,1.4-1.4s1.4,0.627,1.4,1.4
						v1.797C85.796,29.072,85.169,29.699,84.396,29.699z"/>
				</g>
			</g>
			<g>
				<path style="fill:#757577;" d="M57.168,12.492H40.95c-0.828,0-1.5-0.672-1.5-1.5c0-0.829,0.672-1.5,1.5-1.5h16.218
					c0.828,0,1.5,0.671,1.5,1.5C58.668,11.82,57.996,12.492,57.168,12.492z"/>
			</g>
		</g>
		<path style="fill:#FFFFFF;" d="M59.074,3.324c0,0-6.048,4.139-4.701,8.153c0,0,1.046,3.373,7.227-0.625l4.374-2.03"/>
		<g>
			<path style="fill:#FFFFFF;" d="M69.341,18.996c0,0,4.806,2.873,10.26,1.148"/>
			<path style="fill:#757577;" d="M89.467,4.713h-9.866c-0.52,0-0.978,0.265-1.247,0.667l-3.312-2.207
				c-0.222-0.151-5.447-3.668-10.948-3.115c-0.665,0.008-3.287,0.224-7.373,2.854l-12.758,0c-0.372-0.011-3.731-0.052-5.582,1.747
				c-0.778,0.756-1.194,1.737-1.205,2.839c-0.015,0.315-0.023,1.509,0.567,2.667c-0.273,0.15-0.539,0.328-0.788,0.543
				c-0.702,0.602-1.538,1.721-1.538,3.637c0,1.193,0.668,3.136,2.841,4.186c-0.363,0.649-0.596,1.463-0.596,2.473
				c0,0.037,0.001,0.074,0.004,0.112c0.1,1.315,1.047,3.565,3.774,4.433c-0.294,0.777-0.442,1.708-0.18,2.707
				c0.521,1.984,2.477,3.451,5.831,4.363c0.139,0.035,3.485,0.874,10.9,0.874h15.827c0.037,0,0.073-0.001,0.11-0.004
				c0.317-0.024,2.432-0.205,4.407-0.911c0.266,0.418,0.731,0.698,1.264,0.698h9.866c0.828,0,1.5-0.671,1.5-1.5V6.213
				C90.967,5.385,90.295,4.713,89.467,4.713z M78.101,18.979c-4.281,0.863-7.954-1.249-7.994-1.273
				c-0.71-0.42-1.629-0.189-2.053,0.521c-0.426,0.711-0.193,1.632,0.518,2.058c0.168,0.1,3.263,1.914,7.403,1.914
				c0.683,0,1.395-0.054,2.126-0.168v7.404c-1.237,0.612-3.195,0.967-4.34,1.06H57.992c-6.968,0-10.127-0.772-10.134-0.774
				c-2.123-0.577-3.47-1.386-3.694-2.218c-0.139-0.514,0.146-1.116,0.432-1.546h12.572c0.828,0,1.5-0.672,1.5-1.5
				s-0.672-1.5-1.5-1.5H44.266c-0.112-0.027-0.226-0.052-0.345-0.052c-2.782,0-3.199-1.581-3.258-1.974
				c0.028-1.157,0.732-1.521,1.18-1.636h15.325c0.828,0,1.5-0.671,1.5-1.5s-0.672-1.5-1.5-1.5H42.2
				c-0.1-0.021-0.202-0.033-0.308-0.033c-3.215,0-3.46-1.624-3.476-1.915c0-0.838,0.277-1.176,0.486-1.356
				c0.528-0.458,1.422-0.565,2.109-0.552c0.25,0.035,0.52,0.055,0.807,0.055c0.784,0,1.436-0.604,1.496-1.387
				c0.06-0.781-0.493-1.477-1.269-1.596c-0.088-0.014-0.367-0.053-0.765-0.068c-0.419-0.088-0.589-0.266-0.657-0.338
				c-0.409-0.429-0.465-1.207-0.453-1.457c0.003-0.034,0.004-0.068,0.004-0.104c0-0.31,0.088-0.528,0.293-0.729
				c0.741-0.724,2.605-0.92,3.452-0.901H54.27c-1.221,1.699-2.069,3.802-1.33,6.007c0.218,0.701,0.913,1.682,2.155,2.131
				c0.464,0.169,0.969,0.254,1.513,0.254c1.584,0,3.499-0.715,5.718-2.137l4.28-1.986c0.751-0.349,1.077-1.24,0.729-1.992
				c-0.349-0.751-1.237-1.08-1.992-0.729l-4.374,2.03c-0.063,0.029-0.124,0.063-0.183,0.102c-2.891,1.869-4.187,1.782-4.608,1.658
				c-0.283-0.082-0.375-0.242-0.383-0.252c-0.8-2.385,2.804-5.525,4.129-6.438c0.063-0.043,0.116-0.094,0.171-0.145
				c2.573-1.34,4.018-1.357,4.012-1.358c0.073,0.003,0.148,0,0.225-0.007c4.416-0.479,8.978,2.572,9.034,2.61l4.736,3.156V18.979z
				 M87.967,30.276h-6.866v-0.008V8.014V7.713h6.866V30.276z"/>
		</g>
	</g>
	<g>
		<g>
			<path style="fill:#FFFFFF;" d="M11.366,21.545l5.109-5.118c0,0,5.459-5.385,10.633-4.253c0,0,2.073,0.531,3.066,1.359
				c4.087,3.405-0.463,2.912-4.126,3.405h20.997c0,0,5.245-0.148,5.245,3.13c0,0,0.239,3.449-3.144,3.449
				c0,0,4.901-0.754,4.901,3.354c0,0,0,3.416-4.975,3.416c0,0,2.73,0.271,2.73,3.242c0,0-0.256,3.4-4.759,3.4
				c0,0,4.599,4.547-3.545,6.763c0,0-3.216,0.826-10.526,0.826H17.146c0,0-3.896-0.287-5.78-1.724V21.545z"/>
			<polygon style="fill:#FFFFFF;" points="11.366,21.545 11.366,18.739 1.5,18.739 1.5,44.301 11.366,44.301 11.366,40.315 			"/>
			<g>
				<path style="fill:#1181C9;" d="M6.57,42.225c-0.773,0-1.4-0.626-1.4-1.399v-1.798c0-0.773,0.627-1.399,1.4-1.399
					s1.4,0.626,1.4,1.399v1.798C7.971,41.599,7.344,42.225,6.57,42.225z"/>
			</g>
		</g>
		<path style="fill:#757577;" d="M55.549,26.871c0-1.916-0.836-3.035-1.538-3.637c-0.248-0.214-0.514-0.393-0.788-0.543
			c0.592-1.158,0.583-2.353,0.568-2.668c-0.011-1.102-0.427-2.082-1.204-2.838c-1.851-1.799-5.21-1.758-5.541-1.747H33.285
			c-0.073-1.157-1.1-2.183-2.15-3.058c-1.218-1.015-3.407-1.598-3.706-1.673c-5.899-1.288-11.761,4.407-12.015,4.659l-2.707,2.712
			c-0.245-0.495-0.751-0.84-1.341-0.84H1.5c-0.828,0-1.5,0.671-1.5,1.5v25.562c0,0.829,0.672,1.5,1.5,1.5h9.866
			c0.532,0,0.997-0.279,1.264-0.697c1.975,0.707,4.089,0.888,4.406,0.911c0.037,0.003,0.073,0.004,0.11,0.004h15.828
			c7.415,0,10.761-0.838,10.92-0.879c3.335-0.907,5.29-2.374,5.812-4.358c0.263-0.998,0.114-1.93-0.18-2.707
			c2.727-0.867,3.675-3.116,3.774-4.432c0.003-0.038,0.004-0.076,0.004-0.113c0-1.01-0.232-1.823-0.596-2.473
			C54.881,30.007,55.549,28.064,55.549,26.871z M9.866,42.801H3V20.239h6.866v1.306v21.25V42.801z M49.074,28.787
			c-0.105,0-0.207,0.012-0.306,0.033h-14.97c-0.828,0-1.5,0.671-1.5,1.5c0,0.828,0.672,1.5,1.5,1.5h15.316
			c0.46,0.116,1.156,0.48,1.188,1.626c-0.069,0.44-0.509,1.983-3.258,1.983c-0.119,0-0.232,0.024-0.345,0.051H33.799
			c-0.828,0-1.5,0.672-1.5,1.5c0,0.829,0.672,1.5,1.5,1.5h12.572c0.279,0.422,0.568,1.025,0.434,1.539
			c-0.22,0.834-1.567,1.646-3.673,2.219c-0.031,0.008-3.189,0.78-10.157,0.78H17.204c-0.816-0.066-2.972-0.376-4.338-1.058V22.166
			l4.661-4.67c0.049-0.049,4.958-4.798,9.208-3.869c0.569,0.146,1.925,0.597,2.479,1.059c0.176,0.146,0.325,0.278,0.451,0.395
			c-0.528,0.068-1.158,0.119-1.651,0.158c-0.711,0.057-1.454,0.118-2.166,0.213c-0.782,0.105-1.35,0.8-1.297,1.588
			c0.053,0.787,0.708,1.399,1.497,1.399l21.039-0.001c0.797-0.027,2.655,0.168,3.407,0.899c0.208,0.202,0.296,0.42,0.296,0.731
			c0,0.034,0.001,0.068,0.004,0.104c0.012,0.18-0.028,1.002-0.446,1.45c-0.067,0.073-0.239,0.256-0.664,0.345
			c-0.281,0.012-0.498,0.033-0.635,0.051H33.799c-0.828,0-1.5,0.672-1.5,1.5s0.672,1.5,1.5,1.5h16.217
			c0.117,0,0.229-0.017,0.339-0.042c0.581,0.034,1.282,0.171,1.708,0.54c0.209,0.18,0.486,0.518,0.487,1.32
			C52.533,27.162,52.288,28.787,49.074,28.787z"/>
	</g>
</g>
</svg>
