<?xml version="1.0" encoding="utf-8"?>
<!-- Generator: Adobe Illustrator 16.0.0, SVG Export Plug-In . SVG Version: 6.00 Build 0)  -->
<!DOCTYPE svg PUBLIC "-//W3C//DTD SVG 1.1//EN" "http://www.w3.org/Graphics/SVG/1.1/DTD/svg11.dtd">
<svg version="1.1" id="Layer_1" xmlns="http://www.w3.org/2000/svg" xmlns:xlink="http://www.w3.org/1999/xlink" x="0px" y="0px"
	 width="60.402px" height="73.311px" viewBox="0 0 60.402 73.311" style="enable-background:new 0 0 60.402 73.311;"
	 xml:space="preserve">
<g>
	<g>
		<g>
			<path style="fill:#757577;" d="M0.374,27.288c0-14.654,11.918-26.728,26.566-26.916c0.114-0.001,0.227-0.002,0.341-0.002
				c12.648,0,23.703,9.01,26.365,21.542c0.657,3.092,0.739,6.281,0.245,9.488l5.675,10.149c1.146,2.049,0.084,4.629-2.171,5.279
				l-4.355,1.256l-1.423,11.857c0,1.359-1.102,2.461-2.461,2.461h-7.825V72.94h-2.342V60.061h10.286l1.423-13.737l7.625-2.199
				l-6.876-12.297l0.069-0.407c0.518-3.051,0.463-6.087-0.162-9.021C48.901,10.843,38.655,2.555,26.97,2.714
				C13.595,2.885,2.714,13.91,2.714,27.289l-0.003,4.272c-0.006,9.38,4.612,18.162,12.354,23.491l0.507,0.351V72.94H13.23V56.625
				C5.159,50.829,0.364,41.506,0.37,31.56L0.374,27.288z"/>
		</g>
		<g>
			<path style="fill:#757577;" d="M41.701,73.311h-3.082v-13.62h10.322l1.414-13.653l7.417-2.139l-6.712-12.005l0.091-0.536
				c0.511-3.007,0.457-5.996-0.159-8.882C48.598,11.19,38.664,3.082,27.301,3.082c-0.109,0-0.217,0.001-0.326,0.002
				C13.802,3.252,3.085,14.111,3.085,27.289l-0.004,4.273c-0.006,9.259,4.553,17.927,12.194,23.186l0.667,0.46v18.104h-3.081V56.815
				C4.799,50.95-0.006,41.524,0,31.561l0.004-4.273c0-14.854,12.082-27.095,26.932-27.285L27.281,0
				C40.08,0,51.32,9.183,54.009,21.835c0.657,3.093,0.747,6.287,0.268,9.495l5.613,10.04c0.601,1.074,0.677,2.344,0.209,3.483
				c-0.469,1.14-1.416,1.989-2.601,2.331l-4.12,1.188l-1.394,11.614c0.003,1.517-1.268,2.787-2.828,2.787h-7.455V73.311z
				 M39.359,72.571h1.602V62.033h8.195c1.153,0,2.091-0.938,2.091-2.091l1.455-12.145l4.591-1.324
				c0.966-0.279,1.739-0.972,2.121-1.901c0.382-0.929,0.319-1.965-0.171-2.841l-5.736-10.262l0.02-0.125
				c0.486-3.162,0.405-6.31-0.242-9.355C50.669,9.676,39.733,0.74,27.281,0.74L27.03,0.742C12.498,0.927,0.744,12.836,0.744,27.288
				L0.74,31.561C0.734,41.35,5.484,50.608,13.447,56.326l0.154,0.11v16.135h1.601V55.596l-0.347-0.24
				C7.014,49.959,2.335,41.064,2.341,31.562l0.004-4.273c0-13.581,11.045-24.771,24.62-24.944
				c11.823-0.146,22.261,8.24,24.752,19.978c0.635,2.978,0.69,6.06,0.165,9.16l-0.048,0.279l7.04,12.59l-7.833,2.259l-1.432,13.821
				h-10.25V72.571z"/>
		</g>
	</g>
	<g>
		<g>
			<path style="fill:#FFFFFF;" d="M22.316,42.886c0-2.946-1.875-6.865-3.96-8.87c-2.372-2.283-3.857-5.538-3.857-9.155
				c0-7.03,5.601-12.706,12.438-12.509c6.836-0.196,12.438,5.479,12.438,12.509c0,3.617-1.484,6.872-3.857,9.155
				c-2.085,2.005-3.96,5.924-3.96,8.87H22.316z"/>
		</g>
		<g>
			<path style="fill:#757577;" d="M32.557,43.886h-11.24v-1c0-2.556-1.639-6.212-3.653-8.149c-2.646-2.547-4.164-6.146-4.164-9.875
				c0-3.71,1.502-7.297,4.12-9.841c2.536-2.466,5.856-3.779,9.346-3.667c3.426-0.11,6.753,1.202,9.29,3.667
				c2.618,2.544,4.12,6.131,4.12,9.841c0,3.73-1.519,7.33-4.165,9.875c-2.015,1.938-3.653,5.594-3.653,8.149V43.886z M23.257,41.886
				h7.359c0.339-2.938,2.065-6.53,4.207-8.591c2.257-2.171,3.552-5.245,3.552-8.434c0-3.22-1.248-6.205-3.514-8.407
				c-2.146-2.085-4.938-3.18-7.896-3.103c-2.958-0.073-5.806,1.017-7.952,3.103c-2.266,2.202-3.514,5.188-3.514,8.407
				c0,3.188,1.294,6.263,3.551,8.434C21.191,35.356,22.918,38.948,23.257,41.886z"/>
		</g>
	</g>
	<g>
		<g>
			<path style="fill:#757577;" d="M30.733,47.008h-7.572c-0.497,0-0.9-0.402-0.9-0.9c0-0.496,0.403-0.899,0.9-0.899h7.572
				c0.497,0,0.9,0.403,0.9,0.899C31.634,46.606,31.23,47.008,30.733,47.008z"/>
		</g>
	</g>
	<g>
		<g>
			<path style="fill:#757577;" d="M26.783,51.278c-1.965,0-3.521-0.85-4.296-1.57c-0.364-0.338-0.386-0.907-0.047-1.271
				c0.339-0.363,0.904-0.384,1.269-0.049c0.121,0.109,2.802,2.462,6.516-0.081c0.41-0.282,0.972-0.176,1.251,0.234
				c0.281,0.409,0.177,0.97-0.233,1.251C29.645,50.885,28.119,51.278,26.783,51.278z"/>
		</g>
	</g>
	<g>
		<g>
			<path style="fill:#1181C9;" d="M19.201,22.616c-0.497,0-0.9-0.403-0.9-0.9c0-3.19,2.596-5.786,5.786-5.786
				c0.497,0,0.9,0.403,0.9,0.9s-0.403,0.9-0.9,0.9c-2.197,0-3.985,1.788-3.985,3.986C20.102,22.213,19.698,22.616,19.201,22.616z"/>
		</g>
	</g>
	<g>
		<g>
			<path style="fill:#1181C9;" d="M24.426,35.486c-0.364,0-0.707-0.223-0.843-0.584l-2.229-5.939
				c-0.175-0.466,0.062-0.984,0.526-1.159c0.466-0.173,0.984,0.062,1.159,0.526l2.229,5.939c0.175,0.466-0.062,0.984-0.526,1.159
				C24.638,35.467,24.531,35.486,24.426,35.486z"/>
		</g>
	</g>
	<g>
		<g>
			<path style="fill:#1181C9;" d="M29.244,35.586c-0.114,0-0.23-0.02-0.344-0.062c-0.519-0.19-0.785-0.764-0.596-1.283l2.272-6.203
				c0.19-0.519,0.768-0.784,1.283-0.595c0.519,0.19,0.785,0.764,0.596,1.283l-2.272,6.203
				C30.035,35.334,29.651,35.586,29.244,35.586z"/>
		</g>
	</g>
	<g>
		<g>
			<path style="fill:#1181C9;" d="M23.244,31.048c-0.193,0-0.345-0.006-0.439-0.011c-0.496-0.027-0.876-0.45-0.851-0.946
				c0.026-0.496,0.462-0.86,0.945-0.852c1.085,0.06,2.72-0.18,3.004-0.76c0.154-0.319,0.463-0.536,0.822-0.575
				c0.36-0.043,0.72,0.11,0.945,0.4l0.15,0.2c0.327,0.443,0.559,0.75,2.998,0.734c0.004,0,0.007,0,0.011,0
				c0.492,0,0.894,0.396,0.9,0.889c0.006,0.497-0.393,0.905-0.89,0.911c-2.438,0.033-3.397-0.331-4.015-0.93
				C25.771,30.932,24.102,31.048,23.244,31.048z M27.522,29.266c-0.002,0.004-0.004,0.008-0.006,0.012
				C27.519,29.274,27.521,29.27,27.522,29.266z"/>
		</g>
	</g>
</g>
</svg>
