<?xml version="1.0" encoding="utf-8"?>
<!-- Generator: Adobe Illustrator 16.0.0, SVG Export Plug-In . SVG Version: 6.00 Build 0)  -->
<!DOCTYPE svg PUBLIC "-//W3C//DTD SVG 1.1//EN" "http://www.w3.org/Graphics/SVG/1.1/DTD/svg11.dtd">
<svg version="1.1" id="Layer_1" xmlns="http://www.w3.org/2000/svg" xmlns:xlink="http://www.w3.org/1999/xlink" x="0px" y="0px"
	 width="353.102px" height="512px" viewBox="0 0 353.102 512" enable-background="new 0 0 353.102 512" xml:space="preserve">
<path fill="#E3E4D8" d="M353.102,485.516H0V0h273.656l79.445,79.449V485.516z"/>
<path fill="#D0CEBD" d="M273.656,0v79.449h79.445L273.656,0z"/>
<path fill="#879695" d="M0,353.102h353.102V512H0V353.102z"/>
<g>
	<path fill="#A09893" d="M185.379,203.035h-17.656c-14.598,0-26.48-11.883-26.48-26.484v-44.137
		c0-14.602,11.871-26.484,26.48-26.484h17.656c14.602,0,26.484,11.883,26.484,26.484v44.137
		C211.863,191.152,199.988,203.035,185.379,203.035z M167.723,123.586c-4.863,0-8.824,3.953-8.824,8.828v44.137
		c0,4.863,3.953,8.828,8.824,8.828h17.656c4.863,0,8.828-3.953,8.828-8.828v-44.137c0-4.863-3.953-8.828-8.828-8.828H167.723z"/>
	<path fill="#A09893" d="M247.172,150.07c-2.258,0-4.52-0.867-6.242-2.586c-3.449-3.453-3.449-9.031,0-12.484l26.484-26.484
		c3.441-3.449,9.039-3.449,12.48,0c3.453,3.453,3.453,9.031,0,12.484l-26.48,26.484C251.691,149.203,249.434,150.07,247.172,150.07z
		"/>
	<path fill="#A09893" d="M273.656,203.035c-4.875,0-8.828-3.957-8.828-8.828v-79.449c0-4.871,3.953-8.828,8.828-8.828
		c4.871,0,8.828,3.957,8.828,8.828v79.449C282.484,199.078,278.527,203.035,273.656,203.035z"/>
	<path fill="#A09893" d="M291.309,203.035H256c-4.871,0-8.828-3.957-8.828-8.828s3.957-8.828,8.828-8.828h35.309
		c4.875,0,8.828,3.957,8.828,8.828S296.184,203.035,291.309,203.035z"/>
	<path fill="#A09893" d="M97.102,203.035H61.793c-4.871,0-8.828-3.957-8.828-8.828s3.957-8.828,8.828-8.828h35.309
		c4.875,0,8.828,3.957,8.828,8.828S101.977,203.035,97.102,203.035z"/>
	<path fill="#A09893" d="M52.965,150.07c-2.258,0-4.52-0.867-6.242-2.586c-3.449-3.453-3.449-9.031,0-12.484l26.484-26.484
		c3.441-3.449,9.039-3.449,12.48,0c3.453,3.453,3.453,9.031,0,12.484l-26.48,26.484C57.484,149.203,55.227,150.07,52.965,150.07z"/>
	<path fill="#A09893" d="M79.449,203.035c-4.875,0-8.828-3.957-8.828-8.828v-79.449c0-4.871,3.953-8.828,8.828-8.828
		c4.871,0,8.828,3.957,8.828,8.828v79.449C88.277,199.078,84.32,203.035,79.449,203.035z"/>
	<path fill="#A09893" d="M185.379,326.621h-17.656c-14.598,0-26.48-11.883-26.48-26.484V256c0-14.602,11.871-26.484,26.48-26.484
		h17.656c14.602,0,26.484,11.883,26.484,26.484v44.137C211.863,314.738,199.988,326.621,185.379,326.621z M167.723,247.172
		c-4.863,0-8.824,3.957-8.824,8.828v44.137c0,4.863,3.953,8.828,8.824,8.828h17.656c4.863,0,8.828-3.953,8.828-8.828V256
		c0-4.863-3.953-8.828-8.828-8.828H167.723z"/>
	<path fill="#A09893" d="M247.172,273.656c-2.258,0-4.52-0.867-6.242-2.586c-3.449-3.453-3.449-9.031,0-12.484l26.484-26.48
		c3.441-3.453,9.039-3.453,12.48,0c3.453,3.449,3.453,9.027,0,12.48l-26.48,26.484C251.691,272.789,249.434,273.656,247.172,273.656
		z"/>
	<path fill="#A09893" d="M273.656,326.621c-4.875,0-8.828-3.957-8.828-8.828v-79.449c0-4.871,3.953-8.828,8.828-8.828
		c4.871,0,8.828,3.957,8.828,8.828v79.449C282.484,322.664,278.527,326.621,273.656,326.621z"/>
	<path fill="#A09893" d="M291.309,326.621H256c-4.871,0-8.828-3.957-8.828-8.828s3.957-8.828,8.828-8.828h35.309
		c4.875,0,8.828,3.957,8.828,8.828S296.184,326.621,291.309,326.621z"/>
	<path fill="#A09893" d="M88.277,326.621H70.621c-14.602,0-26.484-11.883-26.484-26.484V256c0-14.602,11.875-26.484,26.484-26.484
		h17.656c14.598,0,26.48,11.883,26.48,26.484v44.137C114.758,314.738,102.887,326.621,88.277,326.621z M70.621,247.172
		c-4.863,0-8.828,3.957-8.828,8.828v44.137c0,4.863,3.953,8.828,8.828,8.828h17.656c4.863,0,8.824-3.953,8.824-8.828V256
		c0-4.863-3.953-8.828-8.824-8.828H70.621z"/>
</g>
<path fill="#FFFFFF" d="M300.137,485.516h-35.23c-14.645,0-26.563-11.914-26.563-26.563v-52.805
	c0-14.645,11.918-26.563,26.563-26.563h35.23c4.875,0,8.828,3.953,8.828,8.828c0,4.871-3.953,8.828-8.828,8.828h-35.23
	c-4.918,0-8.906,4-8.906,8.906v52.805c0,4.91,3.988,8.91,8.906,8.91h35.23c4.875,0,8.828,3.953,8.828,8.828
	C308.965,481.562,305.012,485.516,300.137,485.516L300.137,485.516z M300.137,485.516"/>
<g>
	<path fill="#FFFFFF" d="M105.932,441.379H52.967c-4.871,0-8.828-3.953-8.828-8.828v-44.137c0-4.875,3.957-8.828,8.828-8.828h52.965
		c4.875,0,8.828,3.953,8.828,8.828c0,4.871-3.953,8.828-8.828,8.828H61.795v26.48h44.137c4.875,0,8.828,3.957,8.828,8.828
		C114.76,437.426,110.807,441.379,105.932,441.379L105.932,441.379z M105.932,441.379"/>
	<path fill="#FFFFFF" d="M105.932,485.516H52.967c-4.871,0-8.828-3.954-8.828-8.824v-44.141c0-4.871,3.957-8.828,8.828-8.828h52.965
		c4.875,0,8.828,3.957,8.828,8.828c0,4.875-3.953,8.828-8.828,8.828H61.795v26.484h44.137c4.875,0,8.828,3.953,8.828,8.828
		C114.76,481.562,110.807,485.516,105.932,485.516L105.932,485.516z M105.932,485.516"/>
</g>
<g>
	<path fill="#FFFFFF" d="M203.033,397.242h-52.965c-4.871,0-8.828-3.957-8.828-8.828c0-4.875,3.957-8.828,8.828-8.828h52.965
		c4.875,0,8.828,3.953,8.828,8.828C211.861,393.285,207.908,397.242,203.033,397.242L203.033,397.242z M203.033,397.242"/>
	<path fill="#FFFFFF" d="M176.553,485.516c-4.875,0-8.828-3.954-8.828-8.824v-88.277c0-4.875,3.953-8.828,8.828-8.828
		c4.871,0,8.828,3.953,8.828,8.828v88.277C185.381,481.562,181.424,485.516,176.553,485.516L176.553,485.516z M176.553,485.516"/>
</g>
</svg>
