<?xml version="1.0" encoding="utf-8"?>
<!-- Generator: Adobe Illustrator 16.0.0, SVG Export Plug-In . SVG Version: 6.00 Build 0)  -->
<!DOCTYPE svg PUBLIC "-//W3C//DTD SVG 1.1//EN" "http://www.w3.org/Graphics/SVG/1.1/DTD/svg11.dtd">
<svg version="1.1" id="Layer_1" xmlns="http://www.w3.org/2000/svg" xmlns:xlink="http://www.w3.org/1999/xlink" x="0px" y="0px"
	 width="512px" height="512px" viewBox="0 0 512 512" enable-background="new 0 0 512 512" xml:space="preserve">
<g>
	<path fill="#E3E4D8" d="M432.551,485.516H79.449V0h273.656l79.445,79.449V485.516z"/>
	<path fill="#D0CEBD" d="M353.105,0v79.449h79.445L353.105,0z"/>
	<path fill="#879695" d="M79.449,353.102h353.102V512H79.449V353.102z"/>
	<g>
		<path fill="#A09893" d="M264.828,203.035h-17.656c-14.598,0-26.48-11.883-26.48-26.484v-44.137
			c0-14.602,11.871-26.484,26.48-26.484h17.656c14.602,0,26.484,11.883,26.484,26.484v44.137
			C291.313,191.152,279.438,203.035,264.828,203.035z M247.172,123.586c-4.863,0-8.824,3.953-8.824,8.828v44.137
			c0,4.863,3.953,8.828,8.824,8.828h17.656c4.863,0,8.828-3.953,8.828-8.828v-44.137c0-4.863-3.953-8.828-8.828-8.828H247.172z"/>
		<path fill="#A09893" d="M326.621,150.07c-2.258,0-4.52-0.867-6.242-2.586c-3.449-3.453-3.449-9.031,0-12.484l26.484-26.484
			c3.441-3.449,9.039-3.449,12.48,0c3.453,3.453,3.453,9.031,0,12.484l-26.48,26.484C331.141,149.203,328.883,150.07,326.621,150.07
			z"/>
		<path fill="#A09893" d="M353.105,203.035c-4.875,0-8.828-3.957-8.828-8.828v-79.449c0-4.871,3.953-8.828,8.828-8.828
			c4.871,0,8.828,3.957,8.828,8.828v79.449C361.934,199.078,357.977,203.035,353.105,203.035z"/>
		<path fill="#A09893" d="M370.758,203.035h-35.309c-4.871,0-8.828-3.957-8.828-8.828s3.957-8.828,8.828-8.828h35.309
			c4.875,0,8.828,3.957,8.828,8.828S375.633,203.035,370.758,203.035z"/>
		<path fill="#A09893" d="M176.551,203.035h-35.309c-4.871,0-8.828-3.957-8.828-8.828s3.957-8.828,8.828-8.828h35.309
			c4.875,0,8.828,3.957,8.828,8.828S181.426,203.035,176.551,203.035z"/>
		<path fill="#A09893" d="M132.414,150.07c-2.258,0-4.52-0.867-6.242-2.586c-3.449-3.453-3.449-9.031,0-12.484l26.484-26.484
			c3.441-3.449,9.039-3.449,12.48,0c3.453,3.453,3.453,9.031,0,12.484l-26.48,26.484C136.934,149.203,134.676,150.07,132.414,150.07
			z"/>
		<path fill="#A09893" d="M158.898,203.035c-4.875,0-8.828-3.957-8.828-8.828v-79.449c0-4.871,3.953-8.828,8.828-8.828
			c4.871,0,8.828,3.957,8.828,8.828v79.449C167.727,199.078,163.77,203.035,158.898,203.035z"/>
		<path fill="#A09893" d="M264.828,326.621h-17.656c-14.598,0-26.48-11.883-26.48-26.484V256c0-14.602,11.871-26.484,26.48-26.484
			h17.656c14.602,0,26.484,11.883,26.484,26.484v44.137C291.313,314.738,279.438,326.621,264.828,326.621z M247.172,247.172
			c-4.863,0-8.824,3.957-8.824,8.828v44.137c0,4.863,3.953,8.828,8.824,8.828h17.656c4.863,0,8.828-3.953,8.828-8.828V256
			c0-4.863-3.953-8.828-8.828-8.828H247.172z"/>
		<path fill="#A09893" d="M326.621,273.656c-2.258,0-4.52-0.867-6.242-2.586c-3.449-3.453-3.449-9.031,0-12.484l26.484-26.48
			c3.441-3.453,9.039-3.453,12.48,0c3.453,3.449,3.453,9.027,0,12.48l-26.48,26.484
			C331.141,272.789,328.883,273.656,326.621,273.656z"/>
		<path fill="#A09893" d="M353.105,326.621c-4.875,0-8.828-3.957-8.828-8.828v-79.449c0-4.871,3.953-8.828,8.828-8.828
			c4.871,0,8.828,3.957,8.828,8.828v79.449C361.934,322.664,357.977,326.621,353.105,326.621z"/>
		<path fill="#A09893" d="M370.758,326.621h-35.309c-4.871,0-8.828-3.957-8.828-8.828s3.957-8.828,8.828-8.828h35.309
			c4.875,0,8.828,3.957,8.828,8.828S375.633,326.621,370.758,326.621z"/>
		<path fill="#A09893" d="M167.727,326.621H150.07c-14.602,0-26.484-11.883-26.484-26.484V256c0-14.602,11.875-26.484,26.484-26.484
			h17.656c14.598,0,26.48,11.883,26.48,26.484v44.137C194.207,314.738,182.336,326.621,167.727,326.621z M150.07,247.172
			c-4.863,0-8.828,3.957-8.828,8.828v44.137c0,4.863,3.953,8.828,8.828,8.828h17.656c4.863,0,8.824-3.953,8.824-8.828V256
			c0-4.863-3.953-8.828-8.824-8.828H150.07z"/>
	</g>
	<path fill="#FFFFFF" d="M379.586,485.516h-35.23c-14.645,0-26.563-11.914-26.563-26.563v-52.805
		c0-14.645,11.918-26.563,26.563-26.563h35.23c4.875,0,8.828,3.953,8.828,8.828c0,4.871-3.953,8.828-8.828,8.828h-35.23
		c-4.918,0-8.906,4-8.906,8.906v52.805c0,4.91,3.988,8.91,8.906,8.91h35.23c4.875,0,8.828,3.953,8.828,8.828
		C388.414,481.562,384.461,485.516,379.586,485.516L379.586,485.516z M379.586,485.516"/>
	<g>
		<path fill="#FFFFFF" d="M185.381,441.379h-52.965c-4.871,0-8.828-3.953-8.828-8.828v-44.137c0-4.875,3.957-8.828,8.828-8.828
			h52.965c4.875,0,8.828,3.953,8.828,8.828c0,4.871-3.953,8.828-8.828,8.828h-44.137v26.48h44.137c4.875,0,8.828,3.957,8.828,8.828
			C194.209,437.426,190.256,441.379,185.381,441.379L185.381,441.379z M185.381,441.379"/>
		<path fill="#FFFFFF" d="M185.381,485.516h-52.965c-4.871,0-8.828-3.954-8.828-8.824v-44.141c0-4.871,3.957-8.828,8.828-8.828
			h52.965c4.875,0,8.828,3.957,8.828,8.828c0,4.875-3.953,8.828-8.828,8.828h-44.137v26.484h44.137c4.875,0,8.828,3.953,8.828,8.828
			C194.209,481.562,190.256,485.516,185.381,485.516L185.381,485.516z M185.381,485.516"/>
	</g>
	<g>
		<path fill="#FFFFFF" d="M282.482,397.242h-52.965c-4.871,0-8.828-3.957-8.828-8.828c0-4.875,3.957-8.828,8.828-8.828h52.965
			c4.875,0,8.828,3.953,8.828,8.828C291.311,393.285,287.357,397.242,282.482,397.242L282.482,397.242z M282.482,397.242"/>
		<path fill="#FFFFFF" d="M256.002,485.516c-4.875,0-8.828-3.954-8.828-8.824v-88.277c0-4.875,3.953-8.828,8.828-8.828
			c4.871,0,8.828,3.953,8.828,8.828v88.277C264.83,481.562,260.873,485.516,256.002,485.516L256.002,485.516z M256.002,485.516"/>
	</g>
</g>
</svg>
