<?xml version="1.0" encoding="utf-8"?>
<!-- Generator: Adobe Illustrator 16.0.0, SVG Export Plug-In . SVG Version: 6.00 Build 0)  -->
<!DOCTYPE svg PUBLIC "-//W3C//DTD SVG 1.1//EN" "http://www.w3.org/Graphics/SVG/1.1/DTD/svg11.dtd">
<svg version="1.1" id="Layer_1" xmlns="http://www.w3.org/2000/svg" xmlns:xlink="http://www.w3.org/1999/xlink" x="0px" y="0px"
	 width="512px" height="512px" viewBox="0 0 512 512" enable-background="new 0 0 512 512" xml:space="preserve">
<g>
	<path fill="#E3E4D8" d="M432.551,485.516H79.449V0h273.656l79.444,79.449L432.551,485.516L432.551,485.516z"/>
	<path fill="#D0CEBD" d="M353.105,0v79.449h79.444L353.105,0z"/>
	<path fill="#B53438" d="M79.449,353.102h353.102V512H79.449V353.102z"/>
	<path fill="#FFFFFF" d="M335.449,300.137H176.551V105.93h105.934l52.964,52.968V300.137z"/>
	<path fill="#AFB6BB" d="M335.449,158.898h-52.965V105.93L335.449,158.898z"/>
	<path fill="#AFB6BB" d="M282.484,238.344h-52.965c-4.875,0-8.828-3.945-8.828-8.828c0-4.879,3.953-8.824,8.828-8.824h52.965
		c4.871,0,8.828,3.945,8.828,8.824C291.313,234.398,287.355,238.344,282.484,238.344z"/>
	<path fill="#AFB6BB" d="M282.484,203.035h-52.965c-4.875,0-8.828-3.945-8.828-8.828s3.953-8.828,8.828-8.828h52.965
		c4.871,0,8.828,3.945,8.828,8.828S287.355,203.035,282.484,203.035z"/>
	<path fill="#AFB6BB" d="M282.484,273.656h-52.965c-4.875,0-8.828-3.945-8.828-8.828s3.953-8.828,8.828-8.828h52.965
		c4.871,0,8.828,3.945,8.828,8.828S287.355,273.656,282.484,273.656z"/>
	<g>
		<path fill="#FFFFFF" d="M283.223,485.514c-3.483,0-6.698-2.063-8.108-5.348l-18.371-42.859l-18.371,42.853
			c-1.59,3.699-5.465,5.867-9.453,5.25c-3.984-0.609-7.047-3.828-7.441-7.836l-8.829-88.277c-0.488-4.854,3.055-9.18,7.899-9.668
			c4.875-0.44,9.184,3.056,9.668,7.91l5.418,54.203l12.996-30.316c1.395-3.254,4.582-5.354,8.113-5.354
			c3.531,0,6.72,2.102,8.113,5.348l12.991,30.313l5.422-54.2c0.484-4.854,4.845-8.297,9.664-7.909
			c4.855,0.483,8.388,4.813,7.91,9.668l-8.828,88.271c-0.397,4.011-3.461,7.232-7.44,7.851
			C284.117,485.479,283.664,485.514,283.223,485.514L283.223,485.514z"/>
		<g>
			<path fill="#FFFFFF" d="M326.92,485.516c-4.871,0-8.828-3.944-8.828-8.823v-88.277c0-4.883,3.957-8.828,8.828-8.828
				c4.875,0,8.828,3.945,8.828,8.828v88.277C335.748,481.57,331.795,485.516,326.92,485.516L326.92,485.516z"/>
			<path fill="#FFFFFF" d="M353.404,450.207H326.92c-4.871,0-8.828-3.945-8.828-8.828v-52.965c0-4.883,3.957-8.828,8.828-8.828
				h26.484c19.473,0,35.309,15.836,35.309,35.313C388.713,434.371,372.877,450.207,353.404,450.207L353.404,450.207z
				 M335.748,432.551h17.656c9.734,0,17.652-7.918,17.652-17.652c0-9.737-7.918-17.655-17.652-17.655h-17.656V432.551z"/>
		</g>
		<g>
			<path fill="#FFFFFF" d="M132.712,485.516c-4.871,0-8.828-3.944-8.828-8.823v-88.277c0-4.883,3.957-8.828,8.828-8.828
				c4.875,0,8.828,3.945,8.828,8.828v88.277C141.54,481.57,137.587,485.516,132.712,485.516L132.712,485.516z"/>
			<path fill="#FFFFFF" d="M185.677,485.516c-4.871,0-8.828-3.944-8.828-8.823v-88.277c0-4.883,3.957-8.828,8.828-8.828
				c4.875,0,8.828,3.945,8.828,8.828v88.277C194.505,481.57,190.552,485.516,185.677,485.516L185.677,485.516z"/>
			<path fill="#FFFFFF" d="M185.677,441.379h-52.965c-4.871,0-8.828-3.945-8.828-8.828c0-4.879,3.957-8.828,8.828-8.828h52.965
				c4.875,0,8.828,3.949,8.828,8.828C194.505,437.434,190.552,441.379,185.677,441.379L185.677,441.379z"/>
		</g>
	</g>
</g>
</svg>
