<?xml version="1.0" encoding="utf-8"?>
<!-- Generator: Adobe Illustrator 16.0.0, SVG Export Plug-In . SVG Version: 6.00 Build 0)  -->
<!DOCTYPE svg PUBLIC "-//W3C//DTD SVG 1.1//EN" "http://www.w3.org/Graphics/SVG/1.1/DTD/svg11.dtd">
<svg version="1.1" id="Layer_1" xmlns="http://www.w3.org/2000/svg" xmlns:xlink="http://www.w3.org/1999/xlink" x="0px" y="0px"
	 width="69.697px" height="51.739px" viewBox="0 0 69.697 51.739" enable-background="new 0 0 69.697 51.739" xml:space="preserve">
<g>
	<g>
		<path fill="#FFFFFF" d="M34.849,39.549c-0.257,0-0.514-0.044-0.762-0.133c-7.839-2.822-16.532-2.822-24.372,0
			c-0.69,0.247-1.456,0.146-2.056-0.276c-0.599-0.422-0.956-1.107-0.956-1.841v-32.8c0-0.949,0.595-1.795,1.488-2.117
			c8.822-3.176,18.602-3.176,27.42,0c0.893,0.322,1.488,1.168,1.488,2.117v32.8c0,0.733-0.357,1.419-0.956,1.841
			C35.758,39.409,35.306,39.549,34.849,39.549z M11.203,6.116v28.111c6.964-1.911,14.433-1.91,21.396,0V6.116
			C25.67,3.955,18.132,3.955,11.203,6.116z"/>
		<path fill="#FFFFFF" d="M34.849,39.549c-0.457,0-0.91-0.14-1.294-0.409c-0.599-0.422-0.956-1.107-0.956-1.841v-32.8
			c0-0.949,0.595-1.795,1.488-2.117c8.819-3.176,18.599-3.176,27.42,0c0.893,0.322,1.487,1.168,1.487,2.117v32.8
			c0,0.733-0.356,1.419-0.955,1.841c-0.602,0.422-1.369,0.523-2.057,0.276c-7.84-2.822-16.532-2.822-24.371,0
			C35.363,39.505,35.105,39.549,34.849,39.549z M47.796,32.79c3.631,0,7.217,0.482,10.697,1.438V6.116
			c-6.93-2.162-14.467-2.162-21.395,0v28.111C40.58,33.272,44.166,32.79,47.796,32.79z"/>
	</g>
	<path fill="#FFFFFF" d="M34.849,51.739c-2.454,0-4.705-1.271-6.006-3.283H2.25c-1.243,0-2.25-1.008-2.25-2.25V8.917
		c0-1.242,1.007-2.25,2.25-2.25S4.5,7.675,4.5,8.917v35.039h25.725c0.952,0,1.801,0.6,2.12,1.496
		c0.38,1.068,1.386,1.787,2.503,1.787s2.124-0.719,2.503-1.787c0.319-0.896,1.168-1.496,2.12-1.496h25.725V8.917
		c0-1.242,1.008-2.25,2.25-2.25c1.243,0,2.25,1.008,2.25,2.25v37.289c0,1.242-1.007,2.25-2.25,2.25H40.855
		C39.554,50.469,37.303,51.739,34.849,51.739z"/>
</g>
</svg>
