<?xml version="1.0" encoding="utf-8"?>
<!-- Generator: Adobe Illustrator 16.0.0, SVG Export Plug-In . SVG Version: 6.00 Build 0)  -->
<!DOCTYPE svg PUBLIC "-//W3C//DTD SVG 1.1//EN" "http://www.w3.org/Graphics/SVG/1.1/DTD/svg11.dtd">
<svg version="1.1" id="Layer_1" xmlns="http://www.w3.org/2000/svg" xmlns:xlink="http://www.w3.org/1999/xlink" x="0px" y="0px"
	 width="69.697px" height="66.5px" viewBox="0 0 69.697 66.5" enable-background="new 0 0 69.697 66.5" xml:space="preserve">
<g>
	<g>
		<path fill="#FFFFFF" d="M46.708,19.48H22.989c-1.243,0-2.25-1.008-2.25-2.25V2.25c0-1.242,1.007-2.25,2.25-2.25h23.719
			c1.242,0,2.25,1.008,2.25,2.25v14.98C48.958,18.473,47.951,19.48,46.708,19.48z M25.239,14.98h19.219V4.5H25.239V14.98z"/>
		<g>
			<path fill="#FFFFFF" d="M15.151,66.5H2.25C1.007,66.5,0,65.492,0,64.25S1.007,62,2.25,62h10.651v-8.4H4.5v4.201
				c0,1.242-1.007,2.25-2.25,2.25S0,59.043,0,57.801V51.35c0-1.242,1.007-2.25,2.25-2.25h12.901c1.243,0,2.25,1.008,2.25,2.25v12.9
				C17.401,65.492,16.394,66.5,15.151,66.5z"/>
			<path fill="#FFFFFF" d="M41.299,66.5h-12.9c-1.243,0-2.25-1.008-2.25-2.25S27.156,62,28.398,62h10.65v-8.4h-8.4v4.201
				c0,1.242-1.007,2.25-2.25,2.25s-2.25-1.008-2.25-2.25V51.35c0-1.242,1.007-2.25,2.25-2.25h12.9c1.242,0,2.25,1.008,2.25,2.25
				v12.9C43.548,65.492,42.541,66.5,41.299,66.5z"/>
			<path fill="#FFFFFF" d="M67.447,66.5h-12.9c-1.242,0-2.25-1.008-2.25-2.25S53.304,62,54.546,62h10.65v-8.4h-8.4v4.201
				c0,1.242-1.008,2.25-2.25,2.25s-2.25-1.008-2.25-2.25V51.35c0-1.242,1.008-2.25,2.25-2.25h12.9c1.242,0,2.25,1.008,2.25,2.25
				v12.9C69.697,65.492,68.689,66.5,67.447,66.5z"/>
		</g>
	</g>
	<path fill="#FFFFFF" d="M61.183,44.945c-1.242,0-2.25-1.008-2.25-2.25v-6.418H10.766v6.418c0,1.242-1.007,2.25-2.25,2.25
		s-2.25-1.008-2.25-2.25v-8.668c0-1.242,1.007-2.25,2.25-2.25h52.667c1.242,0,2.25,1.008,2.25,2.25v8.668
		C63.433,43.938,62.425,44.945,61.183,44.945z"/>
	<path fill="#FFFFFF" d="M34.849,44.945c-1.243,0-2.25-1.008-2.25-2.25v-17c0-1.242,1.007-2.25,2.25-2.25
		c1.242,0,2.25,1.008,2.25,2.25v17C37.099,43.938,36.091,44.945,34.849,44.945z"/>
</g>
</svg>
