<?xml version="1.0" encoding="utf-8"?>
<!-- Generator: Adobe Illustrator 16.0.0, SVG Export Plug-In . SVG Version: 6.00 Build 0)  -->
<!DOCTYPE svg PUBLIC "-//W3C//DTD SVG 1.1//EN" "http://www.w3.org/Graphics/SVG/1.1/DTD/svg11.dtd">
<svg version="1.1" id="Layer_1" xmlns="http://www.w3.org/2000/svg" xmlns:xlink="http://www.w3.org/1999/xlink" x="0px" y="0px"
	 width="69.69px" height="68.805px" viewBox="0 0 69.69 68.805" enable-background="new 0 0 69.69 68.805" xml:space="preserve">
<g>
	<g>
		<g>
			<path fill="#FFFFFF" d="M38.445,52.718h-7.661c-1.242,0-2.25-1.008-2.25-2.25s1.008-2.25,2.25-2.25h7.661
				c0.415-0.013,1.771-0.053,1.771-1.771c0-1.541-1.11-1.771-1.771-1.771h-9.192c-3.663,0-5.286,2.313-5.301,2.337
				c-0.085,0.128-0.182,0.247-0.29,0.355l-4.692,4.691c-0.422,0.422-0.994,0.659-1.591,0.659h-4.021c-1.242,0-2.25-1.008-2.25-2.25
				s1.008-2.25,2.25-2.25h3.09l3.913-3.912c0.697-0.916,3.528-4.131,8.893-4.131h9.192c2.521,0,6.271,1.67,6.271,6.271
				S40.966,52.718,38.445,52.718z"/>
			<path fill="#FFFFFF" d="M30.977,66.507H13.357c-1.242,0-2.25-1.008-2.25-2.25s1.008-2.25,2.25-2.25h17.392
				c13.446-2.769,21.867-8.369,21.95-8.426c0.031-0.021,0.063-0.041,0.096-0.061l12.065-7.277c0.031-0.019,0.063-0.037,0.096-0.055
				c0.471-0.254,0.119-1.164,0.023-1.389c-0.539-0.912-1.168-1.447-1.921-1.633c-1.341-0.338-2.964,0.438-3.476,0.764
				c-0.069,0.044-0.153,0.093-0.227,0.129l-12.448,6.129c-0.31,0.152-0.649,0.231-0.994,0.231H42.85c-1.242,0-2.25-1.008-2.25-2.25
				s1.008-2.25,2.25-2.25h2.541l11.873-5.846c0.718-0.439,3.642-2.055,6.829-1.287c1.393,0.335,3.364,1.276,4.841,3.861
				c0.021,0.036,0.041,0.072,0.06,0.11c1.002,2.005,1.329,5.608-1.85,7.363l-11.98,7.226c-0.829,0.55-9.699,6.268-23.739,9.114
				C31.276,66.492,31.127,66.507,30.977,66.507z"/>
			<path fill="#FFFFFF" d="M12.975,68.805H2.25c-1.242,0-2.25-1.008-2.25-2.25V48.17c0-1.242,1.008-2.25,2.25-2.25h10.725
				c1.242,0,2.25,1.008,2.25,2.25v18.385C15.225,67.797,14.217,68.805,12.975,68.805z M4.5,64.305h6.225V50.42H4.5V64.305z"/>
			<path fill="#FFFFFF" d="M49.142,48.068c-0.38,0-0.766-0.096-1.119-0.299c-1.077-0.619-1.449-1.994-0.83-3.072l5.107-8.892
				c0.361-0.804,1.93-3.896,5.108-4.905c1.436-0.457,3.735-0.63,6.536,1.145c1.05,0.664,1.361,2.055,0.696,3.104
				c-0.664,1.05-2.054,1.362-3.104,0.696c-1.604-1.016-2.468-0.75-2.751-0.661c-1.254,0.389-2.155,1.939-2.396,2.504
				c-0.035,0.081-0.08,0.175-0.124,0.251l-5.17,9C50.679,47.663,49.921,48.068,49.142,48.068z"/>
		</g>
	</g>
	<path fill="#FFFFFF" d="M39.479,34.5c-4.549,0-8.25-3.701-8.25-8.25S34.93,18,39.479,18s8.25,3.701,8.25,8.25
		S44.027,34.5,39.479,34.5z M39.479,22.5c-2.067,0-3.75,1.683-3.75,3.75S37.411,30,39.479,30s3.75-1.683,3.75-3.75
		S41.546,22.5,39.479,22.5z"/>
	<path fill="#FFFFFF" d="M22.979,16.5c-4.549,0-8.25-3.701-8.25-8.25S18.43,0,22.979,0s8.25,3.701,8.25,8.25
		S27.527,16.5,22.979,16.5z M22.979,4.5c-2.067,0-3.75,1.683-3.75,3.75S20.911,12,22.979,12s3.75-1.683,3.75-3.75
		S25.046,4.5,22.979,4.5z"/>
</g>
</svg>
