<?xml version="1.0" encoding="utf-8"?>
<!-- Generator: Adobe Illustrator 16.0.0, SVG Export Plug-In . SVG Version: 6.00 Build 0)  -->
<!DOCTYPE svg PUBLIC "-//W3C//DTD SVG 1.1//EN" "http://www.w3.org/Graphics/SVG/1.1/DTD/svg11.dtd">
<svg version="1.1" id="Layer_1" xmlns="http://www.w3.org/2000/svg" xmlns:xlink="http://www.w3.org/1999/xlink" x="0px" y="0px"
	 width="66.802px" height="69.697px" viewBox="0 0 66.802 69.697" enable-background="new 0 0 66.802 69.697" xml:space="preserve">
<g>
	<g>
		<path fill="#FFFFFF" d="M36.318,56.935H11.171c-1.242,0-2.25-1.008-2.25-2.25s1.008-2.25,2.25-2.25h25.147
			c1.242,0,2.25,1.008,2.25,2.25S37.561,56.935,36.318,56.935z"/>
		<path fill="#FFFFFF" d="M11.883,66.19h-2.14C4.371,66.19,0,61.819,0,56.446V9.745C0,4.372,4.371,0,9.743,0H53.99
			c1.242,0,2.25,1.008,2.25,2.25v37.662c0,1.242-1.008,2.25-2.25,2.25s-2.25-1.008-2.25-2.25V4.5H9.743
			C6.853,4.5,4.5,6.853,4.5,9.745v46.701c0,2.892,2.353,5.244,5.243,5.244h2.14c1.242,0,2.25,1.008,2.25,2.25
			S13.125,66.19,11.883,66.19z"/>
		<path fill="#FFFFFF" d="M34.318,66.19H19.551c-1.242,0-2.25-1.008-2.25-2.25s1.008-2.25,2.25-2.25h14.768
			c1.242,0,2.25,1.008,2.25,2.25S35.561,66.19,34.318,66.19z"/>
	</g>
	<g>
		<path fill="#FFFFFF" d="M47.468,64.441L47.468,64.441c-3.764-0.001-7.299-1.466-9.958-4.125
			c-5.49-5.489-5.491-14.423-0.003-19.914c2.662-2.659,6.197-4.123,9.958-4.123c3.76,0,7.297,1.464,9.957,4.124
			c2.658,2.659,4.123,6.195,4.123,9.956c0.002,3.763-1.463,7.299-4.123,9.958C54.765,62.977,51.228,64.441,47.468,64.441z
			 M47.466,40.779c-2.561,0-4.967,0.996-6.775,2.806c-3.735,3.735-3.734,9.814,0.002,13.55c1.809,1.81,4.215,2.807,6.775,2.807l0,0
			c2.559,0,4.965-0.997,6.773-2.806c1.811-1.81,2.807-4.216,2.805-6.775c0-2.56-0.996-4.966-2.805-6.775
			C52.431,41.775,50.025,40.779,47.466,40.779z"/>
		<path fill="#FFFFFF" d="M64.552,69.697c-0.576,0-1.15-0.22-1.59-0.659l-8.234-8.235c-0.879-0.879-0.879-2.304,0-3.182
			c0.879-0.879,2.303-0.879,3.182,0l8.234,8.235c0.879,0.879,0.879,2.304,0,3.182C65.705,69.478,65.128,69.697,64.552,69.697z"/>
	</g>
</g>
</svg>
