<?xml version="1.0" encoding="utf-8"?>
<!-- Generator: Adobe Illustrator 16.0.0, SVG Export Plug-In . SVG Version: 6.00 Build 0)  -->
<!DOCTYPE svg PUBLIC "-//W3C//DTD SVG 1.1//EN" "http://www.w3.org/Graphics/SVG/1.1/DTD/svg11.dtd">
<svg version="1.1" id="Layer_1" xmlns="http://www.w3.org/2000/svg" xmlns:xlink="http://www.w3.org/1999/xlink" x="0px" y="0px"
	 width="69.697px" height="69.7px" viewBox="0 0 69.697 69.7" enable-background="new 0 0 69.697 69.7" xml:space="preserve">
<g>
	<g>
		<g>
			<path fill="#FFFFFF" d="M31.429,56.176c-9.874,0-17.907-8.032-17.907-17.906c0-9.875,8.033-17.908,17.907-17.908
				c1.243,0,2.25,1.008,2.25,2.25s-1.007,2.25-2.25,2.25c-7.393,0-13.407,6.015-13.407,13.408c0,7.393,6.015,13.406,13.407,13.406
				s13.406-6.014,13.406-13.406c0-1.242,1.008-2.25,2.25-2.25c1.243,0,2.25,1.008,2.25,2.25
				C49.335,48.144,41.302,56.176,31.429,56.176z"/>
			<path fill="#FFFFFF" d="M31.429,69.7C14.099,69.7,0,55.6,0,38.27C0,20.939,14.099,6.84,31.429,6.84c1.243,0,2.25,1.008,2.25,2.25
				s-1.007,2.25-2.25,2.25C16.581,11.34,4.5,23.421,4.5,38.27c0,14.849,12.081,26.93,26.929,26.93s26.93-12.081,26.93-26.93
				c0-1.242,1.007-2.25,2.25-2.25c1.242,0,2.25,1.008,2.25,2.25C62.859,55.6,48.759,69.7,31.429,69.7z"/>
		</g>
		<path fill="#FFFFFF" d="M31.162,40.786c-0.576,0-1.152-0.22-1.591-0.659c-0.879-0.879-0.879-2.303,0-3.182l26.11-26.109
			c0.879-0.879,2.305-0.879,3.182,0c0.879,0.879,0.879,2.303,0,3.182l-26.11,26.109C32.314,40.566,31.738,40.786,31.162,40.786z"/>
	</g>
	<path fill="#FFFFFF" d="M54.943,32.001c-0.322,0-0.646-0.069-0.951-0.211l-10.226-4.769c-0.479-0.224-0.864-0.608-1.089-1.088
		l-4.769-10.227c-0.399-0.857-0.221-1.873,0.448-2.542L50.861,0.66c0.519-0.52,1.258-0.755,1.981-0.625
		c0.724,0.127,1.339,0.6,1.648,1.265l4.424,9.484l9.483,4.425c0.666,0.311,1.137,0.926,1.265,1.648s-0.106,1.463-0.625,1.981
		L56.534,31.342C56.103,31.773,55.527,32.001,54.943,32.001z M46.41,23.289l8.057,3.757l9.117-9.117l-7.313-3.412
		c-0.479-0.224-0.864-0.608-1.088-1.088l-3.411-7.314l-9.118,9.118L46.41,23.289z"/>
</g>
</svg>
