<?xml version="1.0" encoding="utf-8"?>
<!-- Generator: Adobe Illustrator 16.0.0, SVG Export Plug-In . SVG Version: 6.00 Build 0)  -->
<!DOCTYPE svg PUBLIC "-//W3C//DTD SVG 1.1//EN" "http://www.w3.org/Graphics/SVG/1.1/DTD/svg11.dtd">
<svg version="1.1" id="Layer_1" xmlns="http://www.w3.org/2000/svg" xmlns:xlink="http://www.w3.org/1999/xlink" x="0px" y="0px"
	 width="65.774px" height="69.697px" viewBox="0 0 65.774 69.697" enable-background="new 0 0 65.774 69.697" xml:space="preserve">
<g>
	<g>
		<path fill="#FFFFFF" d="M63.524,69.697H41.157c-1.242,0-2.25-1.007-2.25-2.25V40.171l-17.203-9.934L4.5,40.171v27.276
			c0,1.243-1.007,2.25-2.25,2.25S0,68.69,0,67.447V38.872c0-0.805,0.429-1.547,1.125-1.949L20.579,25.69
			c0.696-0.401,1.554-0.401,2.25,0l19.453,11.232c0.697,0.402,1.125,1.145,1.125,1.949v26.325h17.867V4.5H15.357v15.858
			c0,1.242-1.007,2.25-2.25,2.25s-2.25-1.008-2.25-2.25V2.25c0-1.243,1.007-2.25,2.25-2.25h50.417c1.242,0,2.25,1.007,2.25,2.25
			v65.197C65.774,68.69,64.766,69.697,63.524,69.697z"/>
		<path fill="#FFFFFF" d="M28.372,69.697c-1.243,0-2.25-1.007-2.25-2.25v-8.174c0-2.437-1.982-4.418-4.418-4.418
			c-2.437,0-4.418,1.981-4.418,4.418v8.174c0,1.243-1.007,2.25-2.25,2.25s-2.25-1.007-2.25-2.25v-8.174
			c0-4.917,4.001-8.918,8.918-8.918s8.918,4.001,8.918,8.918v8.174C30.622,68.69,29.615,69.697,28.372,69.697z"/>
	</g>
	<g>
		<path fill="#FFFFFF" d="M30.845,16.425h-5.103c-1.243,0-2.25-1.007-2.25-2.25c0-1.242,1.007-2.25,2.25-2.25h5.103
			c1.243,0,2.25,1.008,2.25,2.25C33.095,15.418,32.087,16.425,30.845,16.425z"/>
		<path fill="#FFFFFF" d="M50.889,29.917h-5.102c-1.242,0-2.25-1.008-2.25-2.25c0-1.243,1.008-2.25,2.25-2.25h5.102
			c1.242,0,2.25,1.007,2.25,2.25C53.139,28.909,52.131,29.917,50.889,29.917z"/>
		<path fill="#FFFFFF" d="M51.133,43.408h-2.217c-1.242,0-2.25-1.007-2.25-2.25s1.008-2.25,2.25-2.25h2.217
			c1.242,0,2.25,1.007,2.25,2.25S52.375,43.408,51.133,43.408z"/>
		<path fill="#FFFFFF" d="M51.133,56.899h-2.217c-1.242,0-2.25-1.007-2.25-2.25c0-1.242,1.008-2.25,2.25-2.25h2.217
			c1.242,0,2.25,1.008,2.25,2.25C53.383,55.893,52.375,56.899,51.133,56.899z"/>
		<path fill="#FFFFFF" d="M50.889,16.425h-5.102c-1.242,0-2.25-1.007-2.25-2.25c0-1.242,1.008-2.25,2.25-2.25h5.102
			c1.242,0,2.25,1.008,2.25,2.25C53.139,15.418,52.131,16.425,50.889,16.425z"/>
	</g>
</g>
</svg>
