<?xml version="1.0" encoding="utf-8"?>
<!-- Generator: Adobe Illustrator 16.0.0, SVG Export Plug-In . SVG Version: 6.00 Build 0)  -->
<!DOCTYPE svg PUBLIC "-//W3C//DTD SVG 1.1//EN" "http://www.w3.org/Graphics/SVG/1.1/DTD/svg11.dtd">
<svg version="1.1" id="Layer_1" xmlns="http://www.w3.org/2000/svg" xmlns:xlink="http://www.w3.org/1999/xlink" x="0px" y="0px"
	 width="541.853px" height="495.618px" viewBox="0 0 541.853 495.618" enable-background="new 0 0 541.853 495.618"
	 xml:space="preserve">
<g>
	<polygon fill="#E8EFF9" points="270.927,205.194 18,351.146 270.927,496.965 523.853,351.146 	"/>
	<g>
		<polygon fill="#FFFFFF" points="426.923,375.354 436.051,369.92 270.326,276.57 261.197,282.006 		"/>
	</g>
	<g>
		<g>
			<g enable-background="new    ">
				<path fill="#DFEBFC" d="M422.458,99.083L258.449,6.702v266.016l164.009,92.384V99.083z"/>
				<g>
					<polygon fill="#FFFFFF" points="422.458,99.083 431.585,93.649 265.861,0.298 256.732,5.734 					"/>
				</g>
				<g>
					<polygon fill="#B6CBEA" points="422.79,364.805 431.918,359.369 431.585,93.649 422.458,99.083 					"/>
				</g>
			</g>
		</g>
		<polygon fill="#F2F2F2" points="417.539,85.797 418.654,86.426 419.403,86.85 410.24,92.261 408.375,91.213 		"/>
		<g>
			<path fill="#666666" d="M406.089,95.811c0.631,0.553,1.196,1.256,1.632,2.031C406.984,97.458,406.414,96.769,406.089,95.811z"/>
			<path fill="#666666" d="M402.689,94.94c-0.011,0.255-0.027,0.516-0.022,0.768c0.05,3.937,1.944,6.279,4.706,6.511
				c0.357,0.031,0.733,0.027,1.118-0.017c-0.449,1.313-1.727,1.732-3.257,0.874c-1.922-1.085-3.493-3.738-3.509-5.933
				C401.715,96.07,402.087,95.312,402.689,94.94z"/>
		</g>
		<path fill="#434483" d="M402.689,94.94c0.261-5.753,4.191-12.498,9.082-15.39c5.107-3.022,9.309-0.687,9.391,5.215
			c0.009,0.93-0.09,1.889-0.271,2.861l-2.88-1.625c-0.322-3.46-2.986-4.75-6.19-2.854c-3.387,2.003-6.094,6.801-6.039,10.718
			c0.012,0.737,0.119,1.384,0.309,1.945c0.324,0.958,0.895,1.647,1.632,2.031c0.582,1.032,0.945,2.174,0.954,3.215
			c0.003,0.443-0.071,0.817-0.185,1.145c-0.385,0.044-0.761,0.047-1.118,0.017c-2.762-0.232-4.656-2.575-4.706-6.511
			C402.662,95.456,402.678,95.195,402.689,94.94z"/>
		<polygon fill="#F2F2F2" points="397.245,74.305 398.36,74.934 399.11,75.356 389.947,80.769 388.083,79.718 		"/>
		<g>
			<path fill="#666666" d="M385.287,84.09c0.633,0.554,1.195,1.259,1.632,2.032C386.18,85.739,385.611,85.05,385.287,84.09z"/>
			<path fill="#666666" d="M381.884,83.221c-0.009,0.255-0.025,0.514-0.021,0.766c0.055,3.938,1.943,6.281,4.707,6.513
				c0.357,0.027,0.732,0.024,1.118-0.017c-0.449,1.311-1.727,1.734-3.259,0.87c-1.92-1.083-3.49-3.737-3.508-5.93
				C380.915,84.348,381.285,83.591,381.884,83.221z"/>
		</g>
		<path fill="#434483" d="M381.884,83.221c0.263-5.753,4.193-12.5,9.085-15.393c5.104-3.021,9.31-0.682,9.388,5.218
			c0.013,0.928-0.088,1.887-0.27,2.859l-2.88-1.625c-0.322-3.461-2.986-4.748-6.19-2.854c-3.386,2.004-6.094,6.803-6.039,10.72
			c0.01,0.735,0.119,1.384,0.309,1.943c0.324,0.96,0.894,1.649,1.632,2.032c0.58,1.033,0.944,2.173,0.954,3.214
			c0.002,0.445-0.071,0.816-0.185,1.147c-0.386,0.041-0.761,0.044-1.118,0.017c-2.764-0.232-4.652-2.575-4.707-6.513
			C381.859,83.735,381.875,83.476,381.884,83.221z"/>
		<polygon fill="#F2F2F2" points="381.237,65.286 382.354,65.917 383.102,66.338 373.94,71.752 372.077,70.702 		"/>
		<g>
			<path fill="#666666" d="M369.281,75.076c0.631,0.552,1.193,1.256,1.629,2.029C370.173,76.721,369.606,76.033,369.281,75.076z"/>
			<path fill="#666666" d="M365.877,74.206c-0.01,0.253-0.024,0.513-0.021,0.765c0.051,3.937,1.943,6.28,4.706,6.513
				c0.356,0.029,0.733,0.024,1.117-0.019c-0.45,1.315-1.728,1.736-3.258,0.873c-1.92-1.084-3.49-3.737-3.508-5.93
				C364.907,75.332,365.277,74.576,365.877,74.206z"/>
		</g>
		<path fill="#434483" d="M365.877,74.206c0.263-5.754,4.193-12.5,9.084-15.394c5.105-3.021,9.308-0.684,9.388,5.22
			c0.013,0.93-0.087,1.886-0.269,2.857l-2.882-1.623c-0.319-3.461-2.986-4.75-6.188-2.855c-3.387,2.004-6.092,6.803-6.041,10.719
			c0.011,0.737,0.119,1.384,0.312,1.946c0.325,0.957,0.893,1.645,1.629,2.029c0.581,1.034,0.947,2.175,0.957,3.216
			c0.002,0.443-0.071,0.815-0.187,1.143c-0.384,0.043-0.761,0.048-1.117,0.019c-2.763-0.233-4.655-2.577-4.706-6.513
			C365.853,74.719,365.868,74.459,365.877,74.206z"/>
		<polygon fill="#F2F2F2" points="365.232,56.271 366.347,56.901 367.099,57.324 357.933,62.735 356.067,61.687 		"/>
		<g>
			<path fill="#666666" d="M353.272,66.058c0.633,0.554,1.196,1.256,1.63,2.033C354.166,67.706,353.596,67.017,353.272,66.058z"/>
			<path fill="#666666" d="M349.872,65.188c-0.011,0.255-0.025,0.514-0.022,0.768c0.052,3.937,1.942,6.28,4.708,6.511
				c0.357,0.031,0.733,0.027,1.117-0.017c-0.449,1.313-1.728,1.732-3.259,0.874c-1.92-1.085-3.492-3.74-3.507-5.935
				C348.9,66.315,349.27,65.56,349.872,65.188z"/>
		</g>
		<path fill="#434483" d="M349.872,65.188c0.263-5.754,4.191-12.498,9.081-15.391c5.106-3.021,9.312-0.686,9.39,5.217
			c0.013,0.93-0.09,1.887-0.269,2.859l-2.881-1.623c-0.322-3.461-2.984-4.75-6.189-2.855c-3.389,2.005-6.093,6.803-6.04,10.719
			c0.01,0.735,0.119,1.384,0.309,1.944c0.324,0.959,0.894,1.648,1.63,2.033c0.582,1.032,0.95,2.172,0.956,3.214
			c0.003,0.443-0.071,0.815-0.184,1.145c-0.384,0.044-0.76,0.047-1.117,0.017c-2.766-0.231-4.656-2.575-4.708-6.511
			C349.846,65.702,349.861,65.443,349.872,65.188z"/>
		<polygon fill="#F2F2F2" points="349.224,47.255 350.34,47.885 351.089,48.307 341.925,53.719 340.06,52.67 		"/>
		<g>
			<path fill="#666666" d="M337.265,57.041c0.634,0.553,1.194,1.26,1.63,2.033C338.159,58.691,337.59,58,337.265,57.041z"/>
			<path fill="#666666" d="M333.866,56.173c-0.011,0.253-0.027,0.514-0.024,0.766c0.054,3.937,1.944,6.279,4.707,6.513
				c0.359,0.027,0.735,0.023,1.119-0.019c-0.45,1.313-1.727,1.734-3.258,0.872c-1.922-1.084-3.49-3.738-3.51-5.931
				C332.894,57.3,333.263,56.542,333.866,56.173z"/>
		</g>
		<path fill="#434483" d="M333.866,56.173c0.26-5.754,4.191-12.501,9.083-15.393c5.104-3.021,9.308-0.683,9.388,5.217
			c0.013,0.93-0.09,1.888-0.27,2.859l-2.881-1.623c-0.321-3.461-2.986-4.748-6.19-2.854c-3.386,2.002-6.092,6.8-6.041,10.718
			c0.012,0.736,0.12,1.382,0.311,1.943c0.325,0.959,0.894,1.65,1.63,2.033c0.583,1.032,0.948,2.173,0.957,3.214
			c0.004,0.442-0.073,0.816-0.185,1.146c-0.384,0.042-0.76,0.046-1.119,0.019c-2.763-0.234-4.653-2.577-4.707-6.513
			C333.838,56.688,333.855,56.427,333.866,56.173z"/>
		<polygon fill="#F2F2F2" points="333.215,38.239 334.333,38.87 335.083,39.29 325.919,44.703 324.054,43.654 		"/>
		<g>
			<path fill="#666666" d="M321.259,48.025c0.631,0.554,1.194,1.257,1.63,2.03C322.153,49.673,321.583,48.985,321.259,48.025z"/>
			<path fill="#666666" d="M317.857,47.155c-0.009,0.255-0.025,0.516-0.02,0.768c0.051,3.938,1.943,6.279,4.704,6.511
				c0.357,0.029,0.733,0.026,1.117-0.016c-0.448,1.313-1.727,1.734-3.257,0.872c-1.92-1.085-3.491-3.738-3.508-5.932
				C316.885,48.284,317.255,47.527,317.857,47.155z"/>
		</g>
		<path fill="#434483" d="M317.857,47.155c0.263-5.752,4.191-12.498,9.084-15.391c5.105-3.023,9.309-0.684,9.389,5.219
			c0.011,0.928-0.09,1.887-0.27,2.859l-2.882-1.626c-0.32-3.46-2.986-4.748-6.19-2.852c-3.387,2.004-6.092,6.803-6.038,10.719
			c0.011,0.737,0.117,1.384,0.31,1.943c0.324,0.96,0.894,1.647,1.63,2.03c0.582,1.035,0.945,2.177,0.956,3.218
			c0.003,0.442-0.073,0.813-0.187,1.144c-0.384,0.042-0.76,0.045-1.117,0.016c-2.761-0.232-4.653-2.574-4.704-6.511
			C317.832,47.671,317.848,47.41,317.857,47.155z"/>
		<polygon fill="#F2F2F2" points="317.211,29.222 318.327,29.851 319.077,30.276 309.913,35.688 308.047,34.636 		"/>
		<g>
			<path fill="#666666" d="M305.252,39.01c0.632,0.554,1.194,1.257,1.63,2.032C306.144,40.657,305.577,39.969,305.252,39.01z"/>
			<path fill="#666666" d="M301.85,38.138c-0.011,0.255-0.024,0.514-0.021,0.766c0.05,3.938,1.941,6.281,4.704,6.515
				c0.361,0.027,0.737,0.023,1.12-0.017c-0.451,1.312-1.729,1.733-3.261,0.87c-1.919-1.084-3.49-3.737-3.507-5.931
				C300.879,39.266,301.248,38.508,301.85,38.138z"/>
		</g>
		<path fill="#434483" d="M301.85,38.138c0.261-5.752,4.193-12.499,9.083-15.391c5.106-3.021,9.31-0.684,9.387,5.218
			c0.014,0.929-0.087,1.885-0.266,2.859l-2.883-1.625c-0.322-3.461-2.986-4.75-6.188-2.855c-3.388,2.006-6.094,6.805-6.039,10.722
			c0.01,0.734,0.116,1.382,0.309,1.943c0.324,0.959,0.892,1.647,1.63,2.032c0.58,1.031,0.947,2.172,0.953,3.214
			c0.005,0.443-0.069,0.815-0.182,1.146c-0.383,0.04-0.759,0.044-1.12,0.017c-2.763-0.233-4.654-2.576-4.704-6.515
			C301.826,38.652,301.839,38.394,301.85,38.138z"/>
		<polygon fill="#F2F2F2" points="301.205,20.207 302.318,20.836 303.07,21.258 293.905,26.671 292.04,25.621 		"/>
		<g>
			<path fill="#666666" d="M289.243,29.993c0.633,0.553,1.196,1.256,1.632,2.031C290.138,31.64,289.569,30.951,289.243,29.993z"/>
			<path fill="#666666" d="M285.844,29.122c-0.011,0.257-0.027,0.516-0.023,0.768c0.053,3.937,1.943,6.279,4.708,6.511
				c0.357,0.03,0.732,0.027,1.117-0.017c-0.45,1.313-1.727,1.734-3.258,0.874c-1.922-1.085-3.492-3.74-3.508-5.934
				C284.873,30.252,285.243,29.494,285.844,29.122z"/>
		</g>
		<path fill="#434483" d="M285.844,29.122c0.261-5.75,4.191-12.497,9.082-15.39c5.107-3.022,9.309-0.687,9.389,5.217
			c0.014,0.928-0.09,1.887-0.271,2.859l-2.881-1.624c-0.32-3.461-2.984-4.749-6.189-2.854c-3.387,2.003-6.092,6.801-6.039,10.718
			c0.011,0.737,0.12,1.384,0.308,1.945c0.326,0.958,0.896,1.646,1.632,2.031c0.581,1.032,0.948,2.174,0.957,3.215
			c0.001,0.443-0.072,0.817-0.186,1.145c-0.385,0.044-0.76,0.046-1.117,0.017c-2.765-0.232-4.655-2.575-4.708-6.511
			C285.817,29.638,285.833,29.379,285.844,29.122z"/>
		<polygon fill="#F2F2F2" points="285.195,11.191 286.311,11.819 287.06,12.241 277.898,17.653 276.033,16.604 		"/>
		<g>
			<path fill="#666666" d="M273.238,20.977c0.633,0.552,1.194,1.258,1.631,2.031C274.132,22.625,273.563,21.935,273.238,20.977z"/>
			<path fill="#666666" d="M269.836,20.107c-0.011,0.255-0.025,0.514-0.022,0.766c0.053,3.938,1.943,6.279,4.709,6.513
				c0.355,0.027,0.731,0.024,1.116-0.016c-0.449,1.313-1.728,1.732-3.259,0.87c-1.921-1.083-3.49-3.738-3.507-5.931
				C268.866,21.234,269.234,20.477,269.836,20.107z"/>
		</g>
		<path fill="#434483" d="M269.836,20.107c0.263-5.753,4.192-12.501,9.084-15.393c5.104-3.021,9.307-0.684,9.387,5.217
			c0.013,0.93-0.087,1.888-0.27,2.859l-2.879-1.623c-0.321-3.46-2.986-4.748-6.19-2.854c-3.386,2.004-6.092,6.803-6.039,10.719
			c0.01,0.736,0.117,1.384,0.309,1.945c0.325,0.958,0.895,1.648,1.631,2.031c0.58,1.032,0.945,2.173,0.956,3.213
			c0.002,0.444-0.073,0.816-0.186,1.148c-0.385,0.04-0.761,0.043-1.116,0.016c-2.766-0.233-4.656-2.574-4.709-6.513
			C269.811,20.621,269.826,20.362,269.836,20.107z"/>
	</g>
	<g>
		<polygon fill="#5867DD" points="289.615,98.512 289.715,111.264 376.184,159.972 376.087,147.217 		"/>
	</g>
	<g>
		<polygon fill="#FFFFFF" points="289.615,136.69 289.715,144.775 376.184,193.482 376.087,185.396 		"/>
	</g>
	<g>
		<polygon fill="#FFFFFF" points="289.615,162.712 289.715,170.797 376.184,219.504 376.087,211.418 		"/>
	</g>
	<g>
		<polygon fill="#FFFFFF" points="289.615,187.938 289.715,196.023 376.184,244.73 376.087,236.644 		"/>
	</g>
	<g>
		<polygon fill="#FFFFFF" points="289.615,213.715 289.715,221.8 376.184,270.508 376.087,262.421 		"/>
	</g>
	<g>
		<path fill="#E8EFF9" d="M205.478,288.312c5.517,3.13,4.167,9.034-3.001,13.119l-82.975,47.291
			c-7.167,4.085-17.545,4.866-23.063,1.736c-5.517-3.131-4.167-9.035,3.001-13.12l82.974-47.29
			C189.583,285.963,199.96,285.182,205.478,288.312z"/>
	</g>
	<g>
		<g>
			<g enable-background="new    ">
				<g>
					<path fill="#9EB6DF" d="M185.705,233.617c-0.041-13.549-4.825-23.086-12.541-27.572l10.841,6.302
						c7.719,4.486,12.504,14.022,12.541,27.571c0.079,27.286-19.103,60.523-42.849,74.232l-10.845-6.303
						C166.599,294.141,185.779,260.902,185.705,233.617z"/>
				</g>
				<g>
					<polygon fill="#FFFFFF" points="178.492,281.608 167.644,275.307 169.947,271.31 180.792,277.613 					"/>
				</g>
				<g>
					<polygon fill="#FFFFFF" points="170.142,276.853 159.298,270.551 167.644,275.307 178.492,281.608 					"/>
				</g>
				<g>
					<polygon fill="#9EB6DF" points="172.454,272.86 180.792,277.613 178.492,281.608 170.142,276.853 					"/>
				</g>
				<g>
					<polygon fill="#9EB6DF" points="172.454,272.86 161.611,266.559 169.947,271.31 180.792,277.613 					"/>
				</g>
				<g>
					<polygon fill="#9EB6DF" points="170.142,276.853 159.298,270.551 161.611,266.559 172.454,272.86 					"/>
				</g>
				<g>
					<polygon fill="#FFFFFF" points="152.036,307.953 141.193,301.65 144.461,299.762 155.309,306.064 					"/>
				</g>
				<g>
					<polygon fill="#FFFFFF" points="190.333,245.384 179.488,239.082 179.479,235.323 190.323,241.625 					"/>
				</g>
				<g>
					<polygon fill="#FFFFFF" points="155.309,306.064 144.461,299.762 144.423,286.251 155.269,292.552 					"/>
				</g>
				<g>
					<polygon fill="#FFFFFF" points="178.575,252.174 167.729,245.871 179.488,239.082 190.333,245.384 					"/>
				</g>
				<g>
					<polygon fill="#9EB6DF" points="152.036,307.953 141.193,301.65 141.152,288.14 152,294.441 					"/>
				</g>
				<g>
					<polygon fill="#9EB6DF" points="155.269,292.552 155.309,306.064 152.036,307.953 152,294.441 					"/>
				</g>
				<g>
					<polygon fill="#9EB6DF" points="152,294.441 141.152,288.14 144.423,286.251 155.269,292.552 					"/>
				</g>
				<g>
					<polygon fill="#9EB6DF" points="178.575,252.174 167.729,245.871 167.72,242.111 178.562,248.416 					"/>
				</g>
				<g>
					<polygon fill="#9EB6DF" points="190.323,241.625 190.333,245.384 178.575,252.174 178.562,248.416 					"/>
				</g>
				<g>
					<polygon fill="#9EB6DF" points="178.562,248.416 167.72,242.111 179.479,235.323 190.323,241.625 					"/>
				</g>
				<g>
					<path fill="#FFFFFF" d="M142.722,261.915c2.151-1.241,3.895-4.262,3.886-6.731l10.846,6.302
						c0.007,2.471-1.734,5.49-3.887,6.732C149.952,266.117,146.338,264.016,142.722,261.915z"/>
				</g>
				<g>
					<polygon fill="#FFFFFF" points="128.79,310.304 117.947,304.001 126.228,289.653 137.076,295.956 					"/>
				</g>
				<g>
					<polygon fill="#FFFFFF" points="172.344,234.853 161.502,228.55 169.785,214.2 180.63,220.502 					"/>
				</g>
				<g>
					<path fill="#9EB6DF" d="M112.267,310.842c7.813,4.543,18.638,3.904,30.585-2.993c3.194,1.856,6.385,3.714,9.58,5.566
						l1.265,0.736c-11.946,6.898-22.771,7.536-30.587,2.993C119.857,315.255,115.518,312.733,112.267,310.842z"/>
				</g>
				<g>
					<path fill="#B6CBEA" d="M177.763,198.117l10.845,6.301c2.623,1.523,4.951,3.554,6.936,6.057l-10.848-6.302
						C182.716,201.67,180.384,199.64,177.763,198.117z"/>
				</g>
				<g>
					<path fill="#FFFFFF" d="M146.608,255.184c-0.004-1.016-0.319-1.761-0.82-2.228l10.844,6.303
						c0.505,0.466,0.82,1.211,0.822,2.227C154.199,259.594,149.863,257.073,146.608,255.184z"/>
				</g>
				<g>
					<path fill="#FFFFFF" d="M139.958,262.186c0.705,0.412,1.685,0.354,2.764-0.271c3.616,2.101,7.229,4.202,10.845,6.303
						c-1.08,0.624-2.058,0.682-2.764,0.27C147.548,266.598,143.213,264.075,139.958,262.186z"/>
				</g>
				<g>
					<polygon fill="#FFFFFF" points="126.463,308.989 115.62,302.688 117.947,304.001 128.79,310.304 					"/>
				</g>
				<g>
					<polygon fill="#9EB6DF" points="134.749,294.631 123.904,288.328 126.228,289.653 137.076,295.956 					"/>
				</g>
				<g>
					<polygon fill="#9EB6DF" points="126.463,308.989 115.62,302.688 123.904,288.328 134.749,294.631 					"/>
				</g>
				<g>
					<polygon fill="#9EB6DF" points="134.749,294.631 137.076,295.956 128.79,310.304 126.463,308.989 					"/>
				</g>
				<g>
					<polygon fill="#FFFFFF" points="170.02,233.527 159.176,227.225 161.502,228.55 172.344,234.853 					"/>
				</g>
				<g>
					<polygon fill="#9EB6DF" points="170.02,233.527 159.176,227.225 167.471,212.881 178.314,219.183 					"/>
				</g>
				<g>
					<polygon fill="#9EB6DF" points="178.314,219.183 167.471,212.881 169.785,214.2 180.63,220.502 					"/>
				</g>
				<g>
					<polygon fill="#9EB6DF" points="178.314,219.183 180.63,220.502 172.344,234.853 170.02,233.527 					"/>
				</g>
				<g>
					<polygon fill="#F54970" points="153.541,259.265 142.699,252.962 142.875,252.884 153.719,259.187 					"/>
				</g>
				<g>
					<path fill="#F54970" d="M150.803,268.487l-10.845-6.302c-0.703-0.407-1.139-1.274-1.141-2.507
						c-0.005-2.47,1.729-5.474,3.881-6.717l10.842,6.303c-2.151,1.243-3.882,4.247-3.877,6.719
						C149.667,267.214,150.099,268.081,150.803,268.487z"/>
				</g>
				<g>
					<path fill="#5867DD" d="M165.901,217.938l3.03-0.315l-12.3,41.636c0.505,0.466,0.82,1.211,0.822,2.227
						c0.007,2.471-1.734,5.49-3.887,6.732c-2.15,1.242-3.896,0.236-3.903-2.234c-0.005-2.472,1.726-5.476,3.877-6.719l0.179-0.078
						L165.901,217.938z"/>
				</g>
				<g>
					<polygon fill="#F54970" points="165.901,217.938 155.058,211.635 158.087,211.321 168.931,217.623 					"/>
				</g>
				<g>
					<polygon fill="#F54970" points="153.719,259.187 142.875,252.884 155.058,211.635 165.901,217.938 					"/>
				</g>
				<g>
					<polygon fill="#FFFFFF" points="116.772,287.869 105.925,281.566 117.686,274.778 128.53,281.079 					"/>
				</g>
				<g>
					<polygon fill="#9EB6DF" points="116.759,284.108 105.916,277.806 117.676,271.017 128.518,277.318 					"/>
				</g>
				<g>
					<polygon fill="#FFFFFF" points="128.53,281.079 117.686,274.778 117.676,271.017 128.518,277.318 					"/>
				</g>
				<g>
					<polygon fill="#FFFFFF" points="151.824,236.93 140.979,230.629 144.252,228.74 155.095,235.042 					"/>
				</g>
				<g>
					<polygon fill="#FFFFFF" points="155.095,235.042 144.252,228.74 144.212,215.239 155.058,221.54 					"/>
				</g>
				<g>
					<polygon fill="#FFFFFF" points="134.631,256.638 123.784,250.336 126.097,246.344 136.942,252.646 					"/>
				</g>
				<g>
					<polygon fill="#9EB6DF" points="116.772,287.869 105.925,281.566 105.916,277.806 116.759,284.108 					"/>
				</g>
				<g>
					<polygon fill="#9EB6DF" points="128.518,277.318 128.53,281.079 116.772,287.869 116.759,284.108 					"/>
				</g>
				<g>
					<polygon fill="#9EB6DF" points="155.058,221.54 155.095,235.042 151.824,236.93 151.787,223.429 					"/>
				</g>
				<g>
					<polygon fill="#9EB6DF" points="151.787,223.429 140.943,217.127 144.212,215.239 155.058,221.54 					"/>
				</g>
				<g>
					<polygon fill="#9EB6DF" points="151.824,236.93 140.979,230.629 140.943,217.127 151.787,223.429 					"/>
				</g>
				<g>
					<path fill="#FFFFFF" d="M173.16,206.045l10.845,6.302c-7.816-4.543-18.642-3.904-30.586,2.994l-10.848-6.302
						C154.521,202.142,165.346,201.502,173.16,206.045z"/>
				</g>
				<g>
					<polygon fill="#FFFFFF" points="126.301,251.868 115.458,245.566 123.784,250.336 134.631,256.638 					"/>
				</g>
				<g>
					<polygon fill="#9EB6DF" points="126.301,251.868 115.458,245.566 117.76,241.582 128.604,247.883 					"/>
				</g>
				<g>
					<polygon fill="#9EB6DF" points="128.604,247.883 117.76,241.582 126.097,246.344 136.942,252.646 					"/>
				</g>
				<g>
					<polygon fill="#9EB6DF" points="128.604,247.883 136.942,252.646 134.631,256.638 126.301,251.868 					"/>
				</g>
				<g>
					<path fill="#FFFFFF" d="M123.11,317.146c-3.613-2.101-7.229-4.202-10.843-6.303c-7.721-4.487-12.509-14.027-12.545-27.585
						c-0.078-27.273,19.105-60.511,42.849-74.219l10.848,6.302c-23.746,13.709-42.928,46.946-42.853,74.219
						C110.604,303.119,115.392,312.659,123.11,317.146z"/>
				</g>
				<g>
					<path fill="#9EB6DF" d="M118.488,325.074l-10.847-6.302c-8.895-5.17-14.416-16.151-14.462-31.736
						c-0.028-10.993,2.666-22.84,7.354-34.271c3.781-9.214,8.857-18.157,14.844-26.167c6.068-8.117,13.069-15.273,20.613-20.779
						c2.143-1.565,4.33-3,6.551-4.279c2.218-1.282,4.399-2.372,6.543-3.282c7.549-3.207,14.572-4.147,20.667-3.053
						c2.894,0.521,5.578,1.498,8.012,2.913l10.845,6.301c-2.433-1.412-5.117-2.392-8.011-2.912
						c-6.098-1.094-13.122-0.153-20.666,3.053c-2.145,0.911-4.328,2-6.546,3.282c-2.219,1.28-4.409,2.715-6.551,4.279
						c-7.542,5.506-14.544,12.661-20.611,20.78c-5.987,8.009-11.063,16.951-14.843,26.166c-4.691,11.432-7.388,23.278-7.357,34.271
						C104.069,308.924,109.592,319.905,118.488,325.074z"/>
				</g>
				<g>
					<path fill="#DFEBFC" d="M195.543,210.475c4.738,5.988,7.494,14.688,7.528,25.679c0.085,31.373-22.063,69.736-49.362,85.5
						c-27.312,15.767-49.597,3.058-49.687-28.315c-0.03-10.993,2.666-22.84,7.357-34.271c3.78-9.215,8.855-18.157,14.843-26.166
						c6.067-8.12,13.069-15.274,20.611-20.78c2.142-1.564,4.332-2.999,6.551-4.279c2.218-1.282,4.401-2.371,6.546-3.282
						c7.544-3.206,14.568-4.147,20.666-3.053C186.611,202.586,191.72,205.65,195.543,210.475z M153.697,314.151
						c23.746-13.709,42.928-46.946,42.849-74.232c-0.074-27.272-19.384-38.287-43.127-24.577
						c-23.746,13.709-42.928,46.946-42.853,74.219C110.644,316.848,129.954,327.859,153.697,314.151"/>
				</g>
				<g>
					<path fill="#FFFFFF" d="M153.418,215.342c23.743-13.71,43.053-2.695,43.127,24.577c0.079,27.286-19.103,60.523-42.849,74.232
						c-23.743,13.708-43.053,2.696-43.131-24.591C110.491,262.288,129.672,229.051,153.418,215.342z M157.454,261.485
						c-0.002-1.016-0.317-1.761-0.822-2.227l12.3-41.636l-3.03,0.315l-12.182,41.249l-0.179,0.078
						c-2.151,1.243-3.882,4.247-3.877,6.719c0.008,2.471,1.753,3.477,3.903,2.234C155.719,266.976,157.46,263.956,157.454,261.485
						 M178.492,281.608l2.301-3.995l-8.339-4.753l-2.312,3.992L178.492,281.608 M128.79,310.304l8.286-14.348l-2.327-1.325
						l-8.285,14.358L128.79,310.304 M178.314,219.183l-8.294,14.344l2.324,1.326l8.286-14.351L178.314,219.183 M128.604,247.883
						l-2.303,3.985l8.33,4.77l2.311-3.991L128.604,247.883 M116.772,287.869l11.758-6.79l-0.012-3.761l-11.759,6.79L116.772,287.869
						 M178.575,252.174l11.759-6.79l-0.011-3.76l-11.761,6.791L178.575,252.174 M155.309,306.064l-0.04-13.513l-3.27,1.89
						l0.036,13.512L155.309,306.064 M151.787,223.429l0.037,13.501l3.271-1.889l-0.037-13.501L151.787,223.429"/>
				</g>
				<g>
					<path fill="#DFEBFC" d="M159.873,193.631l0.059,10.928c-2.145,0.911-10.955,5.997-13.097,7.562l-0.059-10.93L159.873,193.631z"
						/>
				</g>
				<g>
					<polygon fill="#DFEBFC" points="146.776,201.19 135.934,194.888 149.028,187.329 159.873,193.631 					"/>
				</g>
				<g>
					<polygon fill="#9EB6DF" points="146.834,212.121 135.991,205.818 135.934,194.888 146.776,201.19 					"/>
				</g>
			</g>
		</g>
		<g>
			<path fill="#DFEBFC" d="M122.031,191.925c-4.09,2.5-4.344,6.438-0.565,8.746c3.778,2.31,10.204,2.136,14.279-0.385l37.191-22.819
				c4.08-2.521,4.322-6.375,0.548-8.559c-3.774-2.188-10.212-1.933-14.302,0.567L122.031,191.925z"/>
			<g>
				<path fill="#B6CBEA" d="M176.095,181.713v-8.384c-0.199,1.465-1.238,2.947-3.159,4.137l-37.191,22.819
					c-4.075,2.521-10.501,2.694-14.279,0.385c-1.649-1.01-2.485-2.331-2.61-3.705l-0.065-0.036v9.963l0.094-0.046
					c0.237,1.242,1.075,2.423,2.582,3.343c3.778,2.307,10.204,2.135,14.279-0.387l37.191-22.817
					c2.432-1.502,3.466-3.475,3.136-5.288L176.095,181.713z"/>
			</g>
		</g>
		<g>
			<path fill="#B6CBEA" d="M112.354,251.884c-2.186,3.786-6.491,5.417-9.572,3.627c-3.08-1.789-3.812-6.351-1.627-10.135
				l7.587-13.14c2.186-3.786,6.493-5.417,9.575-3.628c3.077,1.79,3.811,6.35,1.624,10.135L112.354,251.884z"/>
		</g>
		<polygon fill="#B6CBEA" points="119.17,229.236 115.109,226.429 115.109,233.527 		"/>
		<polygon fill="#B6CBEA" points="99.576,253.331 103.547,255.871 105.541,252.646 		"/>
		<g>
			<path fill="#DFEBFC" d="M109.151,249.705c-2.187,3.786-6.496,5.417-9.575,3.626c-3.078-1.788-3.811-6.35-1.626-10.135
				l7.588-13.14c2.186-3.785,6.492-5.417,9.571-3.627c3.082,1.79,3.812,6.35,1.627,10.135L109.151,249.705z"/>
		</g>
	</g>
	<g>
		<polygon fill="#E8EFF9" points="330.93,406.598 259.014,449.874 164.935,394.595 236.85,351.315 		"/>
	</g>
	<g>
		<path fill="#E8EFF9" d="M296.32,370.108c6.034,3.423,5.104,9.564-2.064,13.646l-66.581,37.907
			c-7.169,4.082-17.973,4.62-24.007,1.196c-6.034-3.425-5.105-9.566,2.064-13.647l66.583-37.907
			C279.483,367.223,290.286,366.685,296.32,370.108z"/>
	</g>
	<g>
		<path fill="#9EB6DF" d="M257.669,441.066c-0.65,0-1.265-0.157-1.778-0.456c-0.794-0.448-1.282-1.24-1.282-2.106v-64.076
			c-0.02-0.826,0.457-1.63,1.272-2.106c0.521-0.3,1.134-0.456,1.781-0.456c0.645,0,1.256,0.154,1.767,0.445
			c0.81,0.462,1.293,1.253,1.293,2.117v64.076c0.011,0.846-0.469,1.646-1.283,2.111C258.937,440.909,258.32,441.066,257.669,441.066
			z"/>
	</g>
	<g>
		<path fill="#9EB6DF" d="M320.893,405.404c-0.651,0-1.264-0.158-1.778-0.457c-0.795-0.448-1.281-1.239-1.281-2.105v-64.077
			c-0.021-0.825,0.455-1.63,1.271-2.105c0.521-0.301,1.134-0.456,1.781-0.456c0.646,0,1.259,0.153,1.767,0.445
			c0.811,0.463,1.294,1.252,1.294,2.116v64.077c0.011,0.846-0.47,1.644-1.282,2.112C322.16,405.246,321.543,405.404,320.893,405.404
			z"/>
	</g>
	<path fill="#282861" d="M264.435,231.729l-12.858,45.78c-0.994,3.544,1.071,7.226,4.616,8.221c3.257,0.914,6.627-0.757,7.926-3.786
		l18.781-43.687c2.141-4.978-0.159-10.749-5.139-12.891c-4.979-2.141-10.753,0.161-12.893,5.14
		C264.702,230.892,264.549,231.337,264.435,231.729z"/>
	<g>
		<g>
			<path fill="#282861" d="M212.975,404.829c0,0-7.798,8.504-10.417,10.22c-2.619,1.717,3.08,6.146,17.864-5.964
				c0,0,2.257-1.368,1.685-4.94L212.975,404.829z"/>
			<path fill="#F3925F" d="M234.094,338.211c-0.024-6.757-4.781-9.471-10.66-6.072c-5.853,3.386-10.572,11.562-10.549,18.317v4.305
				v1.869v48.199c-0.004,0.712,0.46,1.424,1.394,1.968c1.866,1.083,4.899,1.083,6.777,0c0.939-0.544,1.412-1.255,1.417-1.964h0.037
				l4.545-51.039C231.172,349.73,234.099,343.503,234.094,338.211z"/>
			<path fill="#282861" d="M223.104,411.003c0,0-7.799,8.504-10.418,10.22c-2.618,1.718,3.078,6.146,17.864-5.966
				c0,0,2.258-1.367,1.686-4.939L223.104,411.003z"/>
			<path fill="#FEA972" d="M252.729,349.825l-8.516-3.709c0.065-0.586,0.101-1.164,0.099-1.733
				c-0.023-6.756-4.779-9.469-10.657-6.07c-5.854,3.385-10.574,11.562-10.551,18.317v4.304v1.871v48.198
				c-0.003,0.713,0.459,1.423,1.393,1.966c1.867,1.085,4.901,1.085,6.78,0c0.937-0.542,1.411-1.252,1.416-1.962h0.036l4.474-50.248
				L252.729,349.825z"/>
			<path fill="#9EB6DF" d="M219.667,334.13c4.528-4.115,37.016-31.13,44.696-37.514c0.186-13.372,0.949-68.445,0.952-69.169
				c0.014-5.441,3.174-8.233,7.5-7.245v-0.003c23.702,4.15,37.271,24.205,37.271,24.205l-0.006,0.004
				c2.629,3.719,4.338,8.267,4.326,12.289c-0.003,1.184-0.457,3.226-0.457,3.226c-0.029,0.091-10.35,52.741-10.35,52.741
				l-0.037-0.013c-0.146,5.88-0.756,13.438-2.875,15.655c-9.731,10.185-45.458,29.338-54.815,33.066
				C236.512,365.1,214.527,338.801,219.667,334.13z"/>
			<path fill="#FFFFFF" d="M279.036,236.874l3.793,6.529c0,0,13.433-10.168,8.658-15.546c-4.774-5.381-15.724,2.743-18.055,12.262
				L279.036,236.874z"/>
			<path fill="#282861" d="M264.247,213.912c0.275,7.436-0.546,30.812,14.427,19.275S264.247,213.912,264.247,213.912z"/>
			<path fill="#F3925F" d="M285.367,220.236c0,0-0.321,6.03,4.614,9.035c1.016,4.26-10.945,7.604-10.945,7.604
				c-1.996-2.989,1.415-3.715-2.91-8.398C282.12,225.895,285.367,220.236,285.367,220.236z"/>
			<path fill="#282861" d="M270.98,201.986c0,0,0.007-0.014,0.011-0.022c-0.004,0.009-0.009,0.02-0.009,0.02L270.98,201.986z"/>
			<path fill="#F3925F" d="M285.255,219.012c0,0,0.938-2.883,2.572-1.458c1.625,1.421-0.371,6.482-1.685,5.63
				C284.827,222.334,285.255,219.012,285.255,219.012z"/>
			<g>
				<path fill="#FEA972" d="M286.982,210.626c-0.885-3.396-5.481-3.947-5.481-3.947c-9.412,2.285-17.868,0.207-18.257,0.109
					c0,1.289,0.093,2.649,0.385,4.15c2.695,13.861,7.208,25.432,15.983,19.226c2.731-1.938,5.362-4.914,7.511-8.373
					C287.43,219.896,287.983,215.19,286.982,210.626L286.982,210.626z"/>
			</g>
		</g>
		<path fill="#282861" d="M263.244,206.789c-0.005-2.01,0.265-3.802,0.772-5.352c0,0,0.006-0.016,0.01-0.028
			c1.356-4.102,4.173-6.653,6.527-8.078c0.024-0.013,0.042-0.025,0.062-0.037c0.213-0.125,0.415-0.241,0.615-0.345
			c0.076-0.044,0.151-0.084,0.232-0.124c0.209-0.109,0.417-0.209,0.611-0.303c0.181-0.079,0.357-0.161,0.519-0.223
			c0.095-0.038,0.179-0.069,0.264-0.1c0.148-0.058,0.287-0.107,0.42-0.148c0.06-0.021,0.118-0.043,0.175-0.059
			c0.181-0.05,0.349-0.096,0.483-0.126c2.425-0.483,10.132-3.247,16.171,6.027c0.538,0.825,1.025,1.76,1.455,2.765
			c0.683,1.274,1.204,2.496,1.59,3.666l0.001-0.001c0.009,0.021,0.017,0.045,0.023,0.067c0.025,0.077,0.049,0.154,0.074,0.231
			c2.466,7.666,6.613,18.445,10.705,24.65c6.703,10.165-11.347,23.37-15.532,18.421c-4.979-5.476-4.579-22.729-6.125-30.457
			c-1.208-6.047-7.954-8.513-12.875-9.579C265.842,207.428,263.446,206.839,263.244,206.789z"/>
	</g>
	<g>
		<g enable-background="new    ">
			<g>
				<polygon fill="#9EB6DF" points="329.216,332.826 329.147,338.83 257.229,382.106 257.299,376.104 				"/>
			</g>
			<g>
				<polygon fill="#434483" points="257.299,376.104 257.229,382.106 163.15,326.825 163.22,320.823 				"/>
			</g>
			<g>
				<polygon fill="#FAFCFF" points="329.216,332.826 257.299,376.104 163.22,320.823 235.136,277.545 				"/>
			</g>
			<polygon fill="#FFFFFF" points="231.356,344.635 281.052,314.729 243.918,292.908 194.224,322.815 			"/>
			<polygon fill="#FFFFFF" points="296.078,327.072 260.328,348.586 270.927,354.814 306.678,333.301 			"/>
		</g>
	</g>
	<path fill="#282861" d="M294.133,258.216l3.251,52.313c0.237,3.804,3.512,6.693,7.313,6.46c3.515-0.22,6.251-3.033,6.458-6.46
		l3.251-52.313c0.351-5.601-3.907-10.424-9.507-10.772c-5.598-0.347-10.42,3.91-10.767,9.509
		C294.108,257.359,294.11,257.817,294.133,258.216z"/>
	<g>
		<path fill="#FEA972" d="M262.869,319.168l-10.53,4.433c-2.594,1.09-3.81,4.079-2.718,6.671c1.028,2.442,3.757,3.658,6.233,2.882
			l10.144-3.211l0,0C270.78,328.428,267.585,317.182,262.869,319.168z"/>
		<path fill="#282861" d="M310.669,307.929c-1.251-3.95-5.467-6.137-9.418-4.889c-0.215,0.067-0.439,0.153-0.644,0.239
			l-37.739,15.889c4.717-1.986,7.911,9.26,3.129,10.774l0,0l39.783-12.6C309.732,316.095,311.92,311.878,310.669,307.929z"/>
	</g>
	<g>
		<path fill="#FEA972" d="M228.942,295.933L228.942,295.933l-5.979,5.352c-2.018,1.803-2.189,4.903-0.383,6.919
			c1.674,1.871,4.462,2.152,6.468,0.741l7.282-5.121C239.207,301.797,232.077,293.126,228.942,295.933z"/>
		<path fill="#282861" d="M263.103,276.177c-2.293-3.259-6.791-4.042-10.05-1.752c-0.221,0.158-0.463,0.349-0.661,0.526
			l-23.45,20.981l0,0c3.135-2.807,10.265,5.864,7.388,7.891l25.022-17.598C264.612,283.936,265.395,279.435,263.103,276.177z"/>
	</g>
	
		<line fill="none" stroke="#434483" stroke-width="2" stroke-linecap="round" stroke-miterlimit="10" x1="227.617" y1="284.38" x2="230.711" y2="312.227"/>
	
		<ellipse transform="matrix(0.9682 0.2502 -0.2502 0.9682 63.7039 -63.8101)" fill="#FEA972" cx="282.877" cy="218.702" rx="2.274" ry="3.352"/>
</g>
</svg>
