<?xml version="1.0" encoding="utf-8"?>
<!-- Generator: Adobe Illustrator 16.0.0, SVG Export Plug-In . SVG Version: 6.00 Build 0)  -->
<!DOCTYPE svg PUBLIC "-//W3C//DTD SVG 1.1//EN" "http://www.w3.org/Graphics/SVG/1.1/DTD/svg11.dtd">
<svg version="1.1" id="Layer_1" xmlns="http://www.w3.org/2000/svg" xmlns:xlink="http://www.w3.org/1999/xlink" x="0px" y="0px"
	 width="541.853px" height="495.618px" viewBox="0 0 541.853 495.618" enable-background="new 0 0 541.853 495.618"
	 xml:space="preserve">
<polygon fill="#E8EFF9" points="271.072,171.016 0.146,327.355 271.072,483.551 541.998,327.355 "/>
<path fill="#E8EFF9" d="M290.597,382.615l-28.701-16.554l33.943-19.919l-139.668-79.884L62.84,321.03l139.667,79.882l18.655-10.947
	l28.014,16.157c13.341,7.694,33.576,8.7,44.966,2.235C305.535,401.894,303.939,390.31,290.597,382.615z"/>
<g>
	<g>
		<polygon fill="#FFFFFF" points="157.855,257.221 62.533,312.256 201.519,392.17 271.462,351.788 271.462,322.207 		"/>
		<line fill="none" stroke="#9EB6DF" stroke-miterlimit="10" x1="105.51" y1="298.527" x2="134.007" y2="282.178"/>
		<line fill="none" stroke="#9EB6DF" stroke-miterlimit="10" x1="101.531" y1="322.439" x2="167.699" y2="284.238"/>
		<line fill="none" stroke="#9EB6DF" stroke-miterlimit="10" x1="110.787" y1="327.992" x2="176.955" y2="289.791"/>
		<line fill="none" stroke="#9EB6DF" stroke-miterlimit="10" x1="120.047" y1="333.549" x2="186.215" y2="295.346"/>
		<line fill="none" stroke="#9EB6DF" stroke-miterlimit="10" x1="129.305" y1="339.102" x2="195.473" y2="300.899"/>
		<line fill="none" stroke="#9EB6DF" stroke-miterlimit="10" x1="138.564" y1="344.653" x2="204.73" y2="306.452"/>
		<line fill="none" stroke="#9EB6DF" stroke-miterlimit="10" x1="147.821" y1="350.207" x2="213.988" y2="312.004"/>
		<line fill="none" stroke="#9EB6DF" stroke-miterlimit="10" x1="157.08" y1="355.76" x2="223.246" y2="317.557"/>
		<line fill="none" stroke="#9EB6DF" stroke-miterlimit="10" x1="166.338" y1="361.314" x2="232.504" y2="323.113"/>
		<line fill="none" stroke="#9EB6DF" stroke-miterlimit="10" x1="175.596" y1="366.867" x2="241.762" y2="328.666"/>
		<line fill="none" stroke="#9EB6DF" stroke-miterlimit="10" x1="184.854" y1="372.421" x2="251.02" y2="334.219"/>
		<line fill="none" stroke="#9EB6DF" stroke-miterlimit="10" x1="194.111" y1="377.974" x2="260.279" y2="339.772"/>
		<polygon fill="#9EB6DF" points="271.462,323.679 271.462,351.788 295.917,337.667 		"/>
		<polygon fill="#9EB6DF" points="247.006,336.635 271.462,350.755 271.462,351.788 247.006,337.667 		"/>
		<polygon fill="#DFEBFC" points="271.462,322.646 271.462,350.755 247.006,336.635 		"/>
	</g>
	<g>
		<polygon fill="#B6CBEA" points="201.519,392.17 62.533,312.256 62.55,315.313 201.519,395.333 201.521,395.333 201.521,392.168 		
			"/>
		<polygon fill="#9EB6DF" points="295.917,337.667 201.521,392.168 201.521,395.333 295.917,340.832 		"/>
	</g>
</g>
<g>
	<g>
		<polygon fill="#FFFFFF" points="157.855,254.054 62.533,309.089 201.519,389.004 271.462,348.622 271.462,319.041 		"/>
		<line fill="none" stroke="#9EB6DF" stroke-miterlimit="10" x1="105.51" y1="295.361" x2="134.007" y2="279.012"/>
		<line fill="none" stroke="#9EB6DF" stroke-miterlimit="10" x1="101.531" y1="319.273" x2="167.699" y2="281.072"/>
		<line fill="none" stroke="#9EB6DF" stroke-miterlimit="10" x1="110.787" y1="324.828" x2="176.955" y2="286.625"/>
		<line fill="none" stroke="#9EB6DF" stroke-miterlimit="10" x1="120.047" y1="330.383" x2="186.215" y2="292.18"/>
		<line fill="none" stroke="#9EB6DF" stroke-miterlimit="10" x1="129.305" y1="335.936" x2="195.473" y2="297.733"/>
		<line fill="none" stroke="#9EB6DF" stroke-miterlimit="10" x1="138.564" y1="341.488" x2="204.73" y2="303.286"/>
		<line fill="none" stroke="#9EB6DF" stroke-miterlimit="10" x1="147.821" y1="347.041" x2="213.988" y2="308.838"/>
		<line fill="none" stroke="#9EB6DF" stroke-miterlimit="10" x1="157.08" y1="352.596" x2="223.246" y2="314.393"/>
		<line fill="none" stroke="#9EB6DF" stroke-miterlimit="10" x1="166.338" y1="358.148" x2="232.504" y2="319.947"/>
		<line fill="none" stroke="#9EB6DF" stroke-miterlimit="10" x1="175.596" y1="363.703" x2="241.762" y2="325.5"/>
		<line fill="none" stroke="#9EB6DF" stroke-miterlimit="10" x1="184.854" y1="369.256" x2="251.02" y2="331.053"/>
		<line fill="none" stroke="#9EB6DF" stroke-miterlimit="10" x1="194.111" y1="374.809" x2="260.279" y2="336.606"/>
		<polygon fill="#9EB6DF" points="271.462,320.514 271.462,348.622 295.917,334.503 		"/>
		<polygon fill="#9EB6DF" points="247.006,333.47 271.462,347.589 271.462,348.622 247.006,334.503 		"/>
		<polygon fill="#DFEBFC" points="271.462,319.48 271.462,347.589 247.006,333.47 		"/>
	</g>
	<g>
		<polygon fill="#B6CBEA" points="201.519,389.004 62.533,309.089 62.55,312.146 201.519,392.168 201.521,392.168 201.521,389.002 
					"/>
		<polygon fill="#9EB6DF" points="295.917,334.503 201.521,389.002 201.521,392.168 295.917,337.666 		"/>
	</g>
</g>
<g>
	<g>
		<polygon fill="#FFFFFF" points="157.855,250.889 62.533,305.924 201.519,385.838 271.462,345.457 271.462,315.875 		"/>
		<line fill="none" stroke="#9EB6DF" stroke-miterlimit="10" x1="105.51" y1="292.195" x2="134.007" y2="275.847"/>
		<line fill="none" stroke="#9EB6DF" stroke-miterlimit="10" x1="101.531" y1="316.108" x2="167.699" y2="277.906"/>
		<line fill="none" stroke="#9EB6DF" stroke-miterlimit="10" x1="110.787" y1="321.662" x2="176.955" y2="283.459"/>
		<line fill="none" stroke="#9EB6DF" stroke-miterlimit="10" x1="120.047" y1="327.217" x2="186.215" y2="289.014"/>
		<line fill="none" stroke="#9EB6DF" stroke-miterlimit="10" x1="129.305" y1="332.77" x2="195.473" y2="294.568"/>
		<line fill="none" stroke="#9EB6DF" stroke-miterlimit="10" x1="138.564" y1="338.322" x2="204.73" y2="300.121"/>
		<line fill="none" stroke="#9EB6DF" stroke-miterlimit="10" x1="147.821" y1="343.875" x2="213.988" y2="305.674"/>
		<line fill="none" stroke="#9EB6DF" stroke-miterlimit="10" x1="157.08" y1="349.43" x2="223.246" y2="311.227"/>
		<line fill="none" stroke="#9EB6DF" stroke-miterlimit="10" x1="166.338" y1="354.982" x2="232.504" y2="316.781"/>
		<line fill="none" stroke="#9EB6DF" stroke-miterlimit="10" x1="175.596" y1="360.537" x2="241.762" y2="322.334"/>
		<line fill="none" stroke="#9EB6DF" stroke-miterlimit="10" x1="184.854" y1="366.09" x2="251.02" y2="327.888"/>
		<line fill="none" stroke="#9EB6DF" stroke-miterlimit="10" x1="194.111" y1="371.643" x2="260.279" y2="333.441"/>
		<polygon fill="#9EB6DF" points="271.462,317.348 271.462,345.457 295.917,331.336 		"/>
		<polygon fill="#9EB6DF" points="247.006,330.305 271.462,344.424 271.462,345.457 247.006,331.336 		"/>
		<polygon fill="#DFEBFC" points="271.462,316.314 271.462,344.424 247.006,330.305 		"/>
	</g>
	<g>
		<polygon fill="#B6CBEA" points="201.519,385.838 62.533,305.924 62.55,308.982 201.519,389.002 201.521,389.002 201.521,385.836 
					"/>
		<polygon fill="#9EB6DF" points="295.917,331.336 201.521,385.836 201.521,389.002 295.917,334.501 		"/>
	</g>
</g>
<g>
	<g>
		<polygon fill="#FFFFFF" points="157.855,247.723 62.533,302.758 201.519,382.672 271.462,342.291 271.462,312.709 		"/>
		<line fill="none" stroke="#9EB6DF" stroke-miterlimit="10" x1="105.51" y1="289.031" x2="134.007" y2="272.682"/>
		<line fill="none" stroke="#9EB6DF" stroke-miterlimit="10" x1="101.531" y1="312.943" x2="167.699" y2="274.74"/>
		<line fill="none" stroke="#9EB6DF" stroke-miterlimit="10" x1="110.787" y1="318.496" x2="176.955" y2="280.294"/>
		<line fill="none" stroke="#9EB6DF" stroke-miterlimit="10" x1="120.047" y1="324.052" x2="186.215" y2="285.848"/>
		<line fill="none" stroke="#9EB6DF" stroke-miterlimit="10" x1="129.305" y1="329.604" x2="195.473" y2="291.402"/>
		<line fill="none" stroke="#9EB6DF" stroke-miterlimit="10" x1="138.564" y1="335.156" x2="204.73" y2="296.955"/>
		<line fill="none" stroke="#9EB6DF" stroke-miterlimit="10" x1="147.821" y1="340.709" x2="213.988" y2="302.508"/>
		<line fill="none" stroke="#9EB6DF" stroke-miterlimit="10" x1="157.08" y1="346.264" x2="223.246" y2="308.061"/>
		<line fill="none" stroke="#9EB6DF" stroke-miterlimit="10" x1="166.338" y1="351.818" x2="232.504" y2="313.615"/>
		<line fill="none" stroke="#9EB6DF" stroke-miterlimit="10" x1="175.596" y1="357.372" x2="241.762" y2="319.168"/>
		<line fill="none" stroke="#9EB6DF" stroke-miterlimit="10" x1="184.854" y1="362.926" x2="251.02" y2="324.723"/>
		<line fill="none" stroke="#9EB6DF" stroke-miterlimit="10" x1="194.111" y1="368.477" x2="260.279" y2="330.275"/>
		<polygon fill="#9EB6DF" points="271.462,314.182 271.462,342.291 295.917,328.17 		"/>
		<polygon fill="#9EB6DF" points="247.006,327.139 271.462,341.258 271.462,342.291 247.006,328.17 		"/>
		<polygon fill="#DFEBFC" points="271.462,313.149 271.462,341.258 247.006,327.139 		"/>
	</g>
	<g>
		<polygon fill="#B6CBEA" points="201.519,382.672 62.533,302.758 62.55,305.815 201.519,385.836 201.521,385.836 201.521,382.67 		
			"/>
		<polygon fill="#9EB6DF" points="295.917,328.17 201.521,382.67 201.521,385.836 295.917,331.335 		"/>
	</g>
</g>
<g>
	<g>
		<polygon fill="#FFFFFF" points="157.855,244.557 62.533,299.592 201.519,379.506 271.462,339.125 271.462,309.543 		"/>
		<line fill="none" stroke="#9EB6DF" stroke-miterlimit="10" x1="105.51" y1="285.865" x2="134.007" y2="269.516"/>
		<line fill="none" stroke="#9EB6DF" stroke-miterlimit="10" x1="101.531" y1="309.777" x2="167.699" y2="271.576"/>
		<line fill="none" stroke="#9EB6DF" stroke-miterlimit="10" x1="110.787" y1="315.33" x2="176.955" y2="277.129"/>
		<line fill="none" stroke="#9EB6DF" stroke-miterlimit="10" x1="120.047" y1="320.886" x2="186.215" y2="282.683"/>
		<line fill="none" stroke="#9EB6DF" stroke-miterlimit="10" x1="129.305" y1="326.438" x2="195.473" y2="288.236"/>
		<line fill="none" stroke="#9EB6DF" stroke-miterlimit="10" x1="138.564" y1="331.99" x2="204.73" y2="293.789"/>
		<line fill="none" stroke="#9EB6DF" stroke-miterlimit="10" x1="147.821" y1="337.544" x2="213.988" y2="299.342"/>
		<line fill="none" stroke="#9EB6DF" stroke-miterlimit="10" x1="157.08" y1="343.098" x2="223.246" y2="304.895"/>
		<line fill="none" stroke="#9EB6DF" stroke-miterlimit="10" x1="166.338" y1="348.652" x2="232.504" y2="310.45"/>
		<line fill="none" stroke="#9EB6DF" stroke-miterlimit="10" x1="175.596" y1="354.206" x2="241.762" y2="316.003"/>
		<line fill="none" stroke="#9EB6DF" stroke-miterlimit="10" x1="184.854" y1="359.758" x2="251.02" y2="321.557"/>
		<line fill="none" stroke="#9EB6DF" stroke-miterlimit="10" x1="194.111" y1="365.311" x2="260.279" y2="327.109"/>
		<polygon fill="#9EB6DF" points="271.462,311.016 271.462,339.125 295.917,325.004 		"/>
		<polygon fill="#9EB6DF" points="247.006,323.973 271.462,338.094 271.462,339.125 247.006,325.004 		"/>
		<polygon fill="#DFEBFC" points="271.462,309.984 271.462,338.094 247.006,323.973 		"/>
	</g>
	<g>
		<polygon fill="#B6CBEA" points="201.519,379.506 62.533,299.592 62.55,302.651 201.519,382.67 201.521,382.67 201.521,379.504 		
			"/>
		<polygon fill="#9EB6DF" points="295.917,325.004 201.521,379.504 201.521,382.67 295.917,328.17 		"/>
	</g>
</g>
<g>
	<g>
		<polygon fill="#FFFFFF" points="157.855,241.391 62.533,296.426 201.519,376.341 271.462,335.959 271.462,306.378 		"/>
		<line fill="none" stroke="#9EB6DF" stroke-miterlimit="10" x1="105.51" y1="282.699" x2="134.007" y2="266.35"/>
		<line fill="none" stroke="#9EB6DF" stroke-miterlimit="10" x1="101.531" y1="306.611" x2="167.699" y2="268.409"/>
		<line fill="none" stroke="#9EB6DF" stroke-miterlimit="10" x1="110.787" y1="312.164" x2="176.955" y2="273.963"/>
		<line fill="none" stroke="#9EB6DF" stroke-miterlimit="10" x1="120.047" y1="317.721" x2="186.215" y2="279.517"/>
		<line fill="none" stroke="#9EB6DF" stroke-miterlimit="10" x1="129.305" y1="323.273" x2="195.473" y2="285.07"/>
		<line fill="none" stroke="#9EB6DF" stroke-miterlimit="10" x1="138.564" y1="328.824" x2="204.73" y2="290.623"/>
		<line fill="none" stroke="#9EB6DF" stroke-miterlimit="10" x1="147.821" y1="334.379" x2="213.988" y2="296.176"/>
		<line fill="none" stroke="#9EB6DF" stroke-miterlimit="10" x1="157.08" y1="339.934" x2="223.246" y2="301.729"/>
		<line fill="none" stroke="#9EB6DF" stroke-miterlimit="10" x1="166.338" y1="345.486" x2="232.504" y2="307.285"/>
		<line fill="none" stroke="#9EB6DF" stroke-miterlimit="10" x1="175.596" y1="351.041" x2="241.762" y2="312.838"/>
		<line fill="none" stroke="#9EB6DF" stroke-miterlimit="10" x1="184.854" y1="356.594" x2="251.02" y2="318.393"/>
		<line fill="none" stroke="#9EB6DF" stroke-miterlimit="10" x1="194.111" y1="362.145" x2="260.279" y2="323.943"/>
		<polygon fill="#9EB6DF" points="271.462,307.85 271.462,335.959 295.917,321.84 		"/>
		<polygon fill="#9EB6DF" points="247.006,320.807 271.462,334.928 271.462,335.959 247.006,321.84 		"/>
		<polygon fill="#DFEBFC" points="271.462,306.818 271.462,334.928 247.006,320.807 		"/>
	</g>
	<g>
		<polygon fill="#B6CBEA" points="201.519,376.341 62.533,296.426 62.55,299.484 201.519,379.504 201.521,379.504 201.521,376.339 
					"/>
		<polygon fill="#9EB6DF" points="295.917,321.84 201.521,376.339 201.521,379.504 295.917,325.004 		"/>
	</g>
</g>
<g>
	<g>
		<polygon fill="#FFFFFF" points="157.855,238.227 62.533,293.262 201.519,373.176 271.462,332.794 271.462,303.213 		"/>
		<line fill="none" stroke="#9EB6DF" stroke-miterlimit="10" x1="105.51" y1="279.533" x2="134.007" y2="263.184"/>
		<line fill="none" stroke="#9EB6DF" stroke-miterlimit="10" x1="101.531" y1="303.445" x2="167.699" y2="265.244"/>
		<line fill="none" stroke="#9EB6DF" stroke-miterlimit="10" x1="110.787" y1="308.999" x2="176.955" y2="270.797"/>
		<line fill="none" stroke="#9EB6DF" stroke-miterlimit="10" x1="120.047" y1="314.555" x2="186.215" y2="276.352"/>
		<line fill="none" stroke="#9EB6DF" stroke-miterlimit="10" x1="129.305" y1="320.107" x2="195.473" y2="281.905"/>
		<line fill="none" stroke="#9EB6DF" stroke-miterlimit="10" x1="138.564" y1="325.659" x2="204.73" y2="287.458"/>
		<line fill="none" stroke="#9EB6DF" stroke-miterlimit="10" x1="147.821" y1="331.213" x2="213.988" y2="293.01"/>
		<line fill="none" stroke="#9EB6DF" stroke-miterlimit="10" x1="157.08" y1="336.768" x2="223.246" y2="298.564"/>
		<line fill="none" stroke="#9EB6DF" stroke-miterlimit="10" x1="166.338" y1="342.32" x2="232.504" y2="304.119"/>
		<line fill="none" stroke="#9EB6DF" stroke-miterlimit="10" x1="175.596" y1="347.875" x2="241.762" y2="309.672"/>
		<line fill="none" stroke="#9EB6DF" stroke-miterlimit="10" x1="184.854" y1="353.427" x2="251.02" y2="315.226"/>
		<line fill="none" stroke="#9EB6DF" stroke-miterlimit="10" x1="194.111" y1="358.979" x2="260.279" y2="320.778"/>
		<polygon fill="#9EB6DF" points="271.462,304.685 271.462,332.794 295.917,318.673 		"/>
		<polygon fill="#9EB6DF" points="247.006,317.643 271.462,331.762 271.462,332.794 247.006,318.673 		"/>
		<polygon fill="#DFEBFC" points="271.462,303.652 271.462,331.762 247.006,317.643 		"/>
	</g>
	<g>
		<polygon fill="#B6CBEA" points="201.519,373.176 62.533,293.262 62.55,296.318 201.519,376.339 201.521,376.339 201.521,373.174 
					"/>
		<polygon fill="#9EB6DF" points="295.917,318.673 201.521,373.174 201.521,376.339 295.917,321.84 		"/>
	</g>
</g>
<g>
	<g>
		<polygon fill="#FFFFFF" points="157.855,235.06 62.533,290.095 201.519,370.01 271.462,329.628 271.462,300.047 		"/>
		<line fill="none" stroke="#9EB6DF" stroke-miterlimit="10" x1="105.51" y1="276.368" x2="134.007" y2="260.018"/>
		<line fill="none" stroke="#9EB6DF" stroke-miterlimit="10" x1="101.531" y1="300.279" x2="167.699" y2="262.078"/>
		<line fill="none" stroke="#9EB6DF" stroke-miterlimit="10" x1="110.787" y1="305.834" x2="176.955" y2="267.631"/>
		<line fill="none" stroke="#9EB6DF" stroke-miterlimit="10" x1="120.047" y1="311.389" x2="186.215" y2="273.186"/>
		<line fill="none" stroke="#9EB6DF" stroke-miterlimit="10" x1="129.305" y1="316.942" x2="195.473" y2="278.739"/>
		<line fill="none" stroke="#9EB6DF" stroke-miterlimit="10" x1="138.564" y1="322.494" x2="204.73" y2="284.292"/>
		<line fill="none" stroke="#9EB6DF" stroke-miterlimit="10" x1="147.821" y1="328.049" x2="213.988" y2="289.844"/>
		<line fill="none" stroke="#9EB6DF" stroke-miterlimit="10" x1="157.08" y1="333.602" x2="223.246" y2="295.398"/>
		<line fill="none" stroke="#9EB6DF" stroke-miterlimit="10" x1="166.338" y1="339.155" x2="232.504" y2="300.953"/>
		<line fill="none" stroke="#9EB6DF" stroke-miterlimit="10" x1="175.596" y1="344.709" x2="241.762" y2="306.508"/>
		<line fill="none" stroke="#9EB6DF" stroke-miterlimit="10" x1="184.854" y1="350.262" x2="251.02" y2="312.061"/>
		<line fill="none" stroke="#9EB6DF" stroke-miterlimit="10" x1="194.111" y1="355.814" x2="260.279" y2="317.612"/>
		<polygon fill="#9EB6DF" points="271.462,301.52 271.462,329.628 295.917,315.509 		"/>
		<polygon fill="#9EB6DF" points="247.006,314.477 271.462,328.596 271.462,329.628 247.006,315.509 		"/>
		<polygon fill="#DFEBFC" points="271.462,300.486 271.462,328.596 247.006,314.477 		"/>
	</g>
	<g>
		<polygon fill="#B6CBEA" points="201.519,370.01 62.533,290.095 62.55,293.152 201.519,373.174 201.521,373.174 201.521,370.009 		
			"/>
		<polygon fill="#9EB6DF" points="295.917,315.509 201.521,370.009 201.521,373.174 295.917,318.673 		"/>
	</g>
</g>
<g>
	<g>
		<polygon fill="#FFFFFF" points="157.855,231.895 62.533,286.93 201.519,366.846 271.462,326.463 271.462,296.881 		"/>
		<line fill="none" stroke="#9EB6DF" stroke-miterlimit="10" x1="105.51" y1="273.203" x2="134.007" y2="256.853"/>
		<line fill="none" stroke="#9EB6DF" stroke-miterlimit="10" x1="101.531" y1="297.114" x2="167.699" y2="258.913"/>
		<line fill="none" stroke="#9EB6DF" stroke-miterlimit="10" x1="110.787" y1="302.668" x2="176.955" y2="264.465"/>
		<line fill="none" stroke="#9EB6DF" stroke-miterlimit="10" x1="120.047" y1="308.223" x2="186.215" y2="270.02"/>
		<line fill="none" stroke="#9EB6DF" stroke-miterlimit="10" x1="129.305" y1="313.776" x2="195.473" y2="275.574"/>
		<line fill="none" stroke="#9EB6DF" stroke-miterlimit="10" x1="138.564" y1="319.328" x2="204.73" y2="281.128"/>
		<line fill="none" stroke="#9EB6DF" stroke-miterlimit="10" x1="147.821" y1="324.883" x2="213.988" y2="286.68"/>
		<line fill="none" stroke="#9EB6DF" stroke-miterlimit="10" x1="157.08" y1="330.436" x2="223.246" y2="292.232"/>
		<line fill="none" stroke="#9EB6DF" stroke-miterlimit="10" x1="166.338" y1="335.988" x2="232.504" y2="297.787"/>
		<line fill="none" stroke="#9EB6DF" stroke-miterlimit="10" x1="175.596" y1="341.543" x2="241.762" y2="303.341"/>
		<line fill="none" stroke="#9EB6DF" stroke-miterlimit="10" x1="184.854" y1="347.097" x2="251.02" y2="308.895"/>
		<line fill="none" stroke="#9EB6DF" stroke-miterlimit="10" x1="194.111" y1="352.648" x2="260.279" y2="314.447"/>
		<polygon fill="#9EB6DF" points="271.462,298.354 271.462,326.463 295.917,312.344 		"/>
		<polygon fill="#9EB6DF" points="247.006,311.311 271.462,325.43 271.462,326.463 247.006,312.344 		"/>
		<polygon fill="#DFEBFC" points="271.462,297.321 271.462,325.43 247.006,311.311 		"/>
	</g>
	<g>
		<polygon fill="#B6CBEA" points="201.519,366.846 62.533,286.93 62.55,289.987 201.519,370.009 201.521,370.009 201.521,366.844 		
			"/>
		<polygon fill="#9EB6DF" points="295.917,312.344 201.521,366.844 201.521,370.009 295.917,315.508 		"/>
	</g>
</g>
<g>
	<g>
		<polygon fill="#FFFFFF" points="157.855,228.729 62.533,283.764 201.519,363.679 271.462,323.297 271.462,293.715 		"/>
		<line fill="none" stroke="#9EB6DF" stroke-miterlimit="10" x1="105.51" y1="270.037" x2="134.007" y2="253.688"/>
		<line fill="none" stroke="#9EB6DF" stroke-miterlimit="10" x1="101.531" y1="293.949" x2="167.699" y2="255.747"/>
		<line fill="none" stroke="#9EB6DF" stroke-miterlimit="10" x1="110.787" y1="299.503" x2="176.955" y2="261.3"/>
		<line fill="none" stroke="#9EB6DF" stroke-miterlimit="10" x1="120.047" y1="305.058" x2="186.215" y2="266.854"/>
		<line fill="none" stroke="#9EB6DF" stroke-miterlimit="10" x1="129.305" y1="310.611" x2="195.473" y2="272.408"/>
		<line fill="none" stroke="#9EB6DF" stroke-miterlimit="10" x1="138.564" y1="316.164" x2="204.73" y2="277.961"/>
		<line fill="none" stroke="#9EB6DF" stroke-miterlimit="10" x1="147.821" y1="321.717" x2="213.988" y2="283.514"/>
		<line fill="none" stroke="#9EB6DF" stroke-miterlimit="10" x1="157.08" y1="327.271" x2="223.246" y2="289.067"/>
		<line fill="none" stroke="#9EB6DF" stroke-miterlimit="10" x1="166.338" y1="332.824" x2="232.504" y2="294.623"/>
		<line fill="none" stroke="#9EB6DF" stroke-miterlimit="10" x1="175.596" y1="338.378" x2="241.762" y2="300.176"/>
		<line fill="none" stroke="#9EB6DF" stroke-miterlimit="10" x1="184.854" y1="343.932" x2="251.02" y2="305.729"/>
		<line fill="none" stroke="#9EB6DF" stroke-miterlimit="10" x1="194.111" y1="349.482" x2="260.279" y2="311.281"/>
		<polygon fill="#9EB6DF" points="271.462,295.188 271.462,323.297 295.917,309.178 		"/>
		<polygon fill="#9EB6DF" points="247.006,308.145 271.462,322.265 271.462,323.297 247.006,309.178 		"/>
		<polygon fill="#DFEBFC" points="271.462,294.155 271.462,322.265 247.006,308.145 		"/>
	</g>
	<g>
		<polygon fill="#B6CBEA" points="201.519,363.679 62.533,283.764 62.55,286.821 201.519,366.844 201.521,366.844 201.521,363.678 
					"/>
		<polygon fill="#9EB6DF" points="295.917,309.178 201.521,363.678 201.521,366.844 295.917,312.342 		"/>
	</g>
</g>
<g>
	<g>
		<polygon fill="#FFFFFF" points="157.855,225.564 62.533,280.6 201.519,360.514 271.462,320.131 271.462,290.549 		"/>
		<line fill="none" stroke="#9EB6DF" stroke-miterlimit="10" x1="105.51" y1="266.871" x2="134.007" y2="250.521"/>
		<line fill="none" stroke="#9EB6DF" stroke-miterlimit="10" x1="101.531" y1="290.783" x2="167.699" y2="252.582"/>
		<line fill="none" stroke="#9EB6DF" stroke-miterlimit="10" x1="110.787" y1="296.338" x2="176.955" y2="258.135"/>
		<line fill="none" stroke="#9EB6DF" stroke-miterlimit="10" x1="120.047" y1="301.892" x2="186.215" y2="263.688"/>
		<line fill="none" stroke="#9EB6DF" stroke-miterlimit="10" x1="129.305" y1="307.445" x2="195.473" y2="269.242"/>
		<line fill="none" stroke="#9EB6DF" stroke-miterlimit="10" x1="138.564" y1="312.998" x2="204.73" y2="274.796"/>
		<line fill="none" stroke="#9EB6DF" stroke-miterlimit="10" x1="147.821" y1="318.551" x2="213.988" y2="280.348"/>
		<line fill="none" stroke="#9EB6DF" stroke-miterlimit="10" x1="157.08" y1="324.105" x2="223.246" y2="285.902"/>
		<line fill="none" stroke="#9EB6DF" stroke-miterlimit="10" x1="166.338" y1="329.658" x2="232.504" y2="291.456"/>
		<line fill="none" stroke="#9EB6DF" stroke-miterlimit="10" x1="175.596" y1="335.212" x2="241.762" y2="297.01"/>
		<line fill="none" stroke="#9EB6DF" stroke-miterlimit="10" x1="184.854" y1="340.766" x2="251.02" y2="302.563"/>
		<line fill="none" stroke="#9EB6DF" stroke-miterlimit="10" x1="194.111" y1="346.316" x2="260.279" y2="308.116"/>
		<polygon fill="#9EB6DF" points="271.462,292.021 271.462,320.131 295.917,306.012 		"/>
		<polygon fill="#9EB6DF" points="247.006,304.979 271.462,319.1 271.462,320.131 247.006,306.012 		"/>
		<polygon fill="#DFEBFC" points="271.462,290.99 271.462,319.1 247.006,304.979 		"/>
	</g>
	<g>
		<polygon fill="#B6CBEA" points="201.519,360.514 62.533,280.6 62.55,283.656 201.519,363.678 201.521,363.678 201.521,360.512 		
			"/>
		<polygon fill="#9EB6DF" points="295.917,306.012 201.521,360.512 201.521,363.678 295.917,309.176 		"/>
	</g>
</g>
<g>
	<g>
		<polygon fill="#FFFFFF" points="157.855,222.398 62.533,277.434 201.519,357.348 271.462,316.965 271.462,287.384 		"/>
		<line fill="none" stroke="#9EB6DF" stroke-miterlimit="10" x1="105.51" y1="263.706" x2="134.007" y2="247.355"/>
		<line fill="none" stroke="#9EB6DF" stroke-miterlimit="10" x1="101.531" y1="287.617" x2="167.699" y2="249.416"/>
		<line fill="none" stroke="#9EB6DF" stroke-miterlimit="10" x1="110.787" y1="293.172" x2="176.955" y2="254.969"/>
		<line fill="none" stroke="#9EB6DF" stroke-miterlimit="10" x1="120.047" y1="298.727" x2="186.215" y2="260.522"/>
		<line fill="none" stroke="#9EB6DF" stroke-miterlimit="10" x1="129.305" y1="304.279" x2="195.473" y2="266.076"/>
		<line fill="none" stroke="#9EB6DF" stroke-miterlimit="10" x1="138.564" y1="309.832" x2="204.73" y2="271.631"/>
		<line fill="none" stroke="#9EB6DF" stroke-miterlimit="10" x1="147.821" y1="315.386" x2="213.988" y2="277.183"/>
		<line fill="none" stroke="#9EB6DF" stroke-miterlimit="10" x1="157.08" y1="320.939" x2="223.246" y2="282.736"/>
		<line fill="none" stroke="#9EB6DF" stroke-miterlimit="10" x1="166.338" y1="326.492" x2="232.504" y2="288.291"/>
		<line fill="none" stroke="#9EB6DF" stroke-miterlimit="10" x1="175.596" y1="332.047" x2="241.762" y2="293.844"/>
		<line fill="none" stroke="#9EB6DF" stroke-miterlimit="10" x1="184.854" y1="337.6" x2="251.02" y2="299.398"/>
		<line fill="none" stroke="#9EB6DF" stroke-miterlimit="10" x1="194.111" y1="343.152" x2="260.279" y2="304.951"/>
		<polygon fill="#9EB6DF" points="271.462,288.855 271.462,316.965 295.917,302.846 		"/>
		<polygon fill="#9EB6DF" points="247.006,301.814 271.462,315.934 271.462,316.965 247.006,302.846 		"/>
		<polygon fill="#DFEBFC" points="271.462,287.824 271.462,315.934 247.006,301.814 		"/>
	</g>
	<g>
		<polygon fill="#B6CBEA" points="201.519,357.348 62.533,277.434 62.55,280.49 201.519,360.512 201.521,360.512 201.521,357.346 		
			"/>
		<polygon fill="#9EB6DF" points="295.917,302.846 201.521,357.346 201.521,360.512 295.917,306.01 		"/>
	</g>
</g>
<g>
	<g>
		<polygon fill="#FFFFFF" points="157.855,219.232 62.533,274.268 201.519,354.182 271.462,313.801 271.462,284.219 		"/>
		<line fill="none" stroke="#9EB6DF" stroke-miterlimit="10" x1="105.51" y1="260.541" x2="134.007" y2="244.189"/>
		<line fill="none" stroke="#9EB6DF" stroke-miterlimit="10" x1="101.531" y1="284.453" x2="167.699" y2="246.25"/>
		<line fill="none" stroke="#9EB6DF" stroke-miterlimit="10" x1="110.787" y1="290.006" x2="176.955" y2="251.803"/>
		<line fill="none" stroke="#9EB6DF" stroke-miterlimit="10" x1="120.047" y1="295.561" x2="186.215" y2="257.357"/>
		<line fill="none" stroke="#9EB6DF" stroke-miterlimit="10" x1="129.305" y1="301.113" x2="195.473" y2="262.911"/>
		<line fill="none" stroke="#9EB6DF" stroke-miterlimit="10" x1="138.564" y1="306.666" x2="204.73" y2="268.465"/>
		<line fill="none" stroke="#9EB6DF" stroke-miterlimit="10" x1="147.821" y1="312.219" x2="213.988" y2="274.018"/>
		<line fill="none" stroke="#9EB6DF" stroke-miterlimit="10" x1="157.08" y1="317.773" x2="223.246" y2="279.57"/>
		<line fill="none" stroke="#9EB6DF" stroke-miterlimit="10" x1="166.338" y1="323.326" x2="232.504" y2="285.125"/>
		<line fill="none" stroke="#9EB6DF" stroke-miterlimit="10" x1="175.596" y1="328.881" x2="241.762" y2="290.678"/>
		<line fill="none" stroke="#9EB6DF" stroke-miterlimit="10" x1="184.854" y1="334.434" x2="251.02" y2="296.231"/>
		<line fill="none" stroke="#9EB6DF" stroke-miterlimit="10" x1="194.111" y1="339.986" x2="260.279" y2="301.785"/>
		<polygon fill="#9EB6DF" points="271.462,285.691 271.462,313.801 295.917,299.68 		"/>
		<polygon fill="#9EB6DF" points="247.006,298.648 271.462,312.769 271.462,313.801 247.006,299.68 		"/>
		<polygon fill="#DFEBFC" points="271.462,284.66 271.462,312.769 247.006,298.648 		"/>
	</g>
	<g>
		<polygon fill="#B6CBEA" points="201.519,354.182 62.533,274.268 62.55,277.326 201.519,357.346 201.521,357.346 201.521,354.18 		
			"/>
		<polygon fill="#9EB6DF" points="295.917,299.68 201.521,354.18 201.521,357.346 295.917,302.846 		"/>
	</g>
</g>
<g>
	<g>
		<polygon fill="#FFFFFF" points="157.855,216.066 62.533,271.102 201.519,351.016 271.462,310.635 271.462,281.053 		"/>
		<line fill="none" stroke="#9EB6DF" stroke-miterlimit="10" x1="105.51" y1="257.375" x2="134.007" y2="241.023"/>
		<line fill="none" stroke="#9EB6DF" stroke-miterlimit="10" x1="101.531" y1="281.287" x2="167.699" y2="243.084"/>
		<line fill="none" stroke="#9EB6DF" stroke-miterlimit="10" x1="110.787" y1="286.84" x2="176.955" y2="248.638"/>
		<line fill="none" stroke="#9EB6DF" stroke-miterlimit="10" x1="120.047" y1="292.395" x2="186.215" y2="254.191"/>
		<line fill="none" stroke="#9EB6DF" stroke-miterlimit="10" x1="129.305" y1="297.949" x2="195.473" y2="259.746"/>
		<line fill="none" stroke="#9EB6DF" stroke-miterlimit="10" x1="138.564" y1="303.501" x2="204.73" y2="265.299"/>
		<line fill="none" stroke="#9EB6DF" stroke-miterlimit="10" x1="147.821" y1="309.055" x2="213.988" y2="270.852"/>
		<line fill="none" stroke="#9EB6DF" stroke-miterlimit="10" x1="157.08" y1="314.608" x2="223.246" y2="276.404"/>
		<line fill="none" stroke="#9EB6DF" stroke-miterlimit="10" x1="166.338" y1="320.161" x2="232.504" y2="281.959"/>
		<line fill="none" stroke="#9EB6DF" stroke-miterlimit="10" x1="175.596" y1="325.715" x2="241.762" y2="287.514"/>
		<line fill="none" stroke="#9EB6DF" stroke-miterlimit="10" x1="184.854" y1="331.269" x2="251.02" y2="293.066"/>
		<line fill="none" stroke="#9EB6DF" stroke-miterlimit="10" x1="194.111" y1="336.821" x2="260.279" y2="298.619"/>
		<polygon fill="#9EB6DF" points="271.462,282.525 271.462,310.635 295.917,296.515 		"/>
		<polygon fill="#9EB6DF" points="247.006,295.482 271.462,309.603 271.462,310.635 247.006,296.515 		"/>
		<polygon fill="#DFEBFC" points="271.462,281.494 271.462,309.603 247.006,295.482 		"/>
	</g>
	<g>
		<polygon fill="#B6CBEA" points="201.519,351.016 62.533,271.102 62.55,274.158 201.519,354.18 201.521,354.18 201.521,351.015 		
			"/>
		<polygon fill="#9EB6DF" points="295.917,296.515 201.521,351.015 201.521,354.18 295.917,299.679 		"/>
	</g>
</g>
<g>
	<g>
		<polygon fill="#FFFFFF" points="157.855,212.901 62.533,267.936 201.519,347.852 271.462,307.469 271.462,277.887 		"/>
		<line fill="none" stroke="#9EB6DF" stroke-miterlimit="10" x1="105.51" y1="254.209" x2="134.007" y2="237.858"/>
		<line fill="none" stroke="#9EB6DF" stroke-miterlimit="10" x1="101.531" y1="278.121" x2="167.699" y2="239.919"/>
		<line fill="none" stroke="#9EB6DF" stroke-miterlimit="10" x1="110.787" y1="283.675" x2="176.955" y2="245.473"/>
		<line fill="none" stroke="#9EB6DF" stroke-miterlimit="10" x1="120.047" y1="289.229" x2="186.215" y2="251.025"/>
		<line fill="none" stroke="#9EB6DF" stroke-miterlimit="10" x1="129.305" y1="294.783" x2="195.473" y2="256.58"/>
		<line fill="none" stroke="#9EB6DF" stroke-miterlimit="10" x1="138.564" y1="300.334" x2="204.73" y2="262.133"/>
		<line fill="none" stroke="#9EB6DF" stroke-miterlimit="10" x1="147.821" y1="305.889" x2="213.988" y2="267.686"/>
		<line fill="none" stroke="#9EB6DF" stroke-miterlimit="10" x1="157.08" y1="311.442" x2="223.246" y2="273.239"/>
		<line fill="none" stroke="#9EB6DF" stroke-miterlimit="10" x1="166.338" y1="316.994" x2="232.504" y2="278.793"/>
		<line fill="none" stroke="#9EB6DF" stroke-miterlimit="10" x1="175.596" y1="322.549" x2="241.762" y2="284.348"/>
		<line fill="none" stroke="#9EB6DF" stroke-miterlimit="10" x1="184.854" y1="328.103" x2="251.02" y2="289.9"/>
		<line fill="none" stroke="#9EB6DF" stroke-miterlimit="10" x1="194.111" y1="333.654" x2="260.279" y2="295.453"/>
		<polygon fill="#9EB6DF" points="271.462,279.36 271.462,307.469 295.917,293.35 		"/>
		<polygon fill="#9EB6DF" points="247.006,292.316 271.462,306.438 271.462,307.469 247.006,293.35 		"/>
		<polygon fill="#DFEBFC" points="271.462,278.328 271.462,306.438 247.006,292.316 		"/>
	</g>
	<g>
		<polygon fill="#B6CBEA" points="201.519,347.852 62.533,267.936 62.55,270.994 201.519,351.015 201.521,351.015 201.521,347.85 		
			"/>
		<polygon fill="#9EB6DF" points="295.917,293.35 201.521,347.85 201.521,351.015 295.917,296.514 		"/>
	</g>
</g>
<g>
	<g>
		<polygon fill="#FFFFFF" points="157.855,209.735 62.533,264.771 201.519,344.685 271.462,304.303 271.462,274.721 		"/>
		<line fill="none" stroke="#9EB6DF" stroke-miterlimit="10" x1="105.51" y1="251.043" x2="134.007" y2="234.693"/>
		<line fill="none" stroke="#9EB6DF" stroke-miterlimit="10" x1="101.531" y1="274.955" x2="167.699" y2="236.753"/>
		<line fill="none" stroke="#9EB6DF" stroke-miterlimit="10" x1="110.787" y1="280.51" x2="176.955" y2="242.307"/>
		<line fill="none" stroke="#9EB6DF" stroke-miterlimit="10" x1="120.047" y1="286.064" x2="186.215" y2="247.861"/>
		<line fill="none" stroke="#9EB6DF" stroke-miterlimit="10" x1="129.305" y1="291.617" x2="195.473" y2="253.414"/>
		<line fill="none" stroke="#9EB6DF" stroke-miterlimit="10" x1="138.564" y1="297.17" x2="204.73" y2="258.967"/>
		<line fill="none" stroke="#9EB6DF" stroke-miterlimit="10" x1="147.821" y1="302.723" x2="213.988" y2="264.52"/>
		<line fill="none" stroke="#9EB6DF" stroke-miterlimit="10" x1="157.08" y1="308.277" x2="223.246" y2="270.073"/>
		<line fill="none" stroke="#9EB6DF" stroke-miterlimit="10" x1="166.338" y1="313.83" x2="232.504" y2="275.629"/>
		<line fill="none" stroke="#9EB6DF" stroke-miterlimit="10" x1="175.596" y1="319.384" x2="241.762" y2="281.182"/>
		<line fill="none" stroke="#9EB6DF" stroke-miterlimit="10" x1="184.854" y1="324.938" x2="251.02" y2="286.734"/>
		<line fill="none" stroke="#9EB6DF" stroke-miterlimit="10" x1="194.111" y1="330.49" x2="260.279" y2="292.289"/>
		<polygon fill="#9EB6DF" points="271.462,276.194 271.462,304.303 295.917,290.184 		"/>
		<polygon fill="#9EB6DF" points="247.006,289.151 271.462,303.271 271.462,304.303 247.006,290.184 		"/>
		<polygon fill="#DFEBFC" points="271.462,275.162 271.462,303.271 247.006,289.151 		"/>
	</g>
	<g>
		<polygon fill="#B6CBEA" points="201.519,344.685 62.533,264.771 62.55,267.827 201.519,347.85 201.521,347.85 201.521,344.684 		
			"/>
		<polygon fill="#9EB6DF" points="295.917,290.184 201.521,344.684 201.521,347.85 295.917,293.348 		"/>
	</g>
</g>
<g>
	<g>
		<polygon fill="#FFFFFF" points="157.855,206.57 62.533,261.605 201.519,341.52 271.462,301.139 271.462,271.555 		"/>
		<line fill="none" stroke="#9EB6DF" stroke-miterlimit="10" x1="105.51" y1="247.877" x2="134.007" y2="231.527"/>
		<line fill="none" stroke="#9EB6DF" stroke-miterlimit="10" x1="101.531" y1="271.79" x2="167.699" y2="233.588"/>
		<line fill="none" stroke="#9EB6DF" stroke-miterlimit="10" x1="110.787" y1="277.344" x2="176.955" y2="239.141"/>
		<line fill="none" stroke="#9EB6DF" stroke-miterlimit="10" x1="120.047" y1="282.898" x2="186.215" y2="244.695"/>
		<line fill="none" stroke="#9EB6DF" stroke-miterlimit="10" x1="129.305" y1="288.451" x2="195.473" y2="250.248"/>
		<line fill="none" stroke="#9EB6DF" stroke-miterlimit="10" x1="138.564" y1="294.004" x2="204.73" y2="255.803"/>
		<line fill="none" stroke="#9EB6DF" stroke-miterlimit="10" x1="147.821" y1="299.557" x2="213.988" y2="261.354"/>
		<line fill="none" stroke="#9EB6DF" stroke-miterlimit="10" x1="157.08" y1="305.111" x2="223.246" y2="266.908"/>
		<line fill="none" stroke="#9EB6DF" stroke-miterlimit="10" x1="166.338" y1="310.664" x2="232.504" y2="272.463"/>
		<line fill="none" stroke="#9EB6DF" stroke-miterlimit="10" x1="175.596" y1="316.218" x2="241.762" y2="278.017"/>
		<line fill="none" stroke="#9EB6DF" stroke-miterlimit="10" x1="184.854" y1="321.771" x2="251.02" y2="283.568"/>
		<line fill="none" stroke="#9EB6DF" stroke-miterlimit="10" x1="194.111" y1="327.324" x2="260.279" y2="289.122"/>
		<polygon fill="#9EB6DF" points="271.462,273.029 271.462,301.139 295.917,287.018 		"/>
		<polygon fill="#9EB6DF" points="247.006,285.984 271.462,300.105 271.462,301.139 247.006,287.018 		"/>
		<polygon fill="#DFEBFC" points="271.462,271.997 271.462,300.105 247.006,285.984 		"/>
	</g>
	<g>
		<polygon fill="#B6CBEA" points="201.519,341.52 62.533,261.605 62.55,264.662 201.519,344.684 201.521,344.684 201.521,341.518 		
			"/>
		<polygon fill="#9EB6DF" points="295.917,287.018 201.521,341.518 201.521,344.684 295.917,290.183 		"/>
	</g>
</g>
<g>
	<g>
		<polygon fill="#FFFFFF" points="157.855,257.221 62.533,312.256 201.519,392.17 271.462,351.788 271.462,322.207 		"/>
		<line fill="none" stroke="#9EB6DF" stroke-miterlimit="10" x1="105.51" y1="298.527" x2="134.007" y2="282.178"/>
		<line fill="none" stroke="#9EB6DF" stroke-miterlimit="10" x1="101.531" y1="322.439" x2="167.699" y2="284.238"/>
		<line fill="none" stroke="#9EB6DF" stroke-miterlimit="10" x1="110.787" y1="327.992" x2="176.955" y2="289.791"/>
		<line fill="none" stroke="#9EB6DF" stroke-miterlimit="10" x1="120.047" y1="333.549" x2="186.215" y2="295.346"/>
		<line fill="none" stroke="#9EB6DF" stroke-miterlimit="10" x1="129.305" y1="339.102" x2="195.473" y2="300.899"/>
		<line fill="none" stroke="#9EB6DF" stroke-miterlimit="10" x1="138.564" y1="344.653" x2="204.73" y2="306.452"/>
		<line fill="none" stroke="#9EB6DF" stroke-miterlimit="10" x1="147.821" y1="350.207" x2="213.988" y2="312.004"/>
		<line fill="none" stroke="#9EB6DF" stroke-miterlimit="10" x1="157.08" y1="355.76" x2="223.246" y2="317.557"/>
		<line fill="none" stroke="#9EB6DF" stroke-miterlimit="10" x1="166.338" y1="361.314" x2="232.504" y2="323.113"/>
		<line fill="none" stroke="#9EB6DF" stroke-miterlimit="10" x1="175.596" y1="366.867" x2="241.762" y2="328.666"/>
		<line fill="none" stroke="#9EB6DF" stroke-miterlimit="10" x1="184.854" y1="372.421" x2="251.02" y2="334.219"/>
		<line fill="none" stroke="#9EB6DF" stroke-miterlimit="10" x1="194.111" y1="377.974" x2="260.279" y2="339.772"/>
		<polygon fill="#9EB6DF" points="271.462,323.679 271.462,351.788 295.917,337.667 		"/>
		<polygon fill="#9EB6DF" points="247.006,336.635 271.462,350.755 271.462,351.788 247.006,337.667 		"/>
		<polygon fill="#DFEBFC" points="271.462,322.646 271.462,350.755 247.006,336.635 		"/>
	</g>
	<g>
		<polygon fill="#B6CBEA" points="201.519,392.17 62.533,312.256 62.55,315.313 201.519,395.333 201.521,395.333 201.521,392.168 		
			"/>
		<polygon fill="#9EB6DF" points="295.917,337.667 201.521,392.168 201.521,395.333 295.917,340.832 		"/>
	</g>
</g>
<g>
	<g>
		<polygon fill="#FFFFFF" points="157.855,254.054 62.533,309.089 201.519,389.004 271.462,348.622 271.462,319.041 		"/>
		<line fill="none" stroke="#9EB6DF" stroke-miterlimit="10" x1="105.51" y1="295.361" x2="134.007" y2="279.012"/>
		<line fill="none" stroke="#9EB6DF" stroke-miterlimit="10" x1="101.531" y1="319.273" x2="167.699" y2="281.072"/>
		<line fill="none" stroke="#9EB6DF" stroke-miterlimit="10" x1="110.787" y1="324.828" x2="176.955" y2="286.625"/>
		<line fill="none" stroke="#9EB6DF" stroke-miterlimit="10" x1="120.047" y1="330.383" x2="186.215" y2="292.18"/>
		<line fill="none" stroke="#9EB6DF" stroke-miterlimit="10" x1="129.305" y1="335.936" x2="195.473" y2="297.733"/>
		<line fill="none" stroke="#9EB6DF" stroke-miterlimit="10" x1="138.564" y1="341.488" x2="204.73" y2="303.286"/>
		<line fill="none" stroke="#9EB6DF" stroke-miterlimit="10" x1="147.821" y1="347.041" x2="213.988" y2="308.838"/>
		<line fill="none" stroke="#9EB6DF" stroke-miterlimit="10" x1="157.08" y1="352.596" x2="223.246" y2="314.393"/>
		<line fill="none" stroke="#9EB6DF" stroke-miterlimit="10" x1="166.338" y1="358.148" x2="232.504" y2="319.947"/>
		<line fill="none" stroke="#9EB6DF" stroke-miterlimit="10" x1="175.596" y1="363.703" x2="241.762" y2="325.5"/>
		<line fill="none" stroke="#9EB6DF" stroke-miterlimit="10" x1="184.854" y1="369.256" x2="251.02" y2="331.053"/>
		<line fill="none" stroke="#9EB6DF" stroke-miterlimit="10" x1="194.111" y1="374.809" x2="260.279" y2="336.606"/>
		<polygon fill="#9EB6DF" points="271.462,320.514 271.462,348.622 295.917,334.503 		"/>
		<polygon fill="#9EB6DF" points="247.006,333.47 271.462,347.589 271.462,348.622 247.006,334.503 		"/>
		<polygon fill="#DFEBFC" points="271.462,319.48 271.462,347.589 247.006,333.47 		"/>
	</g>
	<g>
		<polygon fill="#B6CBEA" points="201.519,389.004 62.533,309.089 62.55,312.146 201.519,392.168 201.521,392.168 201.521,389.002 
					"/>
		<polygon fill="#9EB6DF" points="295.917,334.503 201.521,389.002 201.521,392.168 295.917,337.666 		"/>
	</g>
</g>
<g>
	<g>
		<polygon fill="#FFFFFF" points="157.855,250.889 62.533,305.924 201.519,385.838 271.462,345.457 271.462,315.875 		"/>
		<line fill="none" stroke="#9EB6DF" stroke-miterlimit="10" x1="105.51" y1="292.195" x2="134.007" y2="275.847"/>
		<line fill="none" stroke="#9EB6DF" stroke-miterlimit="10" x1="101.531" y1="316.108" x2="167.699" y2="277.906"/>
		<line fill="none" stroke="#9EB6DF" stroke-miterlimit="10" x1="110.787" y1="321.662" x2="176.955" y2="283.459"/>
		<line fill="none" stroke="#9EB6DF" stroke-miterlimit="10" x1="120.047" y1="327.217" x2="186.215" y2="289.014"/>
		<line fill="none" stroke="#9EB6DF" stroke-miterlimit="10" x1="129.305" y1="332.77" x2="195.473" y2="294.568"/>
		<line fill="none" stroke="#9EB6DF" stroke-miterlimit="10" x1="138.564" y1="338.322" x2="204.73" y2="300.121"/>
		<line fill="none" stroke="#9EB6DF" stroke-miterlimit="10" x1="147.821" y1="343.875" x2="213.988" y2="305.674"/>
		<line fill="none" stroke="#9EB6DF" stroke-miterlimit="10" x1="157.08" y1="349.43" x2="223.246" y2="311.227"/>
		<line fill="none" stroke="#9EB6DF" stroke-miterlimit="10" x1="166.338" y1="354.982" x2="232.504" y2="316.781"/>
		<line fill="none" stroke="#9EB6DF" stroke-miterlimit="10" x1="175.596" y1="360.537" x2="241.762" y2="322.334"/>
		<line fill="none" stroke="#9EB6DF" stroke-miterlimit="10" x1="184.854" y1="366.09" x2="251.02" y2="327.888"/>
		<line fill="none" stroke="#9EB6DF" stroke-miterlimit="10" x1="194.111" y1="371.643" x2="260.279" y2="333.441"/>
		<polygon fill="#9EB6DF" points="271.462,317.348 271.462,345.457 295.917,331.336 		"/>
		<polygon fill="#9EB6DF" points="247.006,330.305 271.462,344.424 271.462,345.457 247.006,331.336 		"/>
		<polygon fill="#DFEBFC" points="271.462,316.314 271.462,344.424 247.006,330.305 		"/>
	</g>
	<g>
		<polygon fill="#B6CBEA" points="201.519,385.838 62.533,305.924 62.55,308.982 201.519,389.002 201.521,389.002 201.521,385.836 
					"/>
		<polygon fill="#9EB6DF" points="295.917,331.336 201.521,385.836 201.521,389.002 295.917,334.501 		"/>
	</g>
</g>
<g>
	<g>
		<polygon fill="#FFFFFF" points="157.855,247.723 62.533,302.758 201.519,382.672 271.462,342.291 271.462,312.709 		"/>
		<line fill="none" stroke="#9EB6DF" stroke-miterlimit="10" x1="105.51" y1="289.031" x2="134.007" y2="272.682"/>
		<line fill="none" stroke="#9EB6DF" stroke-miterlimit="10" x1="101.531" y1="312.943" x2="167.699" y2="274.74"/>
		<line fill="none" stroke="#9EB6DF" stroke-miterlimit="10" x1="110.787" y1="318.496" x2="176.955" y2="280.294"/>
		<line fill="none" stroke="#9EB6DF" stroke-miterlimit="10" x1="120.047" y1="324.052" x2="186.215" y2="285.848"/>
		<line fill="none" stroke="#9EB6DF" stroke-miterlimit="10" x1="129.305" y1="329.604" x2="195.473" y2="291.402"/>
		<line fill="none" stroke="#9EB6DF" stroke-miterlimit="10" x1="138.564" y1="335.156" x2="204.73" y2="296.955"/>
		<line fill="none" stroke="#9EB6DF" stroke-miterlimit="10" x1="147.821" y1="340.709" x2="213.988" y2="302.508"/>
		<line fill="none" stroke="#9EB6DF" stroke-miterlimit="10" x1="157.08" y1="346.264" x2="223.246" y2="308.061"/>
		<line fill="none" stroke="#9EB6DF" stroke-miterlimit="10" x1="166.338" y1="351.818" x2="232.504" y2="313.615"/>
		<line fill="none" stroke="#9EB6DF" stroke-miterlimit="10" x1="175.596" y1="357.372" x2="241.762" y2="319.168"/>
		<line fill="none" stroke="#9EB6DF" stroke-miterlimit="10" x1="184.854" y1="362.926" x2="251.02" y2="324.723"/>
		<line fill="none" stroke="#9EB6DF" stroke-miterlimit="10" x1="194.111" y1="368.477" x2="260.279" y2="330.275"/>
		<polygon fill="#9EB6DF" points="271.462,314.182 271.462,342.291 295.917,328.17 		"/>
		<polygon fill="#9EB6DF" points="247.006,327.139 271.462,341.258 271.462,342.291 247.006,328.17 		"/>
		<polygon fill="#DFEBFC" points="271.462,313.149 271.462,341.258 247.006,327.139 		"/>
	</g>
	<g>
		<polygon fill="#B6CBEA" points="201.519,382.672 62.533,302.758 62.55,305.815 201.519,385.836 201.521,385.836 201.521,382.67 		
			"/>
		<polygon fill="#9EB6DF" points="295.917,328.17 201.521,382.67 201.521,385.836 295.917,331.335 		"/>
	</g>
</g>
<g>
	<g>
		<polygon fill="#FFFFFF" points="157.855,244.557 62.533,299.592 201.519,379.506 271.462,339.125 271.462,309.543 		"/>
		<line fill="none" stroke="#9EB6DF" stroke-miterlimit="10" x1="105.51" y1="285.865" x2="134.007" y2="269.516"/>
		<line fill="none" stroke="#9EB6DF" stroke-miterlimit="10" x1="101.531" y1="309.777" x2="167.699" y2="271.576"/>
		<line fill="none" stroke="#9EB6DF" stroke-miterlimit="10" x1="110.787" y1="315.33" x2="176.955" y2="277.129"/>
		<line fill="none" stroke="#9EB6DF" stroke-miterlimit="10" x1="120.047" y1="320.886" x2="186.215" y2="282.683"/>
		<line fill="none" stroke="#9EB6DF" stroke-miterlimit="10" x1="129.305" y1="326.438" x2="195.473" y2="288.236"/>
		<line fill="none" stroke="#9EB6DF" stroke-miterlimit="10" x1="138.564" y1="331.99" x2="204.73" y2="293.789"/>
		<line fill="none" stroke="#9EB6DF" stroke-miterlimit="10" x1="147.821" y1="337.544" x2="213.988" y2="299.342"/>
		<line fill="none" stroke="#9EB6DF" stroke-miterlimit="10" x1="157.08" y1="343.098" x2="223.246" y2="304.895"/>
		<line fill="none" stroke="#9EB6DF" stroke-miterlimit="10" x1="166.338" y1="348.652" x2="232.504" y2="310.45"/>
		<line fill="none" stroke="#9EB6DF" stroke-miterlimit="10" x1="175.596" y1="354.206" x2="241.762" y2="316.003"/>
		<line fill="none" stroke="#9EB6DF" stroke-miterlimit="10" x1="184.854" y1="359.758" x2="251.02" y2="321.557"/>
		<line fill="none" stroke="#9EB6DF" stroke-miterlimit="10" x1="194.111" y1="365.311" x2="260.279" y2="327.109"/>
		<polygon fill="#9EB6DF" points="271.462,311.016 271.462,339.125 295.917,325.004 		"/>
		<polygon fill="#9EB6DF" points="247.006,323.973 271.462,338.094 271.462,339.125 247.006,325.004 		"/>
		<polygon fill="#DFEBFC" points="271.462,309.984 271.462,338.094 247.006,323.973 		"/>
	</g>
	<g>
		<polygon fill="#B6CBEA" points="201.519,379.506 62.533,299.592 62.55,302.651 201.519,382.67 201.521,382.67 201.521,379.504 		
			"/>
		<polygon fill="#9EB6DF" points="295.917,325.004 201.521,379.504 201.521,382.67 295.917,328.17 		"/>
	</g>
</g>
<g>
	<g>
		<polygon fill="#FFFFFF" points="157.855,241.391 62.533,296.426 201.519,376.341 271.462,335.959 271.462,306.378 		"/>
		<line fill="none" stroke="#9EB6DF" stroke-miterlimit="10" x1="105.51" y1="282.699" x2="134.007" y2="266.35"/>
		<line fill="none" stroke="#9EB6DF" stroke-miterlimit="10" x1="101.531" y1="306.611" x2="167.699" y2="268.409"/>
		<line fill="none" stroke="#9EB6DF" stroke-miterlimit="10" x1="110.787" y1="312.164" x2="176.955" y2="273.963"/>
		<line fill="none" stroke="#9EB6DF" stroke-miterlimit="10" x1="120.047" y1="317.721" x2="186.215" y2="279.517"/>
		<line fill="none" stroke="#9EB6DF" stroke-miterlimit="10" x1="129.305" y1="323.273" x2="195.473" y2="285.07"/>
		<line fill="none" stroke="#9EB6DF" stroke-miterlimit="10" x1="138.564" y1="328.824" x2="204.73" y2="290.623"/>
		<line fill="none" stroke="#9EB6DF" stroke-miterlimit="10" x1="147.821" y1="334.379" x2="213.988" y2="296.176"/>
		<line fill="none" stroke="#9EB6DF" stroke-miterlimit="10" x1="157.08" y1="339.934" x2="223.246" y2="301.729"/>
		<line fill="none" stroke="#9EB6DF" stroke-miterlimit="10" x1="166.338" y1="345.486" x2="232.504" y2="307.285"/>
		<line fill="none" stroke="#9EB6DF" stroke-miterlimit="10" x1="175.596" y1="351.041" x2="241.762" y2="312.838"/>
		<line fill="none" stroke="#9EB6DF" stroke-miterlimit="10" x1="184.854" y1="356.594" x2="251.02" y2="318.393"/>
		<line fill="none" stroke="#9EB6DF" stroke-miterlimit="10" x1="194.111" y1="362.145" x2="260.279" y2="323.943"/>
		<polygon fill="#9EB6DF" points="271.462,307.85 271.462,335.959 295.917,321.84 		"/>
		<polygon fill="#9EB6DF" points="247.006,320.807 271.462,334.928 271.462,335.959 247.006,321.84 		"/>
		<polygon fill="#DFEBFC" points="271.462,306.818 271.462,334.928 247.006,320.807 		"/>
	</g>
	<g>
		<polygon fill="#B6CBEA" points="201.519,376.341 62.533,296.426 62.55,299.484 201.519,379.504 201.521,379.504 201.521,376.339 
					"/>
		<polygon fill="#9EB6DF" points="295.917,321.84 201.521,376.339 201.521,379.504 295.917,325.004 		"/>
	</g>
</g>
<g>
	<g>
		<polygon fill="#FFFFFF" points="157.855,238.227 62.533,293.262 201.519,373.176 271.462,332.794 271.462,303.213 		"/>
		<line fill="none" stroke="#9EB6DF" stroke-miterlimit="10" x1="105.51" y1="279.533" x2="134.007" y2="263.184"/>
		<line fill="none" stroke="#9EB6DF" stroke-miterlimit="10" x1="101.531" y1="303.445" x2="167.699" y2="265.244"/>
		<line fill="none" stroke="#9EB6DF" stroke-miterlimit="10" x1="110.787" y1="308.999" x2="176.955" y2="270.797"/>
		<line fill="none" stroke="#9EB6DF" stroke-miterlimit="10" x1="120.047" y1="314.555" x2="186.215" y2="276.352"/>
		<line fill="none" stroke="#9EB6DF" stroke-miterlimit="10" x1="129.305" y1="320.107" x2="195.473" y2="281.905"/>
		<line fill="none" stroke="#9EB6DF" stroke-miterlimit="10" x1="138.564" y1="325.659" x2="204.73" y2="287.458"/>
		<line fill="none" stroke="#9EB6DF" stroke-miterlimit="10" x1="147.821" y1="331.213" x2="213.988" y2="293.01"/>
		<line fill="none" stroke="#9EB6DF" stroke-miterlimit="10" x1="157.08" y1="336.768" x2="223.246" y2="298.564"/>
		<line fill="none" stroke="#9EB6DF" stroke-miterlimit="10" x1="166.338" y1="342.32" x2="232.504" y2="304.119"/>
		<line fill="none" stroke="#9EB6DF" stroke-miterlimit="10" x1="175.596" y1="347.875" x2="241.762" y2="309.672"/>
		<line fill="none" stroke="#9EB6DF" stroke-miterlimit="10" x1="184.854" y1="353.427" x2="251.02" y2="315.226"/>
		<line fill="none" stroke="#9EB6DF" stroke-miterlimit="10" x1="194.111" y1="358.979" x2="260.279" y2="320.778"/>
		<polygon fill="#9EB6DF" points="271.462,304.685 271.462,332.794 295.917,318.673 		"/>
		<polygon fill="#9EB6DF" points="247.006,317.643 271.462,331.762 271.462,332.794 247.006,318.673 		"/>
		<polygon fill="#DFEBFC" points="271.462,303.652 271.462,331.762 247.006,317.643 		"/>
	</g>
	<g>
		<polygon fill="#B6CBEA" points="201.519,373.176 62.533,293.262 62.55,296.318 201.519,376.339 201.521,376.339 201.521,373.174 
					"/>
		<polygon fill="#9EB6DF" points="295.917,318.673 201.521,373.174 201.521,376.339 295.917,321.84 		"/>
	</g>
</g>
<g>
	<g>
		<polygon fill="#FFFFFF" points="157.855,235.06 62.533,290.095 201.519,370.01 271.462,329.628 271.462,300.047 		"/>
		<line fill="none" stroke="#9EB6DF" stroke-miterlimit="10" x1="105.51" y1="276.368" x2="134.007" y2="260.018"/>
		<line fill="none" stroke="#9EB6DF" stroke-miterlimit="10" x1="101.531" y1="300.279" x2="167.699" y2="262.078"/>
		<line fill="none" stroke="#9EB6DF" stroke-miterlimit="10" x1="110.787" y1="305.834" x2="176.955" y2="267.631"/>
		<line fill="none" stroke="#9EB6DF" stroke-miterlimit="10" x1="120.047" y1="311.389" x2="186.215" y2="273.186"/>
		<line fill="none" stroke="#9EB6DF" stroke-miterlimit="10" x1="129.305" y1="316.942" x2="195.473" y2="278.739"/>
		<line fill="none" stroke="#9EB6DF" stroke-miterlimit="10" x1="138.564" y1="322.494" x2="204.73" y2="284.292"/>
		<line fill="none" stroke="#9EB6DF" stroke-miterlimit="10" x1="147.821" y1="328.049" x2="213.988" y2="289.844"/>
		<line fill="none" stroke="#9EB6DF" stroke-miterlimit="10" x1="157.08" y1="333.602" x2="223.246" y2="295.398"/>
		<line fill="none" stroke="#9EB6DF" stroke-miterlimit="10" x1="166.338" y1="339.155" x2="232.504" y2="300.953"/>
		<line fill="none" stroke="#9EB6DF" stroke-miterlimit="10" x1="175.596" y1="344.709" x2="241.762" y2="306.508"/>
		<line fill="none" stroke="#9EB6DF" stroke-miterlimit="10" x1="184.854" y1="350.262" x2="251.02" y2="312.061"/>
		<line fill="none" stroke="#9EB6DF" stroke-miterlimit="10" x1="194.111" y1="355.814" x2="260.279" y2="317.612"/>
		<polygon fill="#9EB6DF" points="271.462,301.52 271.462,329.628 295.917,315.509 		"/>
		<polygon fill="#9EB6DF" points="247.006,314.477 271.462,328.596 271.462,329.628 247.006,315.509 		"/>
		<polygon fill="#DFEBFC" points="271.462,300.486 271.462,328.596 247.006,314.477 		"/>
	</g>
	<g>
		<polygon fill="#B6CBEA" points="201.519,370.01 62.533,290.095 62.55,293.152 201.519,373.174 201.521,373.174 201.521,370.009 		
			"/>
		<polygon fill="#9EB6DF" points="295.917,315.509 201.521,370.009 201.521,373.174 295.917,318.673 		"/>
	</g>
</g>
<g>
	<g>
		<polygon fill="#FFFFFF" points="157.855,231.895 62.533,286.93 201.519,366.846 271.462,326.463 271.462,296.881 		"/>
		<line fill="none" stroke="#9EB6DF" stroke-miterlimit="10" x1="105.51" y1="273.203" x2="134.007" y2="256.853"/>
		<line fill="none" stroke="#9EB6DF" stroke-miterlimit="10" x1="101.531" y1="297.114" x2="167.699" y2="258.913"/>
		<line fill="none" stroke="#9EB6DF" stroke-miterlimit="10" x1="110.787" y1="302.668" x2="176.955" y2="264.465"/>
		<line fill="none" stroke="#9EB6DF" stroke-miterlimit="10" x1="120.047" y1="308.223" x2="186.215" y2="270.02"/>
		<line fill="none" stroke="#9EB6DF" stroke-miterlimit="10" x1="129.305" y1="313.776" x2="195.473" y2="275.574"/>
		<line fill="none" stroke="#9EB6DF" stroke-miterlimit="10" x1="138.564" y1="319.328" x2="204.73" y2="281.128"/>
		<line fill="none" stroke="#9EB6DF" stroke-miterlimit="10" x1="147.821" y1="324.883" x2="213.988" y2="286.68"/>
		<line fill="none" stroke="#9EB6DF" stroke-miterlimit="10" x1="157.08" y1="330.436" x2="223.246" y2="292.232"/>
		<line fill="none" stroke="#9EB6DF" stroke-miterlimit="10" x1="166.338" y1="335.988" x2="232.504" y2="297.787"/>
		<line fill="none" stroke="#9EB6DF" stroke-miterlimit="10" x1="175.596" y1="341.543" x2="241.762" y2="303.341"/>
		<line fill="none" stroke="#9EB6DF" stroke-miterlimit="10" x1="184.854" y1="347.097" x2="251.02" y2="308.895"/>
		<line fill="none" stroke="#9EB6DF" stroke-miterlimit="10" x1="194.111" y1="352.648" x2="260.279" y2="314.447"/>
		<polygon fill="#9EB6DF" points="271.462,298.354 271.462,326.463 295.917,312.344 		"/>
		<polygon fill="#9EB6DF" points="247.006,311.311 271.462,325.43 271.462,326.463 247.006,312.344 		"/>
		<polygon fill="#DFEBFC" points="271.462,297.321 271.462,325.43 247.006,311.311 		"/>
	</g>
	<g>
		<polygon fill="#B6CBEA" points="201.519,366.846 62.533,286.93 62.55,289.987 201.519,370.009 201.521,370.009 201.521,366.844 		
			"/>
		<polygon fill="#9EB6DF" points="295.917,312.344 201.521,366.844 201.521,370.009 295.917,315.508 		"/>
	</g>
</g>
<g>
	<g>
		<polygon fill="#FFFFFF" points="157.855,228.729 62.533,283.764 201.519,363.679 271.462,323.297 271.462,293.715 		"/>
		<line fill="none" stroke="#9EB6DF" stroke-miterlimit="10" x1="105.51" y1="270.037" x2="134.007" y2="253.688"/>
		<line fill="none" stroke="#9EB6DF" stroke-miterlimit="10" x1="101.531" y1="293.949" x2="167.699" y2="255.747"/>
		<line fill="none" stroke="#9EB6DF" stroke-miterlimit="10" x1="110.787" y1="299.503" x2="176.955" y2="261.3"/>
		<line fill="none" stroke="#9EB6DF" stroke-miterlimit="10" x1="120.047" y1="305.058" x2="186.215" y2="266.854"/>
		<line fill="none" stroke="#9EB6DF" stroke-miterlimit="10" x1="129.305" y1="310.611" x2="195.473" y2="272.408"/>
		<line fill="none" stroke="#9EB6DF" stroke-miterlimit="10" x1="138.564" y1="316.164" x2="204.73" y2="277.961"/>
		<line fill="none" stroke="#9EB6DF" stroke-miterlimit="10" x1="147.821" y1="321.717" x2="213.988" y2="283.514"/>
		<line fill="none" stroke="#9EB6DF" stroke-miterlimit="10" x1="157.08" y1="327.271" x2="223.246" y2="289.067"/>
		<line fill="none" stroke="#9EB6DF" stroke-miterlimit="10" x1="166.338" y1="332.824" x2="232.504" y2="294.623"/>
		<line fill="none" stroke="#9EB6DF" stroke-miterlimit="10" x1="175.596" y1="338.378" x2="241.762" y2="300.176"/>
		<line fill="none" stroke="#9EB6DF" stroke-miterlimit="10" x1="184.854" y1="343.932" x2="251.02" y2="305.729"/>
		<line fill="none" stroke="#9EB6DF" stroke-miterlimit="10" x1="194.111" y1="349.482" x2="260.279" y2="311.281"/>
		<polygon fill="#9EB6DF" points="271.462,295.188 271.462,323.297 295.917,309.178 		"/>
		<polygon fill="#9EB6DF" points="247.006,308.145 271.462,322.265 271.462,323.297 247.006,309.178 		"/>
		<polygon fill="#DFEBFC" points="271.462,294.155 271.462,322.265 247.006,308.145 		"/>
	</g>
	<g>
		<polygon fill="#B6CBEA" points="201.519,363.679 62.533,283.764 62.55,286.821 201.519,366.844 201.521,366.844 201.521,363.678 
					"/>
		<polygon fill="#9EB6DF" points="295.917,309.178 201.521,363.678 201.521,366.844 295.917,312.342 		"/>
	</g>
</g>
<g>
	<g>
		<polygon fill="#FFFFFF" points="157.855,225.564 62.533,280.6 201.519,360.514 271.462,320.131 271.462,290.549 		"/>
		<line fill="none" stroke="#9EB6DF" stroke-miterlimit="10" x1="105.51" y1="266.871" x2="134.007" y2="250.521"/>
		<line fill="none" stroke="#9EB6DF" stroke-miterlimit="10" x1="101.531" y1="290.783" x2="167.699" y2="252.582"/>
		<line fill="none" stroke="#9EB6DF" stroke-miterlimit="10" x1="110.787" y1="296.338" x2="176.955" y2="258.135"/>
		<line fill="none" stroke="#9EB6DF" stroke-miterlimit="10" x1="120.047" y1="301.892" x2="186.215" y2="263.688"/>
		<line fill="none" stroke="#9EB6DF" stroke-miterlimit="10" x1="129.305" y1="307.445" x2="195.473" y2="269.242"/>
		<line fill="none" stroke="#9EB6DF" stroke-miterlimit="10" x1="138.564" y1="312.998" x2="204.73" y2="274.796"/>
		<line fill="none" stroke="#9EB6DF" stroke-miterlimit="10" x1="147.821" y1="318.551" x2="213.988" y2="280.348"/>
		<line fill="none" stroke="#9EB6DF" stroke-miterlimit="10" x1="157.08" y1="324.105" x2="223.246" y2="285.902"/>
		<line fill="none" stroke="#9EB6DF" stroke-miterlimit="10" x1="166.338" y1="329.658" x2="232.504" y2="291.456"/>
		<line fill="none" stroke="#9EB6DF" stroke-miterlimit="10" x1="175.596" y1="335.212" x2="241.762" y2="297.01"/>
		<line fill="none" stroke="#9EB6DF" stroke-miterlimit="10" x1="184.854" y1="340.766" x2="251.02" y2="302.563"/>
		<line fill="none" stroke="#9EB6DF" stroke-miterlimit="10" x1="194.111" y1="346.316" x2="260.279" y2="308.116"/>
		<polygon fill="#9EB6DF" points="271.462,292.021 271.462,320.131 295.917,306.012 		"/>
		<polygon fill="#9EB6DF" points="247.006,304.979 271.462,319.1 271.462,320.131 247.006,306.012 		"/>
		<polygon fill="#DFEBFC" points="271.462,290.99 271.462,319.1 247.006,304.979 		"/>
	</g>
	<g>
		<polygon fill="#B6CBEA" points="201.519,360.514 62.533,280.6 62.55,283.656 201.519,363.678 201.521,363.678 201.521,360.512 		
			"/>
		<polygon fill="#9EB6DF" points="295.917,306.012 201.521,360.512 201.521,363.678 295.917,309.176 		"/>
	</g>
</g>
<g>
	<g>
		<polygon fill="#FFFFFF" points="157.855,222.398 62.533,277.434 201.519,357.348 271.462,316.965 271.462,287.384 		"/>
		<line fill="none" stroke="#9EB6DF" stroke-miterlimit="10" x1="105.51" y1="263.706" x2="134.007" y2="247.355"/>
		<line fill="none" stroke="#9EB6DF" stroke-miterlimit="10" x1="101.531" y1="287.617" x2="167.699" y2="249.416"/>
		<line fill="none" stroke="#9EB6DF" stroke-miterlimit="10" x1="110.787" y1="293.172" x2="176.955" y2="254.969"/>
		<line fill="none" stroke="#9EB6DF" stroke-miterlimit="10" x1="120.047" y1="298.727" x2="186.215" y2="260.522"/>
		<line fill="none" stroke="#9EB6DF" stroke-miterlimit="10" x1="129.305" y1="304.279" x2="195.473" y2="266.076"/>
		<line fill="none" stroke="#9EB6DF" stroke-miterlimit="10" x1="138.564" y1="309.832" x2="204.73" y2="271.631"/>
		<line fill="none" stroke="#9EB6DF" stroke-miterlimit="10" x1="147.821" y1="315.386" x2="213.988" y2="277.183"/>
		<line fill="none" stroke="#9EB6DF" stroke-miterlimit="10" x1="157.08" y1="320.939" x2="223.246" y2="282.736"/>
		<line fill="none" stroke="#9EB6DF" stroke-miterlimit="10" x1="166.338" y1="326.492" x2="232.504" y2="288.291"/>
		<line fill="none" stroke="#9EB6DF" stroke-miterlimit="10" x1="175.596" y1="332.047" x2="241.762" y2="293.844"/>
		<line fill="none" stroke="#9EB6DF" stroke-miterlimit="10" x1="184.854" y1="337.6" x2="251.02" y2="299.398"/>
		<line fill="none" stroke="#9EB6DF" stroke-miterlimit="10" x1="194.111" y1="343.152" x2="260.279" y2="304.951"/>
		<polygon fill="#9EB6DF" points="271.462,288.855 271.462,316.965 295.917,302.846 		"/>
		<polygon fill="#9EB6DF" points="247.006,301.814 271.462,315.934 271.462,316.965 247.006,302.846 		"/>
		<polygon fill="#DFEBFC" points="271.462,287.824 271.462,315.934 247.006,301.814 		"/>
	</g>
	<g>
		<polygon fill="#B6CBEA" points="201.519,357.348 62.533,277.434 62.55,280.49 201.519,360.512 201.521,360.512 201.521,357.346 		
			"/>
		<polygon fill="#9EB6DF" points="295.917,302.846 201.521,357.346 201.521,360.512 295.917,306.01 		"/>
	</g>
</g>
<g>
	<g>
		<polygon fill="#FFFFFF" points="157.855,219.232 62.533,274.268 201.519,354.182 271.462,313.801 271.462,284.219 		"/>
		<line fill="none" stroke="#9EB6DF" stroke-miterlimit="10" x1="105.51" y1="260.541" x2="134.007" y2="244.189"/>
		<line fill="none" stroke="#9EB6DF" stroke-miterlimit="10" x1="101.531" y1="284.453" x2="167.699" y2="246.25"/>
		<line fill="none" stroke="#9EB6DF" stroke-miterlimit="10" x1="110.787" y1="290.006" x2="176.955" y2="251.803"/>
		<line fill="none" stroke="#9EB6DF" stroke-miterlimit="10" x1="120.047" y1="295.561" x2="186.215" y2="257.357"/>
		<line fill="none" stroke="#9EB6DF" stroke-miterlimit="10" x1="129.305" y1="301.113" x2="195.473" y2="262.911"/>
		<line fill="none" stroke="#9EB6DF" stroke-miterlimit="10" x1="138.564" y1="306.666" x2="204.73" y2="268.465"/>
		<line fill="none" stroke="#9EB6DF" stroke-miterlimit="10" x1="147.821" y1="312.219" x2="213.988" y2="274.018"/>
		<line fill="none" stroke="#9EB6DF" stroke-miterlimit="10" x1="157.08" y1="317.773" x2="223.246" y2="279.57"/>
		<line fill="none" stroke="#9EB6DF" stroke-miterlimit="10" x1="166.338" y1="323.326" x2="232.504" y2="285.125"/>
		<line fill="none" stroke="#9EB6DF" stroke-miterlimit="10" x1="175.596" y1="328.881" x2="241.762" y2="290.678"/>
		<line fill="none" stroke="#9EB6DF" stroke-miterlimit="10" x1="184.854" y1="334.434" x2="251.02" y2="296.231"/>
		<line fill="none" stroke="#9EB6DF" stroke-miterlimit="10" x1="194.111" y1="339.986" x2="260.279" y2="301.785"/>
		<polygon fill="#9EB6DF" points="271.462,285.691 271.462,313.801 295.917,299.68 		"/>
		<polygon fill="#9EB6DF" points="247.006,298.648 271.462,312.769 271.462,313.801 247.006,299.68 		"/>
		<polygon fill="#DFEBFC" points="271.462,284.66 271.462,312.769 247.006,298.648 		"/>
	</g>
	<g>
		<polygon fill="#B6CBEA" points="201.519,354.182 62.533,274.268 62.55,277.326 201.519,357.346 201.521,357.346 201.521,354.18 		
			"/>
		<polygon fill="#9EB6DF" points="295.917,299.68 201.521,354.18 201.521,357.346 295.917,302.846 		"/>
	</g>
</g>
<g>
	<g>
		<polygon fill="#FFFFFF" points="157.855,216.066 62.533,271.102 201.519,351.016 271.462,310.635 271.462,281.053 		"/>
		<line fill="none" stroke="#9EB6DF" stroke-miterlimit="10" x1="105.51" y1="257.375" x2="134.007" y2="241.023"/>
		<line fill="none" stroke="#9EB6DF" stroke-miterlimit="10" x1="101.531" y1="281.287" x2="167.699" y2="243.084"/>
		<line fill="none" stroke="#9EB6DF" stroke-miterlimit="10" x1="110.787" y1="286.84" x2="176.955" y2="248.638"/>
		<line fill="none" stroke="#9EB6DF" stroke-miterlimit="10" x1="120.047" y1="292.395" x2="186.215" y2="254.191"/>
		<line fill="none" stroke="#9EB6DF" stroke-miterlimit="10" x1="129.305" y1="297.949" x2="195.473" y2="259.746"/>
		<line fill="none" stroke="#9EB6DF" stroke-miterlimit="10" x1="138.564" y1="303.501" x2="204.73" y2="265.299"/>
		<line fill="none" stroke="#9EB6DF" stroke-miterlimit="10" x1="147.821" y1="309.055" x2="213.988" y2="270.852"/>
		<line fill="none" stroke="#9EB6DF" stroke-miterlimit="10" x1="157.08" y1="314.608" x2="223.246" y2="276.404"/>
		<line fill="none" stroke="#9EB6DF" stroke-miterlimit="10" x1="166.338" y1="320.161" x2="232.504" y2="281.959"/>
		<line fill="none" stroke="#9EB6DF" stroke-miterlimit="10" x1="175.596" y1="325.715" x2="241.762" y2="287.514"/>
		<line fill="none" stroke="#9EB6DF" stroke-miterlimit="10" x1="184.854" y1="331.269" x2="251.02" y2="293.066"/>
		<line fill="none" stroke="#9EB6DF" stroke-miterlimit="10" x1="194.111" y1="336.821" x2="260.279" y2="298.619"/>
		<polygon fill="#9EB6DF" points="271.462,282.525 271.462,310.635 295.917,296.515 		"/>
		<polygon fill="#9EB6DF" points="247.006,295.482 271.462,309.603 271.462,310.635 247.006,296.515 		"/>
		<polygon fill="#DFEBFC" points="271.462,281.494 271.462,309.603 247.006,295.482 		"/>
	</g>
	<g>
		<polygon fill="#B6CBEA" points="201.519,351.016 62.533,271.102 62.55,274.158 201.519,354.18 201.521,354.18 201.521,351.015 		
			"/>
		<polygon fill="#9EB6DF" points="295.917,296.515 201.521,351.015 201.521,354.18 295.917,299.679 		"/>
	</g>
</g>
<g>
	<g>
		<polygon fill="#FFFFFF" points="157.855,212.901 62.533,267.936 201.519,347.852 271.462,307.469 271.462,277.887 		"/>
		<line fill="none" stroke="#9EB6DF" stroke-miterlimit="10" x1="105.51" y1="254.209" x2="134.007" y2="237.858"/>
		<line fill="none" stroke="#9EB6DF" stroke-miterlimit="10" x1="101.531" y1="278.121" x2="167.699" y2="239.919"/>
		<line fill="none" stroke="#9EB6DF" stroke-miterlimit="10" x1="110.787" y1="283.675" x2="176.955" y2="245.473"/>
		<line fill="none" stroke="#9EB6DF" stroke-miterlimit="10" x1="120.047" y1="289.229" x2="186.215" y2="251.025"/>
		<line fill="none" stroke="#9EB6DF" stroke-miterlimit="10" x1="129.305" y1="294.783" x2="195.473" y2="256.58"/>
		<line fill="none" stroke="#9EB6DF" stroke-miterlimit="10" x1="138.564" y1="300.334" x2="204.73" y2="262.133"/>
		<line fill="none" stroke="#9EB6DF" stroke-miterlimit="10" x1="147.821" y1="305.889" x2="213.988" y2="267.686"/>
		<line fill="none" stroke="#9EB6DF" stroke-miterlimit="10" x1="157.08" y1="311.442" x2="223.246" y2="273.239"/>
		<line fill="none" stroke="#9EB6DF" stroke-miterlimit="10" x1="166.338" y1="316.994" x2="232.504" y2="278.793"/>
		<line fill="none" stroke="#9EB6DF" stroke-miterlimit="10" x1="175.596" y1="322.549" x2="241.762" y2="284.348"/>
		<line fill="none" stroke="#9EB6DF" stroke-miterlimit="10" x1="184.854" y1="328.103" x2="251.02" y2="289.9"/>
		<line fill="none" stroke="#9EB6DF" stroke-miterlimit="10" x1="194.111" y1="333.654" x2="260.279" y2="295.453"/>
		<polygon fill="#9EB6DF" points="271.462,279.36 271.462,307.469 295.917,293.35 		"/>
		<polygon fill="#9EB6DF" points="247.006,292.316 271.462,306.438 271.462,307.469 247.006,293.35 		"/>
		<polygon fill="#DFEBFC" points="271.462,278.328 271.462,306.438 247.006,292.316 		"/>
	</g>
	<g>
		<polygon fill="#B6CBEA" points="201.519,347.852 62.533,267.936 62.55,270.994 201.519,351.015 201.521,351.015 201.521,347.85 		
			"/>
		<polygon fill="#9EB6DF" points="295.917,293.35 201.521,347.85 201.521,351.015 295.917,296.514 		"/>
	</g>
</g>
<g>
	<g>
		<polygon fill="#FFFFFF" points="157.855,209.735 62.533,264.771 201.519,344.685 271.462,304.303 271.462,274.721 		"/>
		<line fill="none" stroke="#9EB6DF" stroke-miterlimit="10" x1="105.51" y1="251.043" x2="134.007" y2="234.693"/>
		<line fill="none" stroke="#9EB6DF" stroke-miterlimit="10" x1="101.531" y1="274.955" x2="167.699" y2="236.753"/>
		<line fill="none" stroke="#9EB6DF" stroke-miterlimit="10" x1="110.787" y1="280.51" x2="176.955" y2="242.307"/>
		<line fill="none" stroke="#9EB6DF" stroke-miterlimit="10" x1="120.047" y1="286.064" x2="186.215" y2="247.861"/>
		<line fill="none" stroke="#9EB6DF" stroke-miterlimit="10" x1="129.305" y1="291.617" x2="195.473" y2="253.414"/>
		<line fill="none" stroke="#9EB6DF" stroke-miterlimit="10" x1="138.564" y1="297.17" x2="204.73" y2="258.967"/>
		<line fill="none" stroke="#9EB6DF" stroke-miterlimit="10" x1="147.821" y1="302.723" x2="213.988" y2="264.52"/>
		<line fill="none" stroke="#9EB6DF" stroke-miterlimit="10" x1="157.08" y1="308.277" x2="223.246" y2="270.073"/>
		<line fill="none" stroke="#9EB6DF" stroke-miterlimit="10" x1="166.338" y1="313.83" x2="232.504" y2="275.629"/>
		<line fill="none" stroke="#9EB6DF" stroke-miterlimit="10" x1="175.596" y1="319.384" x2="241.762" y2="281.182"/>
		<line fill="none" stroke="#9EB6DF" stroke-miterlimit="10" x1="184.854" y1="324.938" x2="251.02" y2="286.734"/>
		<line fill="none" stroke="#9EB6DF" stroke-miterlimit="10" x1="194.111" y1="330.49" x2="260.279" y2="292.289"/>
		<polygon fill="#9EB6DF" points="271.462,276.194 271.462,304.303 295.917,290.184 		"/>
		<polygon fill="#9EB6DF" points="247.006,289.151 271.462,303.271 271.462,304.303 247.006,290.184 		"/>
		<polygon fill="#DFEBFC" points="271.462,275.162 271.462,303.271 247.006,289.151 		"/>
	</g>
	<g>
		<polygon fill="#B6CBEA" points="201.519,344.685 62.533,264.771 62.55,267.827 201.519,347.85 201.521,347.85 201.521,344.684 		
			"/>
		<polygon fill="#9EB6DF" points="295.917,290.184 201.521,344.684 201.521,347.85 295.917,293.348 		"/>
	</g>
</g>
<g>
	<g>
		<polygon fill="#FFFFFF" points="157.855,206.57 62.533,261.605 201.519,341.52 271.462,301.139 271.462,271.555 		"/>
		<line fill="none" stroke="#9EB6DF" stroke-miterlimit="10" x1="105.51" y1="247.877" x2="134.007" y2="231.527"/>
		<line fill="none" stroke="#9EB6DF" stroke-miterlimit="10" x1="101.531" y1="271.79" x2="167.699" y2="233.588"/>
		<line fill="none" stroke="#9EB6DF" stroke-miterlimit="10" x1="110.787" y1="277.344" x2="176.955" y2="239.141"/>
		<line fill="none" stroke="#9EB6DF" stroke-miterlimit="10" x1="120.047" y1="282.898" x2="186.215" y2="244.695"/>
		<line fill="none" stroke="#9EB6DF" stroke-miterlimit="10" x1="129.305" y1="288.451" x2="195.473" y2="250.248"/>
		<line fill="none" stroke="#9EB6DF" stroke-miterlimit="10" x1="138.564" y1="294.004" x2="204.73" y2="255.803"/>
		<line fill="none" stroke="#9EB6DF" stroke-miterlimit="10" x1="147.821" y1="299.557" x2="213.988" y2="261.354"/>
		<line fill="none" stroke="#9EB6DF" stroke-miterlimit="10" x1="157.08" y1="305.111" x2="223.246" y2="266.908"/>
		<line fill="none" stroke="#9EB6DF" stroke-miterlimit="10" x1="166.338" y1="310.664" x2="232.504" y2="272.463"/>
		<line fill="none" stroke="#9EB6DF" stroke-miterlimit="10" x1="175.596" y1="316.218" x2="241.762" y2="278.017"/>
		<line fill="none" stroke="#9EB6DF" stroke-miterlimit="10" x1="184.854" y1="321.771" x2="251.02" y2="283.568"/>
		<line fill="none" stroke="#9EB6DF" stroke-miterlimit="10" x1="194.111" y1="327.324" x2="260.279" y2="289.122"/>
		<polygon fill="#9EB6DF" points="271.462,273.029 271.462,301.139 295.917,287.018 		"/>
		<polygon fill="#9EB6DF" points="247.006,285.984 271.462,300.105 271.462,301.139 247.006,287.018 		"/>
		<polygon fill="#DFEBFC" points="271.462,271.997 271.462,300.105 247.006,285.984 		"/>
	</g>
	<g>
		<polygon fill="#B6CBEA" points="201.519,341.52 62.533,261.605 62.55,264.662 201.519,344.684 201.521,344.684 201.521,341.518 		
			"/>
		<polygon fill="#9EB6DF" points="295.917,287.018 201.521,341.518 201.521,344.684 295.917,290.183 		"/>
	</g>
</g>
<polygon fill="#E8EFF9" points="287.884,202.895 465.691,306.224 434.376,324.421 256.571,221.094 "/>
<g>
	<g>
		<g enable-background="new    ">
			<g>
				<polygon fill="#282861" points="292.123,234.149 323.437,215.952 323.476,202.183 292.16,220.38 				"/>
			</g>
			<g>
				<polygon fill="#4D4D4D" points="289.867,227.446 321.181,209.249 305.738,200.235 274.427,218.433 				"/>
			</g>
			<g>
				<polygon fill="#434483" points="276.718,211.364 276.677,225.235 292.123,234.149 292.16,220.38 				"/>
			</g>
		</g>
		<g enable-background="new    ">
			<g>
				<polygon fill="#282861" points="415.888,305.604 422.65,301.909 422.693,288.138 415.925,291.833 				"/>
			</g>
			<g>
				<polygon fill="#434483" points="400.466,282.812 400.427,296.679 415.888,305.604 415.925,291.833 				"/>
			</g>
		</g>
		<g enable-background="new    ">
			<polygon fill="#9EB6DF" points="260.319,107.553 260.057,211.036 438.355,313.978 438.355,210.343 			"/>
			<g>
				<polygon fill="#DFEBFC" points="255.73,32.038 255.494,110.256 433.792,213.198 434.027,134.979 374.503,100.61 369.779,97.883 
					319.982,69.135 315.246,66.399 				"/>
			</g>
			<polygon fill="#FAFCFF" points="287.042,13.841 346.556,48.2 351.294,50.936 401.089,79.688 405.82,82.414 465.343,116.782 
				434.027,134.979 374.503,100.61 369.779,97.883 319.982,69.135 315.246,66.399 255.73,32.038 			"/>
		</g>
		<g enable-background="new    ">
			<polygon fill="#282861" points="340.925,54.323 329.185,61.149 329.234,43.202 340.925,36.411 			"/>
			<g>
				<polygon fill="#9EB6DF" points="383.783,64.983 394.246,58.908 335.058,24.708 324.527,30.772 				"/>
			</g>
			<g>
				<polygon fill="#434483" points="324.527,30.772 324.453,58.414 329.185,61.149 329.234,43.202 379.035,71.954 378.982,89.897 
					383.707,92.628 383.783,64.983 				"/>
			</g>
		</g>
	</g>
	<polygon fill="#282861" points="394.246,86.503 383.707,92.628 383.783,64.983 394.246,58.908 	"/>
	<polygon fill="#01C5F9" points="326.298,142.507 363.273,163.854 358.38,166.696 321.404,145.349 	"/>
	<polygon fill="#0286D8" points="363.273,185.542 358.318,188.423 358.351,177.257 358.38,166.696 363.273,163.854 	"/>
	<polygon fill="#03AAE0" points="358.38,166.696 358.318,188.423 321.404,167.108 321.404,145.349 	"/>
	<polygon fill="#B6CBEA" points="433.792,134.979 465.343,116.782 465.343,298.901 438.355,313.978 438.355,210.548 
		433.826,213.294 433.826,213.159 433.792,213.198 	"/>
</g>
<path fill="#E8EFF9" d="M271.462,287.004l-58.436-33.702c-16.199-9.343-42.761-9.437-59.024-0.208l-1.039,0.59
	c-16.264,9.229-16.318,24.424-0.119,33.767l70.785,40.827l-0.135,0.076v54.085l36.785-20.868v-53.976l11.183-6.456V287.004z"/>
<path fill="#434483" d="M205.167,120.974l19.307,68.744c1.495,5.322-1.607,10.851-6.928,12.346
	c-4.893,1.373-9.954-1.137-11.904-5.686l-28.202-65.6c-3.214-7.477,0.242-16.141,7.717-19.357c7.478-3.215,16.147,0.242,19.36,7.718
	C204.767,119.718,204.998,120.386,205.167,120.974z"/>
<g>
	<path fill="#282861" d="M282.441,380.903c0,0,11.709,12.77,15.641,15.347s-4.625,9.229-26.826-8.957c0,0-3.389-2.057-2.527-7.419
		L282.441,380.903z"/>
	<path fill="#F3925F" d="M250.728,280.867c0.035-10.146,7.18-14.218,16.005-9.116c8.792,5.082,15.878,17.361,15.843,27.506v6.463
		v2.807v72.377c0.006,1.068-0.691,2.137-2.094,2.953c-2.801,1.626-7.357,1.626-10.176,0c-1.411-0.816-2.119-1.883-2.129-2.949
		h-0.055l-6.823-76.641C255.115,298.166,250.72,288.813,250.728,280.867z"/>
	<path fill="#282861" d="M267.23,390.175c0,0,11.712,12.767,15.644,15.346c3.932,2.576-4.625,9.229-26.826-8.959
		c0,0-3.39-2.056-2.528-7.418L267.23,390.175z"/>
	<path fill="#FEA972" d="M222.745,298.308l12.787-5.569c-0.099-0.88-0.15-1.749-0.149-2.602c0.036-10.146,7.179-14.219,16.006-9.115
		c8.79,5.081,15.877,17.36,15.842,27.505v6.463v2.807v72.379c0.007,1.068-0.69,2.135-2.091,2.949c-2.805,1.631-7.359,1.631-10.181,0
		c-1.408-0.813-2.12-1.879-2.126-2.947h-0.055l-6.717-75.451L222.745,298.308z"/>
	<path fill="#434483" d="M272.392,274.739c-6.799-6.178-55.583-46.744-67.117-56.33c-0.28-20.08-1.425-102.777-1.429-103.863
		c-0.021-8.172-4.766-12.364-11.263-10.881v-0.005c-35.594,6.233-55.968,36.349-55.968,36.349l0.01,0.004
		c-3.947,5.584-6.514,12.414-6.498,18.454c0.007,1.778,0.688,4.843,0.688,4.843c0.043,0.138,15.541,79.195,15.541,79.195l0.059-0.02
		c0.215,8.832,1.133,20.182,4.314,23.51c14.613,15.295,62.631,35.983,76.684,41.581
		C241.468,313.174,280.111,281.755,272.392,274.739z"/>
	<path fill="#9EB6DF" d="M165.273,113.976c6.069-3.615,33.652,8.041,33.652,8.041l-4.143,52.028l-42.085-39.495
		C152.698,134.55,156.89,118.971,165.273,113.976z"/>
	<path fill="#B6CBEA" d="M191.655,133.573l3.128,40.472c0,0-34.53-44.383-31.777-53.956
		C165.759,110.517,191.655,133.573,191.655,133.573z"/>
	<path fill="#FFFFFF" d="M183.244,128.7l-10.4,14.264c0,0-15.465-19.728-8.298-27.803c7.168-8.081,23.611,4.119,27.109,18.412
		L183.244,128.7z"/>
	<path fill="#282861" d="M205.451,94.22c-5.101,16.557-3.614,33.103-3.614,33.103s-14.223-0.806-18.91-9.972
		C170.005,92.081,205.451,94.22,205.451,94.22z"/>
	<path fill="#F3925F" d="M173.736,103.716c0,0,0.483,9.055-6.931,13.568c-1.522,6.396,16.438,11.416,16.438,11.416
		c2.997-4.486-2.124-5.578,4.37-12.611C178.615,112.213,173.736,103.716,173.736,103.716z"/>
	<path fill="#282861" d="M195.339,76.312c0,0-0.009-0.019-0.018-0.033c0.009,0.015,0.015,0.029,0.015,0.029L195.339,76.312z"/>
	<path fill="#F3925F" d="M173.905,101.88c0,0-1.414-4.329-3.864-2.19c-2.44,2.134,0.557,9.733,2.53,8.454
		C174.548,106.868,173.905,101.88,173.905,101.88z"/>
	<g>
		<path fill="#FEA972" d="M171.312,89.288c1.329-5.101,8.23-5.929,8.23-5.929c14.135,3.433,26.832,0.312,27.416,0.165
			c0,1.936-0.143,3.977-0.58,6.232c-4.046,20.813-10.822,38.187-24,28.868c-4.1-2.912-8.053-7.38-11.277-12.573
			c-0.463-2.848-1.291-9.912,0.215-16.766L171.312,89.288z"/>
	</g>
</g>
<g>
	<g enable-background="new    ">
		<polygon fill="#0286D8" points="166.972,269.35 227.202,304.35 307.992,257.721 247.558,222.828 166.972,266.448 		"/>
		<polygon fill="#01C5F9" points="166.972,266.448 227.202,301.448 307.992,254.819 247.558,219.927 		"/>
		<polygon fill="#0286D8" points="289.666,249.921 247.558,225.7 176.948,266.463 218.885,290.772 		"/>
	</g>
</g>
<path fill="#434483" d="M160.573,160.745l-4.881,78.557c-0.356,5.711-5.275,10.049-10.984,9.697
	c-5.276-0.329-9.383-4.553-9.696-9.697l-4.884-78.557c-0.523-8.408,5.869-15.648,14.277-16.174
	c8.406-0.521,15.646,5.871,16.168,14.279C160.612,159.46,160.608,160.149,160.573,160.745z"/>
<g>
	<path fill="#FEA972" d="M207.521,252.272l15.811,6.656c3.893,1.637,5.721,6.127,4.082,10.02c-1.544,3.667-5.641,5.49-9.36,4.326
		l-15.232-4.824l0,0C195.642,266.177,200.438,249.29,207.521,252.272z"/>
	<path fill="#434483" d="M135.743,235.396c1.878-5.932,8.207-9.215,14.139-7.34c0.326,0.104,0.662,0.229,0.969,0.357l56.67,23.859
		c-7.083-2.982-11.879,13.904-4.7,16.178l0,0l-59.737-18.918C137.148,247.657,133.865,241.326,135.743,235.396z"/>
</g>
<g>
	<path fill="#FEA972" d="M258.464,217.384L258.464,217.384l8.98,8.034c3.025,2.71,3.285,7.362,0.577,10.39
		c-2.515,2.811-6.705,3.234-9.716,1.113l-10.934-7.689C243.052,226.188,253.755,213.171,258.464,217.384z"/>
	<path fill="#434483" d="M207.168,187.717c3.442-4.894,10.196-6.068,15.091-2.63c0.332,0.236,0.693,0.523,0.991,0.789l35.214,31.508
		l0,0c-4.709-4.213-15.412,8.805-11.092,11.848l-37.575-26.424C204.903,199.368,203.726,192.61,207.168,187.717z"/>
</g>
<polygon fill="#03AAE0" points="245.638,246.181 227.413,304.386 307.992,257.86 326.216,199.673 "/>
<path fill="#282861" d="M157.521,94.224c1.638-4.95,5.328-17.912,9.097-24.059c8.689-14.168,20.643-9.775,24.285-9.05
	c0.205,0.048,0.454,0.115,0.728,0.19c0.084,0.023,0.171,0.056,0.262,0.09c0.198,0.059,0.409,0.133,0.63,0.221
	c0.129,0.047,0.256,0.094,0.397,0.152c0.242,0.093,0.507,0.215,0.776,0.333c0.294,0.14,0.605,0.288,0.921,0.456
	c0.118,0.058,0.232,0.12,0.348,0.184c0.299,0.158,0.606,0.33,0.925,0.52c0.027,0.016,0.056,0.036,0.089,0.056
	c3.537,2.14,7.767,5.968,9.803,12.129c0.007,0.019,0.018,0.042,0.018,0.042c0.761,2.326,1.166,5.02,1.159,8.037
	c0,0,0.562,1.506-0.994,8.299c0,0-13.441,4.188-24.227,0.813c-4.584,5.464-5.105,24.909-6.643,35.042
	C162.513,118.495,156.358,101.132,157.521,94.224z"/>
</svg>
