<?xml version="1.0" encoding="utf-8"?>
<!-- Generator: Adobe Illustrator 16.0.0, SVG Export Plug-In . SVG Version: 6.00 Build 0)  -->
<!DOCTYPE svg PUBLIC "-//W3C//DTD SVG 1.1//EN" "http://www.w3.org/Graphics/SVG/1.1/DTD/svg11.dtd">
<svg version="1.1" id="Layer_1" xmlns="http://www.w3.org/2000/svg" xmlns:xlink="http://www.w3.org/1999/xlink" x="0px" y="0px"
	 width="541.853px" height="495.618px" viewBox="0 0 541.853 495.618" enable-background="new 0 0 541.853 495.618"
	 xml:space="preserve">
<g>
	<polygon fill="#E8EFF9" points="270.927,202.723 17.042,349.229 270.927,495.6 524.812,349.229 	"/>
	<path fill="#E8EFF9" d="M455.771,326.485L387.2,287.446c-6.721-3.825-17.173-4.143-23.229-0.706
		c-2.576,1.462-3.947,3.379-4.169,5.393l-65.556-37.32c-6.72-3.825-17.17-4.145-23.227-0.707c-6.058,3.437-5.516,9.379,1.202,13.203
		l68.571,39.041c6.72,3.826,17.171,4.144,23.229,0.706c2.577-1.462,3.947-3.381,4.169-5.395l65.554,37.323
		c6.72,3.824,17.171,4.143,23.229,0.706C463.03,336.254,462.491,330.311,455.771,326.485z"/>
	<g>
		<path fill="#282861" d="M282.958,244.291c0,0,0.078,18.573-4.557,12.644c-1.946-2.489-3.174-7.835-3.62-15.217
			c0,0,0-7.034,9.416-4.587L282.958,244.291z"/>
	</g>
	<g>
		<g>
			<path fill="#F3925F" d="M385.588,77.861l18.266,45.81l-10.305-3.893l57.274-21.164c2.597-0.959,5.476,0.368,6.437,2.963
				c0.897,2.434-0.233,5.13-2.517,6.247l-54.954,26.609c-3.6,1.742-7.899,0.365-9.839-3.065l-0.465-0.827l-24.188-42.979
				c-3.052-5.424-1.129-12.297,4.296-15.35c5.426-3.052,12.297-1.129,15.349,4.295C385.18,76.931,385.41,77.424,385.588,77.861z"/>
		</g>
	</g>
	<path fill="#DFEBFC" d="M399.186,105.302l-12.55-27.037c-0.724-1.532-2.459-2.595-5.035-2.826
		c-5.151-0.459-11.714,2.586-14.661,6.809c-1.472,2.11-1.765,4.113-1.04,5.646l0,0l12.552,27.033l0,0
		c0.722,1.534,2.455,2.597,5.032,2.828c5.151,0.458,11.716-2.59,14.661-6.813C399.621,108.834,399.914,106.833,399.186,105.302
		L399.186,105.302z"/>
	
		<ellipse transform="matrix(0.4313 0.9022 -0.9022 0.4313 348.1049 -352.5955)" fill="#F3925F" cx="453.734" cy="99.822" rx="7.81" ry="9.215"/>
	<g>
		<path fill="#282861" d="M446.074,326.323c0,0,17.226,6.946,9.981,8.997c-3.039,0.859-8.454-0.024-15.454-2.399
			c0,0-5.648-2.608-0.687-8.343L446.074,326.323z"/>
	</g>
	<g>
		<g>
			<path fill="#434483" d="M377.682,171.58l-28.196,96.708l-0.428,1.466c-1.57,5.388-7.212,8.482-12.601,6.911
				c-0.698-0.202-1.405-0.503-2.02-0.832l-53.162-28.984c-2.635-1.438-3.607-4.74-2.171-7.375c1.271-2.335,4.012-3.362,6.451-2.566
				l57.584,18.722l-15.049,7.544l18.602-99.002c1.627-8.658,9.964-14.357,18.621-12.731c8.657,1.626,14.356,9.963,12.73,18.621
				C377.949,170.572,377.822,171.092,377.682,171.58z"/>
		</g>
	</g>
	<g>
		<g>
			<path fill="#434483" d="M386.546,167.612l48.51,61.557l0.832,1.06c0.96,1.217,1.525,2.654,1.709,4.087l11.073,88.982
				c0.367,2.971-1.739,5.678-4.712,6.048c-2.766,0.345-5.307-1.464-5.938-4.113l-20.926-87.193l2.543,5.146l-56.668-54.142
				c-6.376-6.093-6.607-16.203-0.513-22.58c6.092-6.377,16.202-6.607,22.578-0.514C385.562,166.454,386.102,167.057,386.546,167.612
				z"/>
		</g>
	</g>
	<g>
		<path fill="#9EB6DF" d="M390.553,73.82c-0.021-6.635-3.873-10.042-9.15-8.836l0.001-0.002
			c-28.91,5.06-45.459,29.523-45.459,29.523l0.009,0.002c-3.21,4.536-5.291,10.084-5.276,14.99c0.004,1.445,0.556,3.932,0.556,3.932
			c0.034,0.113,8.732,49.285,11.627,68.495c1.434,9.532,48.555,0.042,48.207-14.407C390.716,153.068,390.555,74.827,390.553,73.82z"
			/>
		<path fill="#DFEBFC" d="M374.876,85.699l-6.939,12.746c0,0-21.19-16.021-12.383-25.944c8.807-9.925,24.64-0.911,28.939,16.65
			L374.876,85.699z"/>
		<polygon fill="#434483" points="378.005,92.042 378.63,87.046 375.152,85.799 374.66,86.097 372.277,90.475 376.756,92.684 
			393.995,135.354 404.573,140.967 400.11,124.667 		"/>
	</g>
	<path fill="none" stroke="#F54970" stroke-width="2" stroke-linecap="round" stroke-miterlimit="10" d="M375.608,109.924"/>
	<g>
		<path fill="#F3925F" d="M356.951,62.545c0,0,4.561,8.233-0.564,15.842c7.306,16.566,25.432,7.283,22.188,0.033
			s0.211-10.236,0.211-10.236L356.951,62.545z"/>
	</g>
	<path fill="#FEA972" d="M383.061,39.678c-0.458,0.294-10.451,6.598-23.501,7.881c0,0-5.676,2.707-5.38,7.332v-0.002l0.002,0.008
		c-0.968-0.809-2.433-1.532-3.497,0.237c-1.703,2.845,3.653,9.06,5.192,7.216c0.986,2.912,2.142,5.262,2.816,6.525
		c4.213,3.368,8.849,5.924,13.173,7.142c13.887,3.882,14.817-12.525,12.446-30.993C384.052,43.021,383.604,41.289,383.061,39.678z"
		/>
	<path fill="#282861" d="M363.635,51.282c0,0-8.438,2.603-3.528,10.381l-3.465-0.648c0,0-5.819-3.912-4.87-11.958
		C352.72,41.007,363.635,51.282,363.635,51.282z"/>
	<path fill="#282861" d="M344.807,40.384c3.23-9.453,12.103-14.667,20.688-14.305c3.995-0.023,31.271,9.593,16.469,21.155
		c-3.223,1.996-9.201,4.356-21.74,4.023c0,0-6.34-0.991-6.044,3.633l0.002,0.006c-0.968-0.809-2.433-1.532-3.497,0.237
		c-1.703,2.845,3.653,9.06,5.192,7.216c0.888,2.619,1.908,4.777,2.596,6.105c0.069,0.123,0.136,0.244,0.193,0.369
		c1.656,3.496-0.634,4.717-0.634,4.717c-0.166-3.723-5.302-9.02-6.322-10.036C346.667,58.636,341.299,50.636,344.807,40.384z"/>
	<path fill="#FEA972" d="M346.552,203.196c1.708,4.795-0.201,9.854-4.267,11.3c-4.061,1.446-8.739-1.267-10.446-6.062
		c-1.707-4.793,0.203-9.854,4.265-11.3C340.17,195.688,344.847,198.402,346.552,203.196z"/>
	<polygon fill="#DFEBFC" points="291.996,183.592 356.727,207.037 356.727,158.693 291.996,135.25 	"/>
	<g>
		<g>
			<path fill="#FEA972" d="M349.266,125.248l-37.253,51.84l-0.837-9.701l32.526,39.733c1.753,2.142,1.438,5.3-0.705,7.054
				c-1.99,1.629-4.859,1.472-6.663-0.278l-36.881-35.726c-2.471-2.393-2.904-6.094-1.271-8.945l0.434-0.756l31.735-55.389
				c3.091-5.396,9.974-7.264,15.369-4.173c5.396,3.092,7.265,9.974,4.172,15.369C349.703,124.609,349.486,124.941,349.266,125.248z"
				/>
		</g>
	</g>
	<path fill="#DFEBFC" d="M335.644,146.545l17.008-26.999c0.96-1.542,0.909-3.717-0.386-6.164c-2.579-4.902-9.141-9.027-14.648-9.219
		c-2.755-0.096-4.725,0.809-5.685,2.348l0,0l-17.006,26.999l0,0c-0.957,1.543-0.906,3.719,0.388,6.165
		c2.581,4.897,9.139,9.025,14.646,9.219C332.716,148.991,334.688,148.089,335.644,146.545L335.644,146.545z"/>
	<path fill="#282861" d="M368.951,26.782c3.884,1.354,13.156,1.272,13.595-5.288c0,0,7.762,6.351,0,12.194c0,0,9.167,5.844,0,17.324
		c0,0-1.663-6.275-6.938-7.589C370.332,42.11,368.951,26.782,368.951,26.782z"/>
	<g>
		<polygon fill="#E8EFF9" points="82.467,359.994 174.148,412.927 288.753,346.713 196.799,293.753 		"/>
		<polygon fill="#E8EFF9" points="256.698,418.095 284.314,433.576 304.268,422.307 276.376,406.798 		"/>
		<polygon fill="#E8EFF9" points="291.247,397.547 342.227,426.823 362.181,415.551 310.925,386.25 		"/>
		<polygon fill="#E8EFF9" points="325.792,376.729 394.8,416.149 414.753,404.879 345.472,365.431 		"/>
		<polygon fill="#E8EFF9" points="360.341,355.934 409.709,384.416 429.663,373.146 380.021,344.637 		"/>
		<polygon fill="#DFEBFC" points="99.644,266.178 179.909,312.521 280.245,254.55 199.74,208.185 		"/>
		<g>
			<path fill="#6BDAAF" d="M220.415,238.994c18.18,10.496,18.271,27.497,0.221,37.991c-18.054,10.488-47.397,10.488-65.577-0.009
				c-18.164-10.485-18.267-27.486-0.214-37.977C172.903,228.509,202.253,228.509,220.415,238.994z"/>
		</g>
		<g>
			<rect x="155.417" y="195.495" fill="#00B9AD" width="64.016" height="60.185"/>
			<g>
				<path fill="#6BDAAF" d="M108.247,42.883v105.485c0,43.776,35.479,79.246,79.255,79.246c43.747,0,79.225-35.47,79.225-79.246
					V42.883H108.247z"/>
			</g>
		</g>
		<g>
			<path fill="#6DE4FD" d="M243.833,13.512c31.179,18.005,31.341,47.177,0.36,65.179c-30.968,17.996-81.326,17.996-112.509-0.008
				c-31.172-17.994-31.331-47.166-0.367-65.158C162.298-4.479,212.656-4.483,243.833,13.512z"/>
		</g>
		<g>
			<path fill="#00B9AD" d="M234.542,18.908c26.025,15.024,26.162,39.366,0.307,54.386c-25.839,15.018-67.856,15.018-93.882-0.008
				c-26.005-15.012-26.143-39.354-0.307-54.37C166.51,3.896,208.535,3.892,234.542,18.908z"/>
		</g>
		<g>
			<path fill="#00B9AD" d="M209.973,242.532c12.57,7.261,12.638,19.021,0.149,26.283c-12.483,7.254-32.781,7.254-45.356-0.009
				c-12.563-7.254-12.628-19.014-0.144-26.268C177.111,235.283,197.412,235.283,209.973,242.532z"/>
		</g>
		<polygon fill="#B6CBEA" points="180.174,393.551 179.909,312.521 280.245,254.55 300.091,323 		"/>
		<polygon fill="#9EB6DF" points="207.521,363.989 207.38,318.813 263.315,286.491 274.379,324.655 		"/>
		<polygon fill="#9EB6DF" points="99.644,266.178 179.909,312.521 180.174,393.551 80.317,337.157 		"/>
		<g>
			<g enable-background="new    ">
				<g>
					<g>
						<path fill="#00B9AD" d="M111.474,198.482c-7.232,0-13.959-2.37-19.491-7.093c-8.236-7.053-12.656-18.378-12.454-31.896
							c0.191-12.833,4.551-26.275,12.27-37.852c5.746-8.622,12.989-15.612,20.946-20.208c5.308-3.064,10.737-4.973,16.137-5.675
							c3.346-0.442,6.391,1.919,6.825,5.255c0.433,3.336-1.919,6.392-5.255,6.825c-3.798,0.494-7.707,1.889-11.615,4.146
							c-6.343,3.663-12.188,9.339-16.901,16.415C89.171,147.54,88.24,172.145,99.9,182.13c6.519,5.563,16.312,5.478,26.192-0.233
							l0.111-0.063c0.18-0.1,0.361-0.209,0.535-0.314c2.873-1.748,6.621-0.832,8.368,2.045c1.746,2.875,0.831,6.621-2.045,8.368
							c-0.301,0.183-0.614,0.37-0.928,0.543C125.178,196.485,118.113,198.482,111.474,198.482z"/>
					</g>
				</g>
			</g>
		</g>
	</g>
	<polygon fill="#00B9AD" points="276.463,374.798 256.698,386.281 256.698,418.342 276.757,406.867 	"/>
	<polygon fill="#00B9AD" points="345.56,260.032 325.792,271.517 325.792,376.752 345.853,365.278 	"/>
	<polygon fill="#00B9AD" points="380.108,299.644 360.341,311.128 360.341,355.957 380.402,344.483 	"/>
	<polygon fill="#00B9AD" points="311.011,302.47 291.247,313.954 291.247,397.547 311.011,386.24 	"/>
</g>
</svg>
