<?xml version="1.0" encoding="utf-8"?>
<!-- Generator: Adobe Illustrator 16.0.0, SVG Export Plug-In . SVG Version: 6.00 Build 0)  -->
<!DOCTYPE svg PUBLIC "-//W3C//DTD SVG 1.1//EN" "http://www.w3.org/Graphics/SVG/1.1/DTD/svg11.dtd">
<svg version="1.1" id="Layer_1" xmlns="http://www.w3.org/2000/svg" xmlns:xlink="http://www.w3.org/1999/xlink" x="0px" y="0px"
	 width="541.853px" height="495.618px" viewBox="0 0 541.853 495.618" enable-background="new 0 0 541.853 495.618"
	 xml:space="preserve">
<g>
	<polygon fill="#E8EFF9" points="271.401,220.027 32.874,357.671 271.401,495.188 509.929,357.672 	"/>
	<path fill="#E8EFF9" d="M310.262,307.518l56.185-32.644l-88.362-50.99l-39.336,14.986L32.874,357.671l95.901,55.289l50.686-29.446
		l65.546,0.172c0,0,42.414-4.496,58.528-13.862C332.816,352.812,335.012,326.096,310.262,307.518z"/>
	<g>
		<g>
			<g enable-background="new    ">
				<g>
					<path fill="#9EB6DF" d="M327.335,327.296l-0.025,9.252c-0.036,12.045-7.954,24.075-23.776,33.275
						c-31.83,18.491-83.6,18.497-115.655-0.014c-16.122-9.306-24.175-21.524-24.139-33.727l0.024-9.252
						c-0.033,12.194,8.019,24.414,24.14,33.724c32.058,18.507,83.827,18.507,115.655,0.008
						C319.38,351.374,327.301,339.342,327.335,327.296z"/>
				</g>
				<g>
					<path fill="#E8EFF9" d="M303.181,293.563c32.058,18.506,32.225,48.497,0.377,66.999
						c-31.828,18.499-83.597,18.499-115.655-0.008c-32.039-18.494-32.204-48.485-0.377-66.982
						C219.374,275.066,271.142,275.066,303.181,293.563z"/>
				</g>
			</g>
		</g>
		<g>
			<polygon fill="#282861" points="227.265,294.873 227.275,321.099 241.091,329.077 249.992,307.992 249.975,281.766 			"/>
			<polygon fill="#434483" points="241.083,302.85 241.091,329.077 263.808,315.972 263.792,289.746 			"/>
		</g>
		<g>
			<polygon fill="#FEA972" points="120.652,382.837 393.128,225.534 393.128,15.77 120.643,173.093 			"/>
			<g>
				<polygon fill="#F3925F" points="364.04,58.785 364.04,199.308 370.413,202.461 370.413,55.103 				"/>
				<polygon fill="#F3925F" points="364.04,199.308 143.353,325.828 143.353,332.643 370.413,202.461 				"/>
				<polygon fill="#DFEBFC" points="364.04,58.785 143.353,186.205 143.353,325.828 364.04,199.308 				"/>
			</g>
			<path fill="#FFF2BA" d="M370.421,2.66c0,0-270.267,155.11-272.476,157.314l22.697,13.119L393.128,15.77L370.421,2.66z"/>
			<polygon fill="#F3925F" points="120.643,173.093 97.946,159.974 97.946,369.729 120.652,382.837 			"/>
		</g>
	</g>
	<g>
		<path fill="#C1272D" d="M249.396,160.383v4.545C247.312,163.647,247.316,161.658,249.396,160.383z"/>
		<path fill="#C1272D" d="M257.629,160.294c2.231,1.298,2.222,3.398-0.024,4.697c-0.037,0.023-0.083,0.026-0.12,0.048v-4.795
			C257.526,160.267,257.584,160.276,257.629,160.294z"/>
		<g>
			<path fill="#C1272D" d="M227.855,177.425c2.253,1.302,2.243,3.429-0.028,4.738c-0.026,0.015-0.062,0.015-0.087,0.033v-4.818
				C227.774,177.404,227.821,177.404,227.855,177.425z"/>
			<path fill="#C1272D" d="M219.655,177.425v4.75c-0.006,0-0.012-0.005-0.022-0.005
				C217.374,180.854,217.386,178.735,219.655,177.425z"/>
		</g>
	</g>
	<g>
		<path fill="#434483" d="M256.108,146.379c11.083-6.388,20.13-1.279,20.171,11.435c0.019,9.292-4.789,20.129-11.718,27.755
			l0.105,38.838c0.022,5.303-3.695,11.728-8.301,14.396c-4.541,2.616-8.291,0.481-8.31-4.801l-0.09-38.849
			c-6.96,0.402-11.821-4.858-11.844-14.164C236.083,168.3,245.037,152.771,256.108,146.379z"/>
	</g>
	<g>
		<g>
			<path fill="#F2B481" d="M378.639,191.826l23.865,47.334l0.358,0.711c1.286,2.551,0.561,5.59-1.576,7.313l-26.177,21.141
				c-1.772,1.432-4.369,1.154-5.801-0.617c-1.304-1.615-1.188-3.915,0.182-5.393l22.854-24.697l-1.218,8.024l-28.552-44.664
				c-2.753-4.308-1.494-10.031,2.813-12.785s10.031-1.494,12.785,2.813C378.341,191.272,378.5,191.552,378.639,191.826z"/>
		</g>
	</g>
	<path fill="#DFEBFC" d="M391.029,211.014l-13.356-23.833c-0.768-1.352-2.428-2.204-4.799-2.233
		c-4.741-0.061-10.529,3.183-12.927,7.245c-1.201,2.032-1.325,3.884-0.558,5.235l0,0l13.356,23.833l0,0
		c0.769,1.351,2.427,2.202,4.798,2.233c4.741,0.059,10.527-3.183,12.928-7.246C391.67,214.217,391.796,212.365,391.029,211.014
		L391.029,211.014z"/>
	<path fill="#9EB6DF" d="M465.321,248.071c-0.089-0.051-0.178-0.096-0.267-0.147c-5.627-15.723-16.942-30.791-30-38.328
		c-18.66-10.774-33.913-2.086-33.972,19.401c-0.025,9.142,2.708,19.14,7.285,28.444c-4.534,4.012-7.261,10.778-7.285,19.828
		c-0.06,21.49,15.085,47.728,33.748,58.505c15.176,8.758,28.074,4.688,32.435-8.635c17.699,8.924,31.788,0.106,31.847-20.544
		C499.167,285.104,484.022,258.866,465.321,248.071z"/>
	<path fill="#9EB6DF" d="M417.625,249.965l-152.392-86.502c-8.424-4.778-15.316-2.37-15.316,5.352c0,0.022,0.003,0.046,0.004,0.069
		l-0.004-0.003l0.004,33.033c0.003,9.685,3.904,19.859,8.67,22.611c4.765,2.751,8.664-2.921,8.664-12.605v-19.23l7.097,4.027
		l0.002,12.218c0.001,9.685,3.903,19.86,8.669,22.611s8.664-2.921,8.664-12.605v-12.382l125.938,71.487
		c8.425,4.777,15.316,2.369,15.316-5.353S426.049,254.743,417.625,249.965z"/>
	<path fill="#E8EFF9" d="M236.797,375.455l0.658-0.379c9.796-5.654,25.828-5.654,35.624,0l102.441,59.113l-9.907,5.711
		l-36.401-21.003c-4.099-2.366-10.809-2.366-14.908,0l-0.275,0.158c-4.101,2.366-4.1,6.235,0.001,8.6l36.415,20.99l-11.167,6.438
		L236.8,396.005C227.002,390.356,227,381.109,236.797,375.455z"/>
	<g>
		<path fill="#F2B481" d="M378.787,314.736l-7.267,113.237c-0.133,2.064-1.914,3.631-3.979,3.498
			c-1.901-0.122-3.381-1.645-3.497-3.498l-7.267-113.237c-0.391-6.077,4.22-11.321,10.298-11.712
			c6.079-0.389,11.321,4.222,11.712,10.3C378.816,313.779,378.812,314.293,378.787,314.736z"/>
	</g>
	<g>
		<path fill="#282861" d="M351.448,427.472c0.775-0.448,11.629,0.123,11.629,0.123l0.21-10.624c1.112,3.038,9.014,2.519,9.014,0.283
			c0,2.566-0.741,14.872-0.741,16.286c0,1.729-1.024,3.648-3.772,3.364c-2.748-0.285-14.343-5.135-14.343-5.135
			C350.848,430.269,349.949,428.336,351.448,427.472z"/>
	</g>
	<g>
		<path fill="#F2B481" d="M353.078,329.218l-7.267,112.576c-0.134,2.064-1.916,3.63-3.979,3.497
			c-1.901-0.123-3.381-1.645-3.497-3.497l-7.268-112.576c-0.392-6.077,4.217-11.323,10.295-11.715
			c6.078-0.394,11.323,4.216,11.716,10.294C353.107,328.255,353.103,328.771,353.078,329.218z"/>
	</g>
	<g>
		<path fill="#282861" d="M325.738,441.29c0.776-0.448,11.63,0.124,11.63,0.124l0.21-10.625c1.112,3.038,9.014,2.52,9.014,0.284
			c0,2.565-0.739,14.871-0.739,16.285c0,1.729-1.026,3.649-3.774,3.365s-14.343-5.135-14.343-5.135
			C325.139,444.089,324.241,442.154,325.738,441.29z"/>
	</g>
	<path fill="#434483" d="M373.161,251.955l-41.847,16.461l-5.911,72.344c0,0,1.441,11.123,16.67,10.616
		c15.228-0.506,36.69-13.923,38.587-24.545C382.373,317.234,375.655,261.724,373.161,251.955z"/>
	<path fill="#DFEBFC" d="M370.169,182.938l0.001-0.003c-26.683,4.672-41.956,27.247-41.956,27.247l0.007,0.004
		c-2.959,4.188-4.882,9.307-4.869,13.834c0.004,1.333,0.516,3.63,0.516,3.63c0.03,0.105,9.052,21.131,7.446,40.768
		c-1.605,19.638,44.139,2.261,41.847-16.461c-2.293-18.72,5.456-60.084,5.454-60.863
		C378.597,184.967,375.042,181.824,370.169,182.938z"/>
	<g>
		<g>
			<path fill="#FEA972" d="M329.187,159.426c-0.214,1.57,2.223,7.999,2.223,7.999c-0.291,10.941,4.279,18.795,11.25,19.023
				c0.693,1.453,3.262,7.28,3.262,7.28c1.488,5.209,17.764-1.453,14.136-8.542l-3.036-7.479
				C357.021,177.707,329.601,156.99,329.187,159.426z"/>
		</g>
	</g>
	<g>
		<g>
			<path fill="#F2B481" d="M345.023,223.49l-50.93,34.029l-0.576,0.384c-2.882,1.926-6.78,1.15-8.706-1.732
				c-0.512-0.766-0.836-1.635-0.978-2.488l-6.209-38.548c-0.36-2.248,1.167-4.363,3.415-4.725c2.076-0.334,4.038,0.945,4.61,2.913
				l10.956,37.476l-10.26-3.837l47.739-38.377c3.982-3.202,9.808-2.569,13.01,1.414c3.202,3.982,2.569,9.808-1.415,13.009
				C345.472,223.176,345.243,223.343,345.023,223.49z"/>
		</g>
	</g>
	<path fill="#DFEBFC" d="M327.464,237.282l22.174-15.961c1.256-0.913,1.915-2.658,1.677-5.019
		c-0.475-4.717-4.351-10.102-8.657-12.027c-2.154-0.963-4.009-0.878-5.264,0.037l0,0l-22.173,15.96l0,0
		c-1.257,0.915-1.915,2.66-1.678,5.02c0.475,4.718,4.349,10.101,8.656,12.028C324.354,238.281,326.208,238.197,327.464,237.282
		L327.464,237.282z"/>
	<path fill="#282861" d="M362.106,142.796c-12.703-24.365-52.528,4.564-27.789,24.174c2.102,10.323,2.186,22.807-7.938,32.746
		c-10.125,9.938-3.534,21.037,0,14.353c3.533-6.686,11.1-8.116,18.5-8.151l0.006-0.01
		C358.118,206.256,379.67,193.095,362.106,142.796z"/>
	<path fill="#FEA972" d="M333.58,171.59c0,0-0.391-8.706,1.948-6.953C337.867,166.392,334.359,182.246,333.58,171.59z"/>
</g>
</svg>
