<?xml version="1.0" encoding="utf-8"?>
<!-- Generator: Adobe Illustrator 16.0.0, SVG Export Plug-In . SVG Version: 6.00 Build 0)  -->
<!DOCTYPE svg PUBLIC "-//W3C//DTD SVG 1.1//EN" "http://www.w3.org/Graphics/SVG/1.1/DTD/svg11.dtd">
<svg version="1.1" id="Layer_1" xmlns="http://www.w3.org/2000/svg" xmlns:xlink="http://www.w3.org/1999/xlink" x="0px" y="0px"
	 width="541.853px" height="495.618px" viewBox="0 0 541.853 495.618" enable-background="new 0 0 541.853 495.618"
	 xml:space="preserve">
<g>
	<g>
		<path fill="#F54970" d="M321.632,40.8c9.467-5.468,17.181-1.072,17.209,9.79c0.03,10.896-7.632,24.149-17.099,29.616
			c-9.453,5.456-17.164,1.083-17.193-9.816c-0.003-0.86,0.042-1.729,0.13-2.609c0.272-2.668,0.961-5.425,1.98-8.141
			C309.565,51.885,315.179,44.523,321.632,40.8z"/>
	</g>
	<path fill="#FF98C4" d="M313.345,27.698c-3.122-1.816-7.444-1.562-12.212,1.19c-6.451,3.726-12.064,11.085-14.975,18.839
		c-1.017,2.717-1.704,5.472-1.976,8.143c-0.092,0.879-0.134,1.75-0.131,2.604c0.013,5.418,1.924,9.222,5.004,11.01l20.497,11.911
		c-3.079-1.789-4.99-5.591-5.004-11.006c-0.003-0.86,0.042-1.729,0.13-2.609c0.272-2.668,0.961-5.425,1.98-8.141
		c2.905-7.754,8.52-15.116,14.973-18.839c4.765-2.754,9.086-3.005,12.207-1.193C327.008,35.638,320.177,31.666,313.345,27.698z"/>
	<polygon fill="#E8EFF9" points="270.974,245.505 52.687,371.468 270.974,497.315 489.26,371.47 	"/>
	<g>
		<path fill="#E8EFF9" d="M276.922,468.004c-8.063,4.647-21.256,4.647-29.318,0l-61.521-35.984
			c-8.063-4.647-8.064-12.257-0.003-16.908l0.541-0.313c8.061-4.65,21.25-4.65,29.31,0l61.457,36.031
			c8.06,4.65,8.059,12.259-0.003,16.908L276.922,468.004z"/>
	</g>
	<polygon fill="#E8EFF9" points="145.138,389.813 174.92,372.637 112.79,336.784 82.989,353.981 	"/>
	<polygon fill="#E8EFF9" points="190.795,362.418 220.577,345.243 159.354,309.914 129.554,327.11 	"/>
	<polygon fill="#E8EFF9" points="237.66,334.621 267.442,317.445 206.873,282.495 177.073,299.689 	"/>
	<polygon fill="#E8EFF9" points="223.646,272.815 284.035,307.629 313.817,290.454 253.446,255.619 	"/>
	<g>
		<g>
			<polygon fill="#DFEBFC" points="194.269,145.701 173.772,133.792 199.323,119.041 219.817,130.951 			"/>
		</g>
		<g enable-background="new    ">
			<g>
				<polygon fill="#DFEBFC" points="147.358,201.848 126.863,189.937 152.395,175.199 172.89,187.108 				"/>
			</g>
			<g>
				<polygon fill="#B6CBEA" points="172.89,187.108 173.232,368.974 147.705,383.711 147.358,201.848 				"/>
			</g>
		</g>
		<g>
			<polygon fill="#DFEBFC" points="241.347,147.584 220.85,135.675 246.38,120.935 266.877,132.845 			"/>
		</g>
		<g enable-background="new    ">
			<g>
				<polygon fill="#9EB6DF" points="288.705,302.307 268.208,290.396 267.957,140.938 288.451,152.849 				"/>
			</g>
			<g>
				<polygon fill="#DFEBFC" points="288.451,152.849 267.957,140.938 293.485,126.2 313.984,138.111 				"/>
			</g>
		</g>
		<g enable-background="new    ">
			<g>
				<path fill="#DFEBFC" d="M206.225,42.432c1.319-2.573,2.45-5.224,3.361-7.895l20.5,11.911c0,0-0.005,0.007-0.005,0.009
					c-6.816-3.96-13.63-7.921-20.444-11.878c6.814,3.957,13.628,7.917,20.444,11.878c-0.913,2.666-2.045,5.314-3.359,7.888
					C220.166,50.505,213.459,46.607,206.225,42.432z"/>
			</g>
			<g>
				<path fill="#F54970" d="M141.15,116.132c4.604-2.655,8.785-2.979,11.869-1.367c1.499,0.782,2.74,2.023,3.645,3.676
					c1.069,1.949,1.669,4.47,1.678,7.491c0.032,10.881-7.61,24.14-17.079,29.607c-9.471,5.465-17.185,1.073-17.213-9.808
					C124.021,134.872,131.682,121.599,141.15,116.132z"/>
			</g>
		</g>
	</g>
	<line fill="none" stroke="#434483" stroke-width="7" stroke-miterlimit="10" x1="137.284" y1="113.176" x2="194.696" y2="31.344"/>
	
		<line fill="none" stroke="#434483" stroke-width="7" stroke-linecap="round" stroke-miterlimit="10" x1="194.696" y1="31.344" x2="295.833" y2="52.374"/>
	<path fill="#FF98C4" d="M204.65,3.128c-4.715-2.739-11.238-2.356-18.445,1.801c-14.335,8.278-25.919,28.366-25.873,44.816
		c0.015,5.249,1.209,9.5,3.293,12.583c1.016,1.507,2.245,2.74,3.646,3.672c0.209,0.136,0.418,0.267,0.633,0.389l20.498,11.917
		c-0.216-0.127-0.428-0.258-0.632-0.397c-1.406-0.932-2.631-2.163-3.646-3.665c-2.087-3.09-3.282-7.336-3.295-12.587
		c-0.047-16.45,11.538-36.54,25.875-44.815c7.203-4.157,13.727-4.537,18.441-1.801C218.313,11.07,211.479,7.099,204.65,3.128z"/>
	<path fill="#FF98C4" d="M156.665,118.441c-0.839-1.53-1.968-2.71-3.321-3.5l-20.5-11.91c-0.104-0.063-0.212-0.122-0.321-0.181
		c-3.087-1.613-7.268-1.287-11.869,1.371c-9.468,5.465-17.13,18.74-17.102,29.601c0.02,5.403,1.929,9.207,5.01,10.998
		c6.832,3.972,13.663,7.942,20.495,11.912c-3.082-1.789-4.991-5.594-5.006-11c-0.029-10.86,7.631-24.133,17.1-29.6
		c2.282-1.315,4.457-2.055,6.451-2.275C150.815,115.437,154.036,116.913,156.665,118.441z"/>
	<g>
		<path fill="#F54970" d="M206.705,16.841c14.33-8.272,25.973-1.597,26.019,14.854c0.013,4.742-0.938,9.782-2.637,14.754
			c-0.916,2.672-2.047,5.322-3.364,7.896c-4.737,9.27-11.865,17.54-19.852,22.151c-7.539,4.351-14.34,4.577-19.099,1.413
			c-1.406-0.932-2.631-2.163-3.646-3.665c-2.087-3.09-3.282-7.336-3.295-12.587C180.782,45.206,192.367,25.116,206.705,16.841z"/>
	</g>
	<g>
		<g>
			<path fill="#9EB6DF" d="M295.83,359.214l-2.891,6.355c-0.327,0.723-0.01,1.57,0.711,1.898c0.721,0.329,1.568,0.01,1.897-0.712
				l2.848-6.261c2.328,1.404,4.592,3.46,6.514,6.195l-4.348,3.73c-0.601,0.515-0.67,1.418-0.153,2.02
				c0.516,0.603,1.421,0.671,2.02,0.154l4.016-3.443c1.601,2.865,2.835,6.129,3.594,9.616l-5.96,1.491
				c-0.767,0.191-1.233,0.971-1.042,1.739c0.19,0.767,0.971,1.234,1.737,1.041l5.765-1.442c0.399,2.868,0.483,5.842,0.19,8.828
				l-4.396-0.481c-0.787-0.085-1.495,0.481-1.582,1.268c-0.086,0.786,0.483,1.493,1.27,1.579l4.314,0.475
				c-0.624,3.475-1.771,6.924-3.532,10.199l-23.391-36.686C282.394,359.234,288.939,356.455,295.83,359.214z"/>
			<path fill="#B6CBEA" d="M271.308,374.848l6.986,0.062c0.789,0.006,1.425,0.654,1.419,1.445c-0.008,0.792-0.653,1.427-1.444,1.421
				l-6.879-0.06c0.29,2.705,1.201,5.623,2.87,8.52l5.215-2.369c0.72-0.325,1.568-0.006,1.896,0.715
				c0.328,0.722,0.009,1.569-0.711,1.897l-4.819,2.186c1.926,2.66,4.363,5.155,7.204,7.314l3.867-4.773
				c0.498-0.616,1.401-0.71,2.016-0.213c0.612,0.501,0.71,1.402,0.211,2.016l-3.74,4.617c2.432,1.573,5.093,2.905,7.924,3.898
				l1.418-4.191c0.254-0.747,1.066-1.15,1.817-0.896c0.749,0.254,1.152,1.067,0.899,1.816l-1.394,4.11
				c3.412,0.902,7.026,1.317,10.739,1.101l-23.391-36.686C276.998,362.676,271.712,367.438,271.308,374.848z"/>
		</g>
		<g>
			<g>
				<g>
					<path fill="#F672AB" d="M289.597,421.88h-51.07c0,0,6.91,29.745,7.034,30.123l0.01,0.03l0,0
						c0.699,2.083,2.444,4.066,5.231,5.676c7.417,4.281,19.392,4.281,26.759,0.004c2.769-1.611,4.493-3.597,5.171-5.68l0,0
						L289.597,421.88z"/>
					<path fill="#FF98C4" d="M290.457,412.074h-4.788c-0.886-0.736-1.877-1.444-3.012-2.103c-10.31-5.95-26.968-5.95-37.214,0.005
						c-1.127,0.653-2.109,1.361-2.984,2.098h-4.629v8.289c-0.01,0.239-0.012,0.489,0,0.729v0.08h0.005
						c0.201,3.76,2.764,7.485,7.729,10.354c10.314,5.955,26.974,5.955,37.213,0.006c5.122-2.979,7.671-6.88,7.651-10.778h0.029
						V412.074z"/>
					<g>
						<path fill="#FF98C4" d="M282.681,401.937c10.314,5.952,10.368,15.602,0.123,21.56c-10.242,5.947-26.901,5.947-37.214-0.007
							c-10.308-5.951-10.362-15.601-0.12-21.549C255.712,395.985,272.374,395.985,282.681,401.937z"/>
					</g>
					<g>
						<path fill="#99338D" d="M246.471,411.113c9.438-5.483,24.781-5.487,34.277-0.004c3.117,1.799,5.21,3.966,6.291,6.257
							c2.954-4.934,1.011-10.64-5.821-14.58c-9.494-5.482-24.838-5.479-34.273,0.006c-6.341,3.68-8.392,8.9-6.176,13.594
							C241.922,414.461,243.824,412.653,246.471,411.113z"/>
						<path fill="#F3925F" d="M247.054,422.641c9.5,5.48,24.843,5.48,34.277,0.003c2.65-1.538,4.553-3.351,5.708-5.277
							c-1.081-2.291-3.174-4.458-6.291-6.257c-9.497-5.483-24.839-5.479-34.277,0.004c-2.647,1.54-4.549,3.348-5.702,5.272
							C241.848,418.677,243.939,420.841,247.054,422.641z"/>
					</g>
				</g>
			</g>
		</g>
		<g>
			<path fill="none" stroke="#434483" stroke-width="3" stroke-linecap="round" stroke-miterlimit="10" d="M261.426,414.746
				c0-27.519,2.183-49.786,4.88-49.786"/>
			<path fill="none" stroke="#434483" stroke-width="3" stroke-linecap="round" stroke-miterlimit="10" d="M265.571,414.438
				c0-17.179,11.917-48.856,20.481-48.856"/>
			<path fill="none" stroke="#434483" stroke-width="3" stroke-linecap="round" stroke-miterlimit="10" d="M261.428,413.203
				c0-17.075-6.277-30.893-14.032-30.893"/>
			<g>
				<path fill="#B6CBEA" d="M257.508,392.763l-6.835-1.422c-0.775-0.159-1.534,0.335-1.694,1.11
					c-0.161,0.775,0.336,1.534,1.112,1.696l6.734,1.397c-0.859,2.581-2.367,5.242-4.61,7.721l-4.596-3.422
					c-0.634-0.472-1.533-0.34-2.003,0.295c-0.474,0.635-0.342,1.531,0.293,2.004l4.245,3.158c-2.443,2.192-5.355,4.116-8.59,5.623
					l-2.767-5.486c-0.356-0.706-1.217-0.989-1.924-0.633c-0.706,0.356-0.99,1.219-0.635,1.924l2.676,5.307
					c-2.709,1.021-5.59,1.758-8.568,2.13l-0.499-4.397c-0.091-0.784-0.798-1.351-1.585-1.263c-0.785,0.091-1.35,0.802-1.263,1.585
					l0.49,4.313c-3.528,0.158-7.145-0.2-10.729-1.199l30.637-30.893C254.53,379.659,258.683,385.433,257.508,392.763z"/>
				<path fill="#9EB6DF" d="M236.859,372.283l1.479,6.826c0.166,0.772-0.324,1.536-1.099,1.703
					c-0.772,0.167-1.535-0.325-1.702-1.095l-1.457-6.725c-2.574,0.877-5.222,2.407-7.678,4.675l3.457,4.565
					c0.478,0.632,0.353,1.527-0.277,2.008c-0.632,0.477-1.529,0.353-2.008-0.279l-3.194-4.217c-2.169,2.463-4.067,5.392-5.549,8.636
					l5.511,2.723c0.707,0.351,0.999,1.208,0.647,1.918c-0.349,0.71-1.21,1.002-1.919,0.65l-5.327-2.631
					c-0.999,2.719-1.711,5.604-2.057,8.587l4.399,0.462c0.788,0.083,1.357,0.785,1.277,1.573c-0.083,0.788-0.789,1.36-1.576,1.276
					l-4.317-0.453c-0.126,3.527,0.262,7.144,1.291,10.717l30.637-30.893C249.985,375.152,244.178,371.05,236.859,372.283z"/>
			</g>
		</g>
		<g>
			<path fill="#9EB6DF" d="M277.374,408.208l-3.347,6.129c-0.377,0.693-0.122,1.567,0.572,1.945c0.693,0.379,1.564,0.123,1.943-0.57
				l3.297-6.039c2.221,1.572,4.33,3.788,6.045,6.654l-4.608,3.404c-0.636,0.47-0.771,1.366-0.3,2.004
				c0.47,0.636,1.366,0.771,2.003,0.3l4.255-3.143c1.389,2.976,2.381,6.321,2.883,9.854l-6.052,1.052
				c-0.779,0.136-1.301,0.879-1.166,1.659c0.137,0.778,0.88,1.301,1.657,1.164l5.854-1.018c0.191,2.891,0.058,5.861-0.453,8.818
				l-4.351-0.801c-0.777-0.143-1.526,0.372-1.667,1.15c-0.144,0.776,0.371,1.524,1.147,1.67l4.269,0.782
				c-0.872,3.422-2.268,6.779-4.267,9.915l-20.654-38.291C263.972,407.252,270.703,404.956,277.374,408.208z"/>
			<path fill="#B6CBEA" d="M251.779,422.016l6.96,0.569c0.79,0.066,1.375,0.756,1.313,1.543c-0.066,0.791-0.759,1.378-1.548,1.313
				l-6.854-0.56c0.093,2.72,0.787,5.698,2.24,8.707l5.375-1.982c0.742-0.276,1.566,0.104,1.839,0.849
				c0.273,0.743-0.107,1.566-0.849,1.84l-4.964,1.831c1.725,2.791,3.975,5.46,6.65,7.818l4.206-4.479
				c0.54-0.576,1.449-0.606,2.026-0.062c0.576,0.54,0.604,1.448,0.063,2.023l-4.065,4.334c2.31,1.745,4.867,3.268,7.615,4.462
				l1.723-4.075c0.309-0.728,1.149-1.069,1.877-0.761c0.73,0.307,1.07,1.148,0.764,1.875l-1.688,3.999
				c3.339,1.148,6.911,1.825,10.63,1.879l-20.654-38.291C258.341,410.291,252.724,414.653,251.779,422.016z"/>
		</g>
		<g>
			<path fill="#B6CBEA" d="M251.237,355.946l8.521-0.562c0.966-0.063,1.698-0.896,1.633-1.861c-0.063-0.966-0.897-1.696-1.862-1.634
				l-8.393,0.551c0.167-3.319,1.073-6.948,2.908-10.6l6.532,2.529c0.902,0.349,1.917-0.1,2.264-1.003
				c0.349-0.902-0.098-1.916-1.001-2.266l-6.031-2.335c2.162-3.38,4.968-6.596,8.281-9.43l5.054,5.559
				c0.651,0.717,1.758,0.771,2.475,0.117c0.716-0.649,0.768-1.759,0.117-2.474l-4.885-5.377c2.858-2.09,6.012-3.897,9.401-5.309
				l2.022,5.017c0.362,0.897,1.384,1.329,2.279,0.97c0.898-0.364,1.33-1.384,0.971-2.28l-1.985-4.921
				c4.105-1.339,8.484-2.098,13.032-2.09l-26.003,46.407C259.028,370.408,252.248,364.964,251.237,355.946z"/>
			<path fill="#9EB6DF" d="M282.258,373.327l-3.971-7.56c-0.449-0.857-0.123-1.916,0.735-2.364c0.857-0.451,1.915-0.122,2.364,0.734
				l3.913,7.446c2.744-1.879,5.365-4.546,7.522-8.016l-5.567-4.251c-0.771-0.588-0.917-1.688-0.329-2.456
				c0.588-0.771,1.687-0.917,2.455-0.328l5.142,3.924c1.753-3.608,3.033-7.682,3.717-11.986l-7.382-1.407
				c-0.949-0.183-1.572-1.1-1.392-2.051c0.182-0.948,1.099-1.573,2.05-1.391l7.136,1.358c0.29-3.526,0.187-7.164-0.381-10.788
				l-5.333,0.893c-0.954,0.161-1.857-0.483-2.019-1.439c-0.159-0.953,0.487-1.854,1.438-2.017l5.234-0.875
				c-1.001-4.2-2.642-8.33-5.021-12.205l-26.003,46.407C265.854,374.232,274.041,377.173,282.258,373.327z"/>
		</g>
	</g>
	<polygon fill="#9EB6DF" points="147.358,201.848 127.206,190.136 127.206,371.803 147.705,383.711 	"/>
	<polygon fill="#B6CBEA" points="219.817,130.951 194.269,145.701 194.204,356.329 219.325,341.824 	"/>
	<polygon fill="#B6CBEA" points="266.877,132.845 241.347,147.584 241.693,329.448 266.877,314.909 	"/>
	<polygon fill="#B6CBEA" points="313.984,138.111 288.451,152.849 288.705,302.307 313.984,287.712 	"/>
	<polygon fill="#9EB6DF" points="241.347,147.584 221.194,135.875 221.194,317.539 241.693,329.448 	"/>
	<polygon fill="#9EB6DF" points="194.269,145.701 173.772,133.792 174.2,344.672 194.269,356.334 	"/>
	<path fill="#E8EFF9" d="M303.803,313.532l0.601-0.349c8.965-5.172,23.637-5.172,32.602,0l93.748,54.099l-9.065,5.227
		l-33.313-19.222c-3.751-2.165-9.891-2.165-13.644,0l-0.251,0.146c-3.754,2.166-3.752,5.706,0,7.87l33.325,19.209l-10.219,5.893
		l-93.78-54.067C294.839,327.168,294.836,318.706,303.803,313.532z"/>
	<ellipse fill="#FEA972" cx="353.997" cy="148.196" rx="5.78" ry="6.389"/>
	<path fill="#282861" d="M387.12,378.276c-1.438,0.83-0.575,2.688,1.916,4.127c0,0,11.131,4.656,13.768,4.928
		c2.637,0.274,3.623-1.568,3.623-3.229c0-1.659,0-5.146,0-5.146S388.556,377.448,387.12,378.276z"/>
	<path fill="#282861" d="M407.799,364.847c-1.439,0.83-0.576,2.689,1.916,4.127c0,0,11.131,4.656,13.767,4.929
		c2.639,0.273,3.624-1.568,3.624-3.229c0-1.66,0-5.146,0-5.146S409.238,364.02,407.799,364.847z"/>
	<g>
		<g>
			<path fill="#9EB6DF" d="M434.573,229.338l-7.486,134.359c-0.168,2.985-2.723,5.271-5.705,5.104
				c-2.781-0.156-4.956-2.385-5.104-5.104l-7.488-134.359c-0.396-7.12,5.054-13.213,12.175-13.609
				c7.119-0.396,13.212,5.054,13.608,12.173C434.599,228.382,434.598,228.869,434.573,229.338z"/>
		</g>
	</g>
	<g>
		<g>
			<path fill="#9EB6DF" d="M414.787,247.761l-7.909,129.477c-0.182,3.002-2.765,5.287-5.768,5.105
				c-2.791-0.171-4.962-2.416-5.107-5.144l-6.999-129.529c-0.385-7.121,5.076-13.206,12.198-13.59
				c7.119-0.385,13.205,5.076,13.589,12.197C414.818,246.773,414.814,247.275,414.787,247.761z"/>
		</g>
	</g>
	<path fill="#FEA972" d="M355.413,147.197c6.124,2.585,8.504,3.588,8.504,3.588s-0.762,1.601-1.925,9.062
		c0,0-5.1-2.857-11.194-6.325C344.699,150.054,349.286,144.613,355.413,147.197z"/>
	<path fill="#282861" d="M439.369,120.071c-4.878-2.178-10.599,0.009-12.776,4.886l-17.493,39.158l-47.078-15.223
		c0,0-2.688-0.096-3.998,4.426c-1.308,4.522,0,6.199,0,6.199l52.709,22.724c3.818,1.635,8.327,0.061,10.239-3.693l0.274-0.538
		l22.794-44.716c0.069-0.137,0.149-0.306,0.215-0.448C446.431,127.97,444.245,122.25,439.369,120.071z"/>
	<path fill="#434483" d="M447.107,125.993c-0.021-7.03-4.103-10.637-9.693-9.36l0.002-0.003
		c-30.627,5.362-48.155,31.273-48.155,31.273l0.007,0.003c-3.396,4.805-5.604,10.683-5.589,15.878
		c0.004,1.531,2.354,82.471,2.354,82.471s1.652,12.767,19.131,12.186s33.029-17.175,35.203-29.366
		c1.678-9.392,0.771-22.191,0.267-30.892C441.88,184.472,447.109,126.931,447.107,125.993z"/>
	<g>
		<g>
			<path fill="#FEA972" d="M394.297,96.628c-0.207,1.506,2.129,7.671,2.129,7.671c-0.278,10.494,4.105,18.024,10.79,18.244
				c0.664,1.393,3.127,6.982,3.127,6.982c1.429,4.995,17.039-1.395,13.559-8.194l-2.914-7.172
				C420.988,114.159,394.692,94.292,394.297,96.628z"/>
		</g>
		<path fill="#282861" d="M420.843,81.999c-20.603-17.534-45.354,3.058-21.627,21.866c1.449,1.148,1.816,3.853,1.754,6.661
			l1.878,1.319l0.402-5.103c3.747-1.733,9.41,14.376,9.41,14.376l9.441-4.215C422.102,116.903,440.569,89.994,420.843,81.999z"/>
		<path fill="#F3925F" d="M403.272,109.898c0,0-2.227-5.845-0.63-6.031c1.599-0.181,4.574,6.655,3.003,10.021
			C404.073,117.262,403.272,109.898,403.272,109.898z"/>
	</g>
	
		<line fill="none" stroke="#FEA972" stroke-width="4" stroke-linecap="round" stroke-miterlimit="10" x1="352.427" y1="151.056" x2="346.563" y2="151.934"/>
	<path fill="#E8EFF9" d="M352.864,128.037l-35.076,19.608c-1.191,0.418-2.049,1.54-2.049,2.874v6.01l6.109-2.417v90.718
		l34.071-19.671v-91.589v-2.477C355.919,129.404,354.551,128.037,352.864,128.037z"/>
	<g>
		<line fill="none" stroke="#353D48" stroke-miterlimit="10" x1="328.831" y1="151.495" x2="349.494" y2="139.742"/>
		<line fill="none" stroke="#353D48" stroke-miterlimit="10" x1="328.831" y1="156.547" x2="349.494" y2="144.794"/>
		<line fill="none" stroke="#353D48" stroke-miterlimit="10" x1="328.831" y1="161.6" x2="349.494" y2="149.846"/>
		<line fill="none" stroke="#353D48" stroke-miterlimit="10" x1="328.831" y1="166.652" x2="349.494" y2="154.899"/>
		<line fill="none" stroke="#353D48" stroke-miterlimit="10" x1="328.831" y1="171.705" x2="349.494" y2="159.952"/>
		<line fill="none" stroke="#353D48" stroke-miterlimit="10" x1="328.831" y1="176.757" x2="349.494" y2="165.004"/>
		<line fill="none" stroke="#353D48" stroke-miterlimit="10" x1="328.831" y1="181.81" x2="349.494" y2="170.056"/>
		<line fill="none" stroke="#353D48" stroke-miterlimit="10" x1="328.831" y1="186.862" x2="349.494" y2="175.109"/>
		<line fill="none" stroke="#353D48" stroke-miterlimit="10" x1="328.831" y1="191.915" x2="349.494" y2="180.161"/>
		<line fill="none" stroke="#353D48" stroke-miterlimit="10" x1="328.831" y1="196.967" x2="349.494" y2="185.213"/>
		<line fill="none" stroke="#353D48" stroke-miterlimit="10" x1="328.831" y1="202.02" x2="349.494" y2="190.266"/>
		<line fill="none" stroke="#353D48" stroke-miterlimit="10" x1="328.831" y1="207.072" x2="349.494" y2="195.318"/>
		<line fill="none" stroke="#353D48" stroke-miterlimit="10" x1="328.831" y1="212.125" x2="349.494" y2="200.371"/>
		<line fill="none" stroke="#353D48" stroke-miterlimit="10" x1="328.831" y1="217.177" x2="349.494" y2="205.423"/>
		<line fill="none" stroke="#353D48" stroke-miterlimit="10" x1="328.831" y1="222.229" x2="349.494" y2="210.476"/>
		<line fill="none" stroke="#353D48" stroke-miterlimit="10" x1="328.831" y1="227.282" x2="349.494" y2="215.528"/>
		<line fill="none" stroke="#353D48" stroke-miterlimit="10" x1="328.831" y1="232.334" x2="349.494" y2="220.581"/>
	</g>
	<path fill="#B6CBEA" d="M321.848,163.983v-13.465c0-1.688-1.368-3.056-3.055-3.056c-1.688,0-3.055,1.368-3.055,3.056v16.993
		L321.848,163.983z"/>
	<ellipse fill="#FEA972" cx="321.75" cy="204.024" rx="5.78" ry="6.389"/>
	<g>
		<g>
			<path fill="#282861" d="M403.911,159.065l-6.698,57.637l-0.077,0.655c-0.505,4.358-4.448,7.48-8.806,6.974
				c-0.283-0.033-0.57-0.083-0.843-0.144l-61.252-13.909c-2.561-0.582-4.169-3.131-3.586-5.694c0.541-2.381,2.78-3.936,5.152-3.676
				l62.446,6.745l-9.725,7.485l4.134-57.878c0.381-5.327,5.009-9.337,10.336-8.957c5.329,0.381,9.338,5.008,8.957,10.336
				C403.941,158.769,403.924,158.936,403.911,159.065z"/>
		</g>
	</g>
	<path fill="#FEA972" d="M321.848,189.687v11.02l-5.813,2.412C316.035,203.118,315.269,196.393,321.848,189.687z"/>
	
		<line fill="none" stroke="#FEA972" stroke-width="4" stroke-linecap="round" stroke-miterlimit="10" x1="321.535" y1="199.956" x2="325.069" y2="194.854"/>
	
		<line fill="none" stroke="#FEA972" stroke-width="4" stroke-linecap="round" stroke-miterlimit="10" x1="353.664" y1="153.739" x2="357.198" y2="148.636"/>
</g>
</svg>
