<?xml version="1.0" encoding="utf-8"?>
<!-- Generator: Adobe Illustrator 16.0.0, SVG Export Plug-In . SVG Version: 6.00 Build 0)  -->
<!DOCTYPE svg PUBLIC "-//W3C//DTD SVG 1.1//EN" "http://www.w3.org/Graphics/SVG/1.1/DTD/svg11.dtd">
<svg version="1.1" id="Layer_1" xmlns="http://www.w3.org/2000/svg" xmlns:xlink="http://www.w3.org/1999/xlink" x="0px" y="0px"
	 width="541.853px" height="486.282px" viewBox="0 0 541.853 486.282" style="enable-background:new 0 0 541.853 486.282;"
	 xml:space="preserve">
<polygon style="fill:#E8EFF9;" points="270.927,173.747 0,330.086 270.927,486.282 541.853,330.087 "/>
<g>
	<g>
		<g style="enable-background:new    ;">
			<g>
				<path style="fill:#434483;" d="M216.451,288.076c1.287-0.741,2.32-0.154,2.324,1.322c0.005,1.464-1.02,3.24-2.309,3.983
					l-32.036,18.498c-1.271,0.73-2.305,0.144-2.309-1.317c-0.005-1.479,1.024-3.258,2.296-3.99L216.451,288.076z"/>
			</g>
			<g>
				<path style="fill:#DFEBFC;" d="M127.878,328.301l140.711-80.344l0.077,28.545L127.957,356.84L127.878,328.301z M216.467,293.382
					c1.289-0.743,2.313-2.52,2.309-3.983c-0.004-1.477-1.037-2.063-2.324-1.322l-32.033,18.496c-1.271,0.732-2.301,2.512-2.296,3.99
					c0.004,1.461,1.038,2.048,2.309,1.317L216.467,293.382"/>
			</g>
		</g>
		<g>
			<g>
				<polygon style="fill:#B6CBEA;" points="267.962,28.357 268.587,247.957 127.874,328.301 127.253,108.703 				"/>
			</g>
		</g>
	</g>
	<polygon style="fill:#434483;" points="267.962,11.476 128.026,92.271 128.067,129.865 268.007,49.068 	"/>
	<polygon style="fill:#F2F2F2;" points="244.04,57.173 247.438,55.211 247.438,50.348 244.04,52.311 	"/>
	<polygon style="fill:#F2F2F2;" points="248.86,54.389 252.259,52.43 252.259,44.684 248.86,46.646 	"/>
	<polygon style="fill:#F2F2F2;" points="253.68,51.605 257.079,49.645 257.079,39.381 253.68,41.344 	"/>
	<polygon style="fill:#F2F2F2;" points="258.498,48.824 261.899,46.863 261.899,34.139 258.498,36.102 	"/>
	<polygon style="fill:#9EB6DF;" points="127.957,84.792 120.608,80.523 120.608,352.566 127.957,356.84 	"/>
	<path style="fill:#B6CBEA;" d="M125.784,182.623c0,1.074-0.871,1.945-1.943,1.945l0,0c-1.076,0-1.949-0.871-1.949-1.945v-38.527
		c0-1.072,0.873-1.943,1.949-1.943l0,0c1.072,0,1.943,0.871,1.943,1.943V182.623z"/>
	<path style="fill:#B6CBEA;" d="M126.083,232.386c0,1.075-0.873,1.946-1.947,1.946l0,0c-1.074,0-1.944-0.871-1.944-1.946v-38.522
		c0-1.078,0.87-1.949,1.944-1.949l0,0c1.074,0,1.947,0.871,1.947,1.949V232.386z"/>
</g>
<path style="fill:#DFEBFC;" d="M267.829,4.719L127.957,84.792v25.077l139.937-80.797L267.829,4.719z M213.919,50.688l-32.037,18.494
	c-1.271,0.735-2.322,0.152-2.326-1.303c-0.004-1.48,1.042-3.268,2.313-4.006l32.032-18.492c1.271-0.73,2.304-0.146,2.309,1.334
	C216.214,48.174,215.185,49.953,213.919,50.688z M225.97,43.729c-1.288,0.742-2.324,0.152-2.328-1.303
	c-0.004-1.48,1.025-3.262,2.313-4.004c1.271-0.73,2.305-0.146,2.305,1.336C228.268,41.214,227.239,42.992,225.97,43.729z"/>
<polygon style="fill:#E8EFF9;" points="259.706,0 119.834,80.074 127.957,84.792 267.829,4.719 "/>
<polygon style="fill:#E8EFF9;" points="259.706,282.125 119.834,362.199 127.957,366.917 267.829,286.844 "/>
<g>
	<path style="fill:#434483;" d="M196.532,150.322c9.766-5.628,17.738-1.126,17.773,10.076c0.018,8.188-4.219,17.737-10.325,24.459
		l0.094,34.222c0.019,4.673-3.257,10.334-7.315,12.687c-4.002,2.304-7.306,0.424-7.322-4.23l-0.08-34.232
		c-6.133,0.354-10.416-4.281-10.437-12.481C178.888,169.639,186.776,155.955,196.532,150.322z"/>
</g>
<path style="fill:#E8EFF9;" d="M244.918,306.891l1.108-0.641c16.514-9.529,43.537-9.529,60.052,0c0,0,84.623,48.876,98.919,57.526
	c14.301,8.65,2.427,20.524-16.697,9.626c-4.625-2.669-13.021-7.761-22.359-12.9c-25.738-14.166-44.266,2.555-32.456,9.969
	c4.794,3.01,6.194,6.932,5.004,10.042c-1.983,5.185-11.165,8.114-23.831,0.812c-20.266-11.682-69.732-39.793-69.732-39.793
	C228.407,332.008,228.403,316.42,244.918,306.891z"/>
<g>
	<g>
		<path style="fill:#282861;" d="M341.601,146.201l-18.832,60.115l-0.192,0.613c-1.291,4.122-5.405,6.576-9.548,5.906l-78.306-12.59
			c-2.816-0.452-4.732-3.102-4.28-5.918c0.425-2.639,2.799-4.484,5.409-4.336l79.169,4.748l-9.74,6.52l16.146-60.891
			c1.486-5.606,7.236-8.946,12.844-7.459c5.606,1.486,8.946,7.236,7.459,12.844C341.693,145.891,341.643,146.066,341.601,146.201z"
			/>
	</g>
</g>
<g>
	<g>
		<path style="fill:#434483;" d="M361.497,240.619l-6.086,90.4l-7.14-10.24l57.322,25.165c3.61,1.585,5.252,5.797,3.667,9.407
			c-1.468,3.343-5.188,4.997-8.597,3.966l-59.941-18.058c-4.066-1.225-6.768-4.822-7.047-8.822l-0.093-1.418l-6.086-90.4
			c-0.633-9.389,6.467-17.512,15.855-18.145c9.389-0.632,17.512,6.467,18.145,15.855
			C361.547,239.07,361.541,239.898,361.497,240.619z"/>
	</g>
</g>
<g>
	<g>
		<path style="fill:#434483;" d="M326.994,276.887l-59.9,8.238l9.47-11.775l-5.034,61.283c-0.326,3.96-3.799,6.906-7.759,6.581
			c-3.569-0.294-6.315-3.147-6.583-6.608l-4.795-61.303c-0.402-5.15,2.863-9.74,7.602-11.201l1.87-0.574l57.774-17.836
			c9.001-2.778,18.551,2.266,21.328,11.267c2.779,9.001-2.265,18.55-11.266,21.329C328.833,276.555,327.864,276.761,326.994,276.887
			z"/>
	</g>
</g>
<g>
	<path style="fill:#FEA972;" d="M289.078,109.307c0.005,1.626,3.395,7.814,3.395,7.814c1.259,11.167,7.021,18.499,14.14,17.742
		c0.912,1.379,4.352,6.939,4.352,6.939c2.253,5.082,17.854-4.003,13.158-10.695l-4.15-7.17
		C319.972,123.938,289.151,106.771,289.078,109.307z"/>
</g>
<path style="fill:#434483;" d="M324.997,128.463c-23.117,14.491-32.572,38.52-32.572,38.52l0.009,0.002
	c-2.427,5.813-3.359,12.467-2.131,17.891c0.361,1.598,14.148,63.85,14.148,63.85s8.868,13.426,26.991,8.738
	s30.319-22.499,29.745-35.742c-0.276-6.424-6.968-40.316-9.301-65.111C348.809,123.884,328.207,126.451,324.997,128.463z"/>
<g>
	<path style="fill:#282861;" d="M315.053,89.863c-17.336-9.941-34.305,16.34-19.687,26.384c1.631,1.12,2.496,3.815,2.845,6.801
		l2.187,1.122l-0.327-5.471c3.713-2.392,7.205,9.959,13.781,12.16c6.576,2.199,8.911-2.096,8.911-2.096
		S337.147,95.418,315.053,89.863z"/>
	<path style="fill:#F3925F;" d="M300.558,122.044c0,0-3.226-5.865-1.561-6.3c1.668-0.43,5.836,6.377,4.668,10.179
		C302.5,129.73,300.558,122.044,300.558,122.044z"/>
</g>
<path style="fill:#282861;" d="M408.607,347.447c-0.747-0.016-19.003-7.608-19.003-7.608l-4.025,14.229l16.369,6.266
	c-0.254,3.762-0.36,7.031-0.028,7.638c0.855,1.558,2.863,0.678,4.461-1.956c0,0,5.244-11.801,5.598-14.616
	C412.332,348.583,410.385,347.486,408.607,347.447z"/>
<path style="fill:#282861;" d="M256.358,314.828l1.06,21.604c-3.344-0.131-6.118-0.133-6.664,0.182
	c-1.54,0.889-0.617,2.877,2.051,4.417c0,0,11.914,4.984,14.736,5.276c2.823,0.293,3.878-1.68,3.878-3.457c0-0.419,0-0.947,0-1.508
	c0-1.82,0.822-24.825,0.822-24.825L256.358,314.828z"/>
<path style="fill:#6DE4FD;" d="M193.147,169.164l-0.003-0.003l0.004,27.445c0.002,8.046,3.243,16.5,7.203,18.786
	c3.959,2.285,7.198-2.427,7.198-10.474v-15.978l5.896,3.346l0.002,10.151c0.002,8.046,3.243,16.501,7.203,18.786
	c3.959,2.286,7.198-2.426,7.198-10.473v-10.288l91.63,52.013c-0.462,2.041-0.731,4.277-0.738,6.738
	c-0.05,17.855,12.533,39.655,28.04,48.609c12.607,7.276,23.325,3.896,26.948-7.174c14.704,7.414,26.41,0.088,26.459-17.069
	c0.044-17.856-12.537-39.655-28.075-48.624c-0.074-0.043-0.147-0.08-0.222-0.122c-4.675-13.063-14.076-25.583-24.926-31.845
	c-15.504-8.952-28.176-1.733-28.225,16.119c-0.01,3.344,0.448,6.826,1.263,10.336l-114.134-64.786
	c-6.998-3.969-12.725-1.969-12.725,4.448C193.145,169.125,193.146,169.146,193.147,169.164z M371.024,270.36
	c0.015-5.22,3.707-7.321,8.255-4.699c4.539,2.623,8.207,8.976,8.193,14.193c-0.016,5.218-3.708,7.32-8.248,4.701
	C374.678,281.931,371.012,275.577,371.024,270.36z"/>
<g>
	<g>
		<path style="fill:#282861;" d="M310.457,178.053l-11.688,69.975l-0.152,0.908c-0.793,4.752-5.288,7.959-10.04,7.166
			c-2.006-0.336-3.741-1.335-5.013-2.73l-32.017-35.156c-1.925-2.113-1.772-5.387,0.342-7.313c1.897-1.729,4.731-1.779,6.684-0.242
			l37.389,29.379l-15.204,5.344l8.923-70.381c0.729-5.754,5.985-9.828,11.739-9.098c5.754,0.729,9.828,5.985,9.098,11.74
			C310.501,177.767,310.477,177.932,310.457,178.053z"/>
	</g>
</g>
<path style="fill:#282861;" d="M298.859,115.725c0,0-22.207,6.219-22.854,2.014c-0.646-4.205,9.237-17.357,22.515-16.494
	l0.904,14.529"/>
<path style="fill:#434483;" d="M327.364,104.479c0,0-11.899,13.006-35.941,11.246c0,0-13.215-17.293,8.646-28.392
	C321.93,76.233,327.364,104.479,327.364,104.479z"/>
<path style="fill:#E8EFF9;" d="M287.951,476.468l72.132-41.586c-68.045-39.963-118.307-68.916-118.307-68.916
	c-20.02-11.524-52.537-11.584-72.26-0.132s-19.5,30.287,0.496,41.854C170.013,407.688,219.868,436.512,287.951,476.468z"/>
<path style="fill:#6BDAAF;" d="M152.884,380.115c0,0,0-77.8,54.564-77.8c54.557,0,54.557,77.8,54.557,77.8h-0.139
	c-0.002,8.1-5.357,16.205-16.063,22.387c-21.334,12.316-55.782,12.316-76.963,0.006c-10.641-6.182-15.908-14.291-15.82-22.393
	H152.884z"/>
<g>
	<path style="fill:none;stroke:#434483;stroke-width:3;stroke-miterlimit:10;" d="M199.192,302.166
		c-4.594,2.652-4.619,6.945-0.055,9.596c4.555,2.648,11.971,2.648,16.561-0.002c4.59-2.648,4.611-6.944,0.055-9.592
		C211.192,299.518,203.78,299.518,199.192,302.166z"/>
</g>
<polyline style="fill:none;stroke:#434483;stroke-width:3;stroke-linejoin:round;stroke-miterlimit:10;" points="199.138,340.598 
	199.138,311.762 175.279,324.46 "/>
<path style="fill:none;stroke:#434483;stroke-width:3;stroke-miterlimit:10;" d="M199.138,310.277
	c-1.309,2.328-11.529-0.928-14.947-2.845c-3.414-1.917-5.128-5.36-3.818-7.689c1.305-2.326,5.135-2.659,8.553-0.74
	C192.339,300.918,200.442,307.948,199.138,310.277z"/>
<path style="fill:#6BDAAF;" d="M181.233,288.279l26.213-9.652l26.213,9.652l-15.676,19.004h-0.102
	c-0.035,0.125-0.076,0.248-0.125,0.375c-0.43,1.096-1.373,2.139-2.85,2.992c-4.148,2.395-10.852,2.395-14.969,0
	c-1.637-0.949-2.607-2.134-2.939-3.367h-0.09L181.233,288.279z"/>
<g>
	<path style="fill:#00B9AD;" d="M188.343,271.182c-1.436,0.83-0.877,4.164-1.91,5.117c-1.227,1.128-4.541,0.5-5.199,1.74
		c-0.758,1.425,1.718,3.631,1.703,5.107c-0.014,1.483-2.521,3.648-1.783,5.08c0.645,1.25,3.963,0.652,5.18,1.789
		c1.027,0.959,0.455,4.289,1.885,5.121c1.771,1.029,4.967-0.883,7.061-0.213c1.977,0.633,3.385,4.057,5.533,4.365
		c2.082,0.303,4.434-2.57,6.57-2.57c2.139-0.004,4.496,2.867,6.578,2.563c2.146-0.313,3.551-3.737,5.533-4.369
		c2.09-0.669,5.281,1.247,7.057,0.222c1.438-0.827,0.879-4.16,1.91-5.115c1.225-1.127,4.539-0.498,5.199-1.74
		c0.758-1.426-1.721-3.627-1.705-5.106c0.012-1.479,2.52-3.646,1.781-5.075c-0.643-1.252-3.963-0.652-5.176-1.789
		c-1.025-0.959-0.453-4.287-1.887-5.117c-1.771-1.031-4.965,0.879-7.055,0.211c-1.98-0.633-3.389-4.058-5.531-4.369
		c-2.084-0.303-4.439,2.57-6.578,2.572c-2.135,0-4.49-2.873-6.576-2.568c-2.145,0.313-3.549,3.736-5.531,4.371
		C193.312,272.074,190.12,270.156,188.343,271.182z"/>
</g>
<path style="fill:none;stroke:#434483;stroke-width:3;stroke-miterlimit:10;" d="M199.138,310.277
	c-1.305,2.328,6.811,9.345,10.23,11.256c3.42,1.91,7.25,1.571,8.549-0.761c1.305-2.331-0.412-5.769-3.832-7.681
	C210.667,311.18,200.437,307.945,199.138,310.277z"/>
<path style="fill:#6BDAAF;" d="M234.587,423.355c0,0,0-61.364,43.038-61.364c43.031,0,43.031,61.364,43.031,61.364h-0.109
	c-0.001,6.389-4.226,12.782-12.669,17.657c-16.828,9.716-43.998,9.716-60.705,0.005c-8.393-4.876-12.547-11.272-12.479-17.662
	H234.587z"/>
<g>
	<path style="fill:none;stroke:#434483;stroke-width:3;stroke-miterlimit:10;" d="M271.112,361.873
		c-3.623,2.093-3.643,5.478-0.043,7.569c3.593,2.088,9.442,2.088,13.063-0.002s3.637-5.478,0.043-7.566
		C280.578,359.784,274.731,359.784,271.112,361.873z"/>
</g>
<polyline style="fill:none;stroke:#434483;stroke-width:3;stroke-linejoin:round;stroke-miterlimit:10;" points="271.069,392.188 
	271.069,369.442 252.251,379.458 "/>
<path style="fill:none;stroke:#434483;stroke-width:3;stroke-miterlimit:10;" d="M271.069,368.271
	c-1.031,1.836-9.094-0.732-11.789-2.244c-2.693-1.513-4.045-4.228-3.012-6.065c1.029-1.834,4.05-2.098,6.746-0.584
	C265.707,360.889,272.099,366.435,271.069,368.271z"/>
<path style="fill:#6BDAAF;" d="M256.948,350.92l20.675-7.613l20.676,7.613l-12.364,14.989h-0.08
	c-0.028,0.099-0.061,0.195-0.099,0.296c-0.339,0.864-1.083,1.687-2.248,2.36c-3.272,1.889-8.56,1.889-11.807,0
	c-1.291-0.749-2.057-1.684-2.318-2.656h-0.071L256.948,350.92z"/>
<g>
	<path style="fill:#00B9AD;" d="M262.556,337.435c-1.133,0.654-0.692,3.284-1.507,4.035c-0.968,0.891-3.582,0.395-4.101,1.373
		c-0.598,1.124,1.354,2.864,1.343,4.029c-0.011,1.17-1.989,2.877-1.406,4.006c0.508,0.986,3.126,0.517,4.085,1.412
		c0.811,0.756,0.359,3.383,1.486,4.039c1.398,0.812,3.918-0.697,5.569-0.168c1.56,0.499,2.67,3.199,4.364,3.443
		c1.643,0.238,3.497-2.027,5.183-2.027c1.687-0.004,3.546,2.262,5.188,2.021c1.693-0.247,2.801-2.947,4.364-3.446
		c1.648-0.527,4.166,0.983,5.566,0.175c1.134-0.652,0.692-3.281,1.507-4.035c0.965-0.889,3.58-0.393,4.101-1.372
		c0.597-1.124-1.357-2.859-1.345-4.028c0.009-1.166,1.986-2.875,1.404-4.002c-0.507-0.988-3.125-0.516-4.082-1.411
		c-0.809-0.757-0.357-3.383-1.488-4.036c-1.397-0.814-3.916,0.693-5.564,0.166c-1.563-0.499-2.674-3.201-4.363-3.446
		c-1.643-0.239-3.501,2.027-5.188,2.028c-1.685,0-3.542-2.266-5.188-2.025c-1.691,0.246-2.799,2.947-4.362,3.447
		C266.475,338.138,263.957,336.626,262.556,337.435z"/>
</g>
<path style="fill:none;stroke:#434483;stroke-width:3;stroke-miterlimit:10;" d="M271.069,368.271
	c-1.028,1.836,5.372,7.37,8.069,8.878c2.698,1.506,5.719,1.238,6.743-0.601c1.029-1.839-0.325-4.55-3.022-6.058
	C280.163,368.983,272.095,366.432,271.069,368.271z"/>
</svg>
