<svg xmlns="http://www.w3.org/2000/svg" width="32" height="32" viewBox="0 0 32 32">
  <g id="email" transform="translate(-0.376 0)">
    <path id="패스_10" data-name="패스 10" d="M15.167,2a13.167,13.167,0,0,0,0,26.334H21.75V25.7H15.167A10.668,10.668,0,0,1,4.633,15.167,10.668,10.668,0,0,1,15.167,4.633,10.668,10.668,0,0,1,25.7,15.167V17.05a2.128,2.128,0,0,1-1.975,2.067A2.128,2.128,0,0,1,21.75,17.05V15.167a6.586,6.586,0,1,0-1.922,4.648,4.876,4.876,0,0,0,3.9,1.936,4.626,4.626,0,0,0,4.608-4.7V15.167A13.172,13.172,0,0,0,15.167,2Zm0,17.117a3.95,3.95,0,1,1,3.95-3.95A3.945,3.945,0,0,1,15.167,19.117Z" transform="translate(0.833 0.833)" fill="#fff"/>
    <rect id="사각형_10" data-name="사각형 10" width="32" height="32" transform="translate(0.376 0)" fill="rgba(0,0,0,0)"/>
  </g>
</svg>
