<svg xmlns="http://www.w3.org/2000/svg" width="32" height="32" viewBox="0 0 32 32">
  <g id="github" transform="translate(0.208 0)">
    <path id="패스_13" data-name="패스 13" d="M15.179,2A13.126,13.126,0,0,0,2.173,12.913a12.985,12.985,0,0,0,8.836,14.416c.659.121.941-.279.941-.622V24.5c-3.662.78-4.434-1.746-4.434-1.746a3.453,3.453,0,0,0-1.525-1.9c-1.2-.8.094-.789.094-.789A2.768,2.768,0,0,1,8.1,21.405a2.845,2.845,0,0,0,3.841,1.077,2.705,2.705,0,0,1,.828-1.736c-2.918-.334-6-1.448-6-6.425A4.976,4.976,0,0,1,8.128,10.83,4.584,4.584,0,0,1,8.26,7.394s1.1-.353,3.624,1.328a12.687,12.687,0,0,1,6.589,0c2.513-1.681,3.615-1.328,3.615-1.328a4.584,4.584,0,0,1,.132,3.435,4.976,4.976,0,0,1,1.356,3.491c0,5-3.078,6.091-6.015,6.416a3.068,3.068,0,0,1,.894,2.4v3.565c0,.427.235.752.941.622a12.984,12.984,0,0,0,8.833-14.437A13.127,13.127,0,0,0,15.179,2Z" transform="translate(0.834 0.833)" fill="#fff" fill-rule="evenodd"/>
    <rect id="사각형_12" data-name="사각형 12" width="32" height="32" transform="translate(-0.208 0)" fill="rgba(0,0,0,0)"/>
  </g>
</svg>
