<svg xmlns="http://www.w3.org/2000/svg" width="32" height="32" viewBox="0 0 32 32">
  <g id="window" transform="translate(0.376 0)">
    <g id="그룹_3" data-name="그룹 3" transform="translate(3.089 3.089)">
      <path id="패스_11" data-name="패스 11" d="M8.819,6.159A1.159,1.159,0,0,1,9.979,5h5.8a1.159,1.159,0,0,1,1.159,1.159v5.8a1.159,1.159,0,0,1-2.318,0v-3L8.481,15.095a1.161,1.161,0,1,1-1.641-1.641l6.137-6.135h-3A1.159,1.159,0,0,1,8.819,6.159Z" transform="translate(2.733 1.155)" fill="#fff"/>
      <path id="패스_12" data-name="패스 12" d="M6.59,5.641A5.382,5.382,0,0,1,11.683,2H22.442a5.38,5.38,0,0,1,5.38,5.38V18.139a5.386,5.386,0,0,1-3.641,5.093v.783a4.044,4.044,0,0,1-.844,2.4,3.636,3.636,0,0,1-2.963,1.405H7.958A5.918,5.918,0,0,1,2,21.861V9.452A3.734,3.734,0,0,1,3.175,6.6a3.886,3.886,0,0,1,2.632-.962H6.59ZM6.3,7.793H5.809a1.743,1.743,0,0,0-1.188.4A1.593,1.593,0,0,0,4.152,9.45V21.863a3.766,3.766,0,0,0,3.809,3.809H20.374A1.488,1.488,0,0,0,21.64,25.1a1.906,1.906,0,0,0,.387-1.08v-.5H11.683a5.38,5.38,0,0,1-5.38-5.38Zm5.38-3.641A3.228,3.228,0,0,0,8.456,7.38V18.139a3.228,3.228,0,0,0,3.228,3.228H22.442a3.228,3.228,0,0,0,3.228-3.228V7.38a3.228,3.228,0,0,0-3.228-3.228Z" transform="translate(-2 -2)" fill="#fff"/>
    </g>
    <rect id="사각형_11" data-name="사각형 11" width="32" height="32" transform="translate(-0.376 0)" fill="rgba(0,0,0,0)"/>
  </g>
</svg>
